<?xml version="1.0" encoding="UTF-8"?>
<!--Generator: Apple Native CoreSVG 123-->
<!DOCTYPE svg
PUBLIC "-//W3C//DTD SVG 1.1//EN"
       "http://www.w3.org/Graphics/SVG/1.1/DTD/svg11.dtd">
<svg version="1.1" xmlns="http://www.w3.org/2000/svg" xmlns:xlink="http://www.w3.org/1999/xlink" width="3300" height="2200">
 <!--glyph: "uni10017E.medium", point size: 100.000000, font version: "Version 15.0d7e11", template writer version: "5"-->
 <g id="Notes">
  <rect height="2200" id="artboard" style="fill:white;opacity:1" width="3300" x="0" y="0"/>
  <line id="" style="fill:none;stroke:black;opacity:1;stroke-width:0.5;" x1="263" x2="3036" y1="292" y2="292"/>
  <text style="stroke:none;fill:black;font-family:-apple-system,&quot;SF Pro Display&quot;,&quot;SF Pro Text&quot;,Helvetica,sans-serif;font-weight:bold;" transform="matrix(1 0 0 1 263 322)">Weight/Scale Variations</text>
  <text style="stroke:none;fill:black;font-family:-apple-system,&quot;SF Pro Display&quot;,&quot;SF Pro Text&quot;,Helvetica,sans-serif;text-anchor:middle;" transform="matrix(1 0 0 1 559.711 322)">Ultralight</text>
  <text style="stroke:none;fill:black;font-family:-apple-system,&quot;SF Pro Display&quot;,&quot;SF Pro Text&quot;,Helvetica,sans-serif;text-anchor:middle;" transform="matrix(1 0 0 1 856.422 322)">Thin</text>
  <text style="stroke:none;fill:black;font-family:-apple-system,&quot;SF Pro Display&quot;,&quot;SF Pro Text&quot;,Helvetica,sans-serif;text-anchor:middle;" transform="matrix(1 0 0 1 1153.13 322)">Light</text>
  <text style="stroke:none;fill:black;font-family:-apple-system,&quot;SF Pro Display&quot;,&quot;SF Pro Text&quot;,Helvetica,sans-serif;text-anchor:middle;" transform="matrix(1 0 0 1 1449.84 322)">Regular</text>
  <text style="stroke:none;fill:black;font-family:-apple-system,&quot;SF Pro Display&quot;,&quot;SF Pro Text&quot;,Helvetica,sans-serif;text-anchor:middle;" transform="matrix(1 0 0 1 1746.56 322)">Medium</text>
  <text style="stroke:none;fill:black;font-family:-apple-system,&quot;SF Pro Display&quot;,&quot;SF Pro Text&quot;,Helvetica,sans-serif;text-anchor:middle;" transform="matrix(1 0 0 1 2043.27 322)">Semibold</text>
  <text style="stroke:none;fill:black;font-family:-apple-system,&quot;SF Pro Display&quot;,&quot;SF Pro Text&quot;,Helvetica,sans-serif;text-anchor:middle;" transform="matrix(1 0 0 1 2339.98 322)">Bold</text>
  <text style="stroke:none;fill:black;font-family:-apple-system,&quot;SF Pro Display&quot;,&quot;SF Pro Text&quot;,Helvetica,sans-serif;text-anchor:middle;" transform="matrix(1 0 0 1 2636.69 322)">Heavy</text>
  <text style="stroke:none;fill:black;font-family:-apple-system,&quot;SF Pro Display&quot;,&quot;SF Pro Text&quot;,Helvetica,sans-serif;text-anchor:middle;" transform="matrix(1 0 0 1 2933.4 322)">Black</text>
  <line id="" style="fill:none;stroke:black;opacity:1;stroke-width:0.5;" x1="263" x2="3036" y1="1903" y2="1903"/>
  <g id="" transform="matrix(1 0 0 1 263 1933)">
   <path d="M 9.24805 0.830078 C 13.5547 0.830078 17.1387 -2.74414 17.1387 -7.05078 C 17.1387 -11.3574 13.5449 -14.9316 9.23828 -14.9316 C 4.94141 -14.9316 1.36719 -11.3574 1.36719 -7.05078 C 1.36719 -2.74414 4.95117 0.830078 9.24805 0.830078 Z M 9.24805 -0.654297 C 5.70312 -0.654297 2.87109 -3.49609 2.87109 -7.05078 C 2.87109 -10.6055 5.69336 -13.4473 9.23828 -13.4473 C 12.793 -13.4473 15.6348 -10.6055 15.6445 -7.05078 C 15.6543 -3.49609 12.8027 -0.654297 9.24805 -0.654297 Z M 9.22852 -3.42773 C 9.69727 -3.42773 9.9707 -3.74023 9.9707 -4.25781 L 9.9707 -6.31836 L 12.1973 -6.31836 C 12.6953 -6.31836 13.0371 -6.57227 13.0371 -7.04102 C 13.0371 -7.51953 12.7148 -7.7832 12.1973 -7.7832 L 9.9707 -7.7832 L 9.9707 -10.0098 C 9.9707 -10.5273 9.69727 -10.8496 9.22852 -10.8496 C 8.75977 -10.8496 8.50586 -10.5078 8.50586 -10.0098 L 8.50586 -7.7832 L 6.29883 -7.7832 C 5.78125 -7.7832 5.44922 -7.51953 5.44922 -7.04102 C 5.44922 -6.57227 5.80078 -6.31836 6.29883 -6.31836 L 8.50586 -6.31836 L 8.50586 -4.25781 C 8.50586 -3.75977 8.75977 -3.42773 9.22852 -3.42773 Z"/>
  </g>
  <g id="" transform="matrix(1 0 0 1 281.506 1933)">
   <path d="M 11.709 2.91016 C 17.1582 2.91016 21.6699 -1.60156 21.6699 -7.05078 C 21.6699 -12.4902 17.1484 -17.0117 11.6992 -17.0117 C 6.25977 -17.0117 1.74805 -12.4902 1.74805 -7.05078 C 1.74805 -1.60156 6.26953 2.91016 11.709 2.91016 Z M 11.709 1.25 C 7.09961 1.25 3.41797 -2.44141 3.41797 -7.05078 C 3.41797 -11.6504 7.08984 -15.3516 11.6992 -15.3516 C 16.3086 -15.3516 20 -11.6504 20.0098 -7.05078 C 20.0195 -2.44141 16.3184 1.25 11.709 1.25 Z M 11.6895 -2.41211 C 12.207 -2.41211 12.5195 -2.77344 12.5195 -3.33984 L 12.5195 -6.23047 L 15.5762 -6.23047 C 16.123 -6.23047 16.5039 -6.51367 16.5039 -7.03125 C 16.5039 -7.55859 16.1426 -7.86133 15.5762 -7.86133 L 12.5195 -7.86133 L 12.5195 -10.9277 C 12.5195 -11.5039 12.207 -11.8555 11.6895 -11.8555 C 11.1719 -11.8555 10.8789 -11.4844 10.8789 -10.9277 L 10.8789 -7.86133 L 7.83203 -7.86133 C 7.26562 -7.86133 6.89453 -7.55859 6.89453 -7.03125 C 6.89453 -6.51367 7.28516 -6.23047 7.83203 -6.23047 L 10.8789 -6.23047 L 10.8789 -3.33984 C 10.8789 -2.79297 11.1719 -2.41211 11.6895 -2.41211 Z"/>
  </g>
  <g id="" transform="matrix(1 0 0 1 304.924 1933)">
   <path d="M 14.9707 5.67383 C 21.9336 5.67383 27.6953 -0.078125 27.6953 -7.04102 C 27.6953 -14.0039 21.9238 -19.7559 14.9609 -19.7559 C 8.00781 -19.7559 2.25586 -14.0039 2.25586 -7.04102 C 2.25586 -0.078125 8.01758 5.67383 14.9707 5.67383 Z M 14.9707 3.85742 C 8.93555 3.85742 4.08203 -1.00586 4.08203 -7.04102 C 4.08203 -13.0762 8.92578 -17.9395 14.9609 -17.9395 C 21.0059 -17.9395 25.8594 -13.0762 25.8691 -7.04102 C 25.8789 -1.00586 21.0156 3.85742 14.9707 3.85742 Z M 14.9512 -1.06445 C 15.5176 -1.06445 15.8691 -1.45508 15.8691 -2.06055 L 15.8691 -6.13281 L 20.1074 -6.13281 C 20.6934 -6.13281 21.1133 -6.46484 21.1133 -7.02148 C 21.1133 -7.59766 20.7227 -7.93945 20.1074 -7.93945 L 15.8691 -7.93945 L 15.8691 -12.1875 C 15.8691 -12.8027 15.5176 -13.1934 14.9512 -13.1934 C 14.3848 -13.1934 14.0625 -12.7832 14.0625 -12.1875 L 14.0625 -7.93945 L 9.83398 -7.93945 C 9.21875 -7.93945 8.80859 -7.59766 8.80859 -7.02148 C 8.80859 -6.46484 9.23828 -6.13281 9.83398 -6.13281 L 14.0625 -6.13281 L 14.0625 -2.06055 C 14.0625 -1.47461 14.3848 -1.06445 14.9512 -1.06445 Z"/>
  </g>
  <text style="stroke:none;fill:black;font-family:-apple-system,&quot;SF Pro Display&quot;,&quot;SF Pro Text&quot;,Helvetica,sans-serif;font-weight:bold;" transform="matrix(1 0 0 1 263 1953)">Design Variations</text>
  <text style="stroke:none;fill:black;font-family:-apple-system,&quot;SF Pro Display&quot;,&quot;SF Pro Text&quot;,Helvetica,sans-serif;" transform="matrix(1 0 0 1 263 1971)">Symbols are supported in up to nine weights and three scales.</text>
  <text style="stroke:none;fill:black;font-family:-apple-system,&quot;SF Pro Display&quot;,&quot;SF Pro Text&quot;,Helvetica,sans-serif;" transform="matrix(1 0 0 1 263 1989)">For optimal layout with text and other symbols, vertically align</text>
  <text style="stroke:none;fill:black;font-family:-apple-system,&quot;SF Pro Display&quot;,&quot;SF Pro Text&quot;,Helvetica,sans-serif;" transform="matrix(1 0 0 1 263 2007)">symbols with the adjacent text.</text>
  <rect height="14" id="" style="fill:#00AEEF;stroke:none;opacity:0.4;" width="3" x="776" y="1919"/>
  <g id="" transform="matrix(1 0 0 1 779 1933)">
   <path d="M 10.5273 0 L 12.373 0 L 7.17773 -14.0918 L 5.43945 -14.0918 L 0.244141 0 L 2.08984 0 L 3.50586 -4.0332 L 9.11133 -4.0332 Z M 6.2793 -11.9531 L 6.33789 -11.9531 L 8.59375 -5.52734 L 4.02344 -5.52734 Z"/>
  </g>
  <rect height="14" id="" style="fill:#00AEEF;stroke:none;opacity:0.4;" width="3" x="791.617" y="1919"/>
  <text style="stroke:none;fill:black;font-family:-apple-system,&quot;SF Pro Display&quot;,&quot;SF Pro Text&quot;,Helvetica,sans-serif;font-weight:bold;" transform="matrix(1 0 0 1 776 1953)">Margins</text>
  <text style="stroke:none;fill:black;font-family:-apple-system,&quot;SF Pro Display&quot;,&quot;SF Pro Text&quot;,Helvetica,sans-serif;" transform="matrix(1 0 0 1 776 1971)">Leading and trailing margins on the left and right side of each symbol</text>
  <text style="stroke:none;fill:black;font-family:-apple-system,&quot;SF Pro Display&quot;,&quot;SF Pro Text&quot;,Helvetica,sans-serif;" transform="matrix(1 0 0 1 776 1989)">can be adjusted by modifying the width of the blue rectangles.</text>
  <text style="stroke:none;fill:black;font-family:-apple-system,&quot;SF Pro Display&quot;,&quot;SF Pro Text&quot;,Helvetica,sans-serif;" transform="matrix(1 0 0 1 776 2007)">Modifications are automatically applied proportionally to all</text>
  <text style="stroke:none;fill:black;font-family:-apple-system,&quot;SF Pro Display&quot;,&quot;SF Pro Text&quot;,Helvetica,sans-serif;" transform="matrix(1 0 0 1 776 2025)">scales and weights.</text>
  <g id="" transform="matrix(1 0 0 1 1289 1933)">
   <path d="M 2.83203 3.11523 L 4.375 4.6582 C 5.22461 5.48828 6.19141 5.41992 7.06055 4.46289 L 17.2754 -6.66016 C 17.7051 -6.36719 18.0957 -6.37695 18.5645 -6.47461 L 19.6094 -6.68945 L 20.3027 -5.99609 L 20.2539 -5.47852 C 20.1855 -4.95117 20.3516 -4.53125 20.8496 -4.0332 L 21.6602 -3.22266 C 22.168 -2.71484 22.8223 -2.68555 23.3008 -3.16406 L 26.5527 -6.41602 C 27.0312 -6.89453 27.0117 -7.54883 26.5039 -8.05664 L 25.6836 -8.87695 C 25.1855 -9.375 24.7754 -9.55078 24.2383 -9.47266 L 23.7109 -9.41406 L 23.0566 -10.0781 L 23.3398 -11.2207 C 23.4863 -11.7871 23.3398 -12.2559 22.7148 -12.8613 L 20.3027 -15.2539 C 16.7578 -18.7793 12.2266 -18.6719 9.11133 -15.5371 C 8.69141 -15.1074 8.64258 -14.5215 8.91602 -14.0918 C 9.15039 -13.7207 9.62891 -13.4961 10.2734 -13.6621 C 11.7871 -14.043 13.3008 -13.9258 14.7852 -12.9199 L 14.1602 -11.3379 C 13.9258 -10.752 13.9453 -10.2734 14.1797 -9.83398 L 3.01758 0.439453 C 2.08008 1.30859 1.97266 2.25586 2.83203 3.11523 Z M 10.6738 -15.1465 C 13.3398 -17.1387 16.6504 -16.8262 19.0527 -14.4141 L 21.6797 -11.8066 C 21.9141 -11.5723 21.9434 -11.3867 21.8848 -11.0938 L 21.5039 -9.53125 L 23.0762 -7.95898 L 24.043 -8.04688 C 24.3262 -8.07617 24.4141 -8.05664 24.6387 -7.83203 L 25.2637 -7.20703 L 22.5098 -4.46289 L 21.8848 -5.07812 C 21.6602 -5.30273 21.6406 -5.40039 21.6699 -5.68359 L 21.7578 -6.64062 L 20.1953 -8.20312 L 18.5742 -7.89062 C 18.291 -7.83203 18.1445 -7.83203 17.9102 -8.07617 L 15.7324 -10.2539 C 15.5078 -10.4883 15.4785 -10.625 15.6055 -10.9473 L 16.5527 -13.2227 C 14.9512 -14.7559 12.8418 -15.6055 10.8008 -14.9512 C 10.7129 -14.9219 10.6445 -14.9414 10.6152 -14.9805 C 10.5859 -15.0293 10.5859 -15.0781 10.6738 -15.1465 Z M 4.10156 2.41211 C 3.61328 1.91406 3.78906 1.61133 4.12109 1.30859 L 15.0781 -8.80859 L 16.3086 -7.57812 L 6.15234 3.34961 C 5.84961 3.68164 5.46875 3.7793 5.06836 3.37891 Z"/>
  </g>
  <text style="stroke:none;fill:black;font-family:-apple-system,&quot;SF Pro Display&quot;,&quot;SF Pro Text&quot;,Helvetica,sans-serif;font-weight:bold;" transform="matrix(1 0 0 1 1289 1953)">Exporting</text>
  <text style="stroke:none;fill:black;font-family:-apple-system,&quot;SF Pro Display&quot;,&quot;SF Pro Text&quot;,Helvetica,sans-serif;" transform="matrix(1 0 0 1 1289 1971)">Symbols should be outlined when exporting to ensure the</text>
  <text style="stroke:none;fill:black;font-family:-apple-system,&quot;SF Pro Display&quot;,&quot;SF Pro Text&quot;,Helvetica,sans-serif;" transform="matrix(1 0 0 1 1289 1989)">design is preserved when submitting to Xcode.</text>
  <text id="template-version" style="stroke:none;fill:black;font-family:-apple-system,&quot;SF Pro Display&quot;,&quot;SF Pro Text&quot;,Helvetica,sans-serif;text-anchor:end;" transform="matrix(1 0 0 1 3036 1933)">Template v.1.0</text>
  <text style="stroke:none;fill:black;font-family:-apple-system,&quot;SF Pro Display&quot;,&quot;SF Pro Text&quot;,Helvetica,sans-serif;text-anchor:end;" transform="matrix(1 0 0 1 3036 1951)">Generated from multiply</text>
  <text style="stroke:none;fill:black;font-family:-apple-system,&quot;SF Pro Display&quot;,&quot;SF Pro Text&quot;,Helvetica,sans-serif;text-anchor:end;" transform="matrix(1 0 0 1 3036 1969)">Typeset at 100 points</text>
  <text style="stroke:none;fill:black;font-family:-apple-system,&quot;SF Pro Display&quot;,&quot;SF Pro Text&quot;,Helvetica,sans-serif;" transform="matrix(1 0 0 1 263 726)">Small</text>
  <text style="stroke:none;fill:black;font-family:-apple-system,&quot;SF Pro Display&quot;,&quot;SF Pro Text&quot;,Helvetica,sans-serif;" transform="matrix(1 0 0 1 263 1156)">Medium</text>
  <text style="stroke:none;fill:black;font-family:-apple-system,&quot;SF Pro Display&quot;,&quot;SF Pro Text&quot;,Helvetica,sans-serif;" transform="matrix(1 0 0 1 263 1586)">Large</text>
 </g>
 <g id="Guides">
  <g id="H-reference" style="fill:#27AAE1;stroke:none;" transform="matrix(1 0 0 1 339 696)">
   <path d="M 54.9316 0 L 57.666 0 L 30.5664 -70.459 L 28.0762 -70.459 L 0.976562 0 L 3.66211 0 L 12.9395 -24.4629 L 45.7031 -24.4629 Z M 29.1992 -67.0898 L 29.4434 -67.0898 L 44.8242 -26.709 L 13.8184 -26.709 Z"/>
  </g>
  <line id="Baseline-S" style="fill:none;stroke:#27AAE1;opacity:1;stroke-width:0.577;" x1="263" x2="3036" y1="696" y2="696"/>
  <line id="Capline-S" style="fill:none;stroke:#27AAE1;opacity:1;stroke-width:0.577;" x1="263" x2="3036" y1="625.541" y2="625.541"/>
  <g id="H-reference" style="fill:#27AAE1;stroke:none;" transform="matrix(1 0 0 1 339 1126)">
   <path d="M 54.9316 0 L 57.666 0 L 30.5664 -70.459 L 28.0762 -70.459 L 0.976562 0 L 3.66211 0 L 12.9395 -24.4629 L 45.7031 -24.4629 Z M 29.1992 -67.0898 L 29.4434 -67.0898 L 44.8242 -26.709 L 13.8184 -26.709 Z"/>
  </g>
  <line id="Baseline-M" style="fill:none;stroke:#27AAE1;opacity:1;stroke-width:0.577;" x1="263" x2="3036" y1="1126" y2="1126"/>
  <line id="Capline-M" style="fill:none;stroke:#27AAE1;opacity:1;stroke-width:0.577;" x1="263" x2="3036" y1="1055.54" y2="1055.54"/>
  <g id="H-reference" style="fill:#27AAE1;stroke:none;" transform="matrix(1 0 0 1 339 1556)">
   <path d="M 54.9316 0 L 57.666 0 L 30.5664 -70.459 L 28.0762 -70.459 L 0.976562 0 L 3.66211 0 L 12.9395 -24.4629 L 45.7031 -24.4629 Z M 29.1992 -67.0898 L 29.4434 -67.0898 L 44.8242 -26.709 L 13.8184 -26.709 Z"/>
  </g>
  <line id="Baseline-L" style="fill:none;stroke:#27AAE1;opacity:1;stroke-width:0.577;" x1="263" x2="3036" y1="1556" y2="1556"/>
  <line id="Capline-L" style="fill:none;stroke:#27AAE1;opacity:1;stroke-width:0.577;" x1="263" x2="3036" y1="1485.54" y2="1485.54"/>
  <rect height="119.336" id="left-margin" style="fill:#00AEEF;stroke:none;opacity:0.4;" width="12.4572" x="1404.92" y="1030.79"/>
  <rect height="119.336" id="right-margin" style="fill:#00AEEF;stroke:none;opacity:0.4;" width="12.4206" x="1482.35" y="1030.79"/>
 </g>
 <g id="Symbols">
  <g id="Black-L" transform="matrix(1 0 0 1 2871.83 1556)">
   <path d="M 19.3359 -10.0098 C 15.0391 -5.76172 14.8438 2.29492 19.4824 6.88477 C 24.1211 11.5234 32.1777 11.3281 36.4258 7.08008 L 61.5723 -18.0664 L 86.6211 7.03125 C 91.1133 11.4746 98.9258 11.4746 103.564 6.83594 C 108.203 2.24609 108.203 -5.56641 103.76 -10.0586 L 78.6621 -35.1562 L 103.76 -60.2539 C 108.203 -64.7461 108.203 -72.5586 103.564 -77.1484 C 98.9258 -81.7871 91.1133 -81.7871 86.6211 -77.3438 L 61.5723 -52.2461 L 36.4258 -77.3926 C 32.1777 -81.6895 24.1211 -81.8848 19.4824 -77.2461 C 14.8438 -72.6074 15.0391 -64.5508 19.3359 -60.3027 L 44.4336 -35.1562 Z"/>
  </g>
  <g id="Heavy-L" transform="matrix(1 0 0 1 2576.12 1556)">
   <path d="M 18.8965 -8.10547 C 15.1855 -4.44336 15.0391 2.44141 18.9941 6.39648 C 22.9492 10.4004 29.834 10.2539 33.5449 6.54297 L 60.5957 -20.5078 L 87.5488 6.49414 C 91.4551 10.3027 98.1445 10.3516 102.1 6.34766 C 106.104 2.39258 106.055 -4.29688 102.246 -8.1543 L 75.2441 -35.1562 L 102.246 -62.1582 C 106.055 -66.0156 106.104 -72.7051 102.1 -76.6602 C 98.1445 -80.6641 91.4551 -80.6641 87.5488 -76.8066 L 60.5957 -49.8047 L 33.5449 -76.8555 C 29.834 -80.5664 22.9492 -80.7129 18.9941 -76.709 C 15.0391 -72.7539 15.1855 -65.8691 18.8965 -62.207 L 45.8984 -35.1562 Z"/>
  </g>
  <g id="Bold-L" transform="matrix(1 0 0 1 2280.51 1556)">
   <path d="M 18.4082 -6.00586 C 15.332 -2.92969 15.2344 2.63672 18.457 5.85938 C 21.6797 9.13086 27.2461 8.98438 30.3223 5.95703 L 59.4727 -23.2422 L 88.623 5.9082 C 91.7969 9.0332 97.2168 9.08203 100.439 5.81055 C 103.711 2.58789 103.662 -2.83203 100.537 -6.00586 L 71.3867 -35.1562 L 100.537 -64.3066 C 103.662 -67.4805 103.711 -72.9004 100.439 -76.123 C 97.2168 -79.3945 91.7969 -79.3457 88.623 -76.2207 L 59.4727 -47.0703 L 30.3223 -76.2695 C 27.2461 -79.2969 21.6797 -79.4434 18.457 -76.1719 C 15.2344 -72.9492 15.332 -67.3828 18.4082 -64.3066 L 47.5586 -35.1562 Z"/>
  </g>
  <g id="Semibold-L" transform="matrix(1 0 0 1 1984.55 1556)">
   <path d="M 18.0664 -4.54102 C 15.4297 -1.9043 15.332 2.73438 18.1152 5.46875 C 20.8008 8.20312 25.4883 8.10547 28.0762 5.51758 L 58.7402 -25.0977 L 89.3555 5.51758 C 92.041 8.1543 96.6309 8.20312 99.3164 5.41992 C 102.1 2.73438 102.051 -1.85547 99.3652 -4.54102 L 68.75 -35.1562 L 99.3652 -65.7715 C 102.051 -68.457 102.1 -73.0469 99.3164 -75.7812 C 96.6309 -78.5156 92.041 -78.4668 89.3555 -75.8301 L 58.7402 -45.2148 L 28.0762 -75.8301 C 25.4883 -78.418 20.8008 -78.5156 18.1152 -75.7812 C 15.332 -73.0469 15.4297 -68.4082 18.0664 -65.7715 L 48.6816 -35.1562 Z"/>
  </g>
  <g id="Medium-L" transform="matrix(1 0 0 1 1688.4 1556)">
   <path d="M 17.7734 -3.41797 C 15.5273 -1.12305 15.4297 2.83203 17.8223 5.17578 C 20.166 7.56836 24.1211 7.4707 26.416 5.22461 L 58.1543 -26.5625 L 89.8926 5.17578 C 92.1875 7.4707 96.1426 7.51953 98.4863 5.17578 C 100.83 2.83203 100.781 -1.12305 98.4863 -3.41797 L 66.748 -35.1562 L 98.4863 -66.8945 C 100.781 -69.1895 100.83 -73.1445 98.4863 -75.4883 C 96.1426 -77.832 92.1875 -77.832 89.8926 -75.4883 L 58.1543 -43.75 L 26.416 -75.5371 C 24.1211 -77.7832 20.166 -77.8809 17.8223 -75.4883 C 15.4297 -73.1445 15.5273 -69.1895 17.7734 -66.8945 L 49.5605 -35.1562 Z"/>
  </g>
  <g id="Regular-L" transform="matrix(1 0 0 1 1392.45 1556)">
   <path d="M 17.4316 -1.95312 C 15.625 -0.146484 15.5762 2.97852 17.4316 4.78516 C 19.2871 6.68945 22.3633 6.64062 24.2188 4.78516 L 57.4219 -28.418 L 90.625 4.78516 C 92.4316 6.64062 95.5078 6.68945 97.3633 4.78516 C 99.2188 2.97852 99.1699 -0.146484 97.3633 -1.95312 L 64.1602 -35.1562 L 97.3633 -68.3594 C 99.1699 -70.166 99.2188 -73.291 97.3633 -75.0977 C 95.5078 -77.002 92.4316 -76.9531 90.625 -75.0977 L 57.4219 -41.8945 L 24.2188 -75.0977 C 22.3633 -76.9531 19.2871 -77.002 17.4316 -75.0977 C 15.5762 -73.291 15.625 -70.166 17.4316 -68.3594 L 50.6348 -35.1562 Z"/>
  </g>
  <g id="Light-L" transform="matrix(1 0 0 1 1096.52 1556)">
   <path d="M 17.1387 -0.683594 C 15.7227 0.683594 15.7227 2.97852 17.1387 4.3457 C 18.5059 5.76172 20.8008 5.76172 22.168 4.3457 L 56.6406 -30.0781 L 91.0645 4.3457 C 92.4316 5.76172 94.7266 5.76172 96.1426 4.3457 C 97.5586 2.97852 97.5098 0.683594 96.1426 -0.683594 L 61.6699 -35.1562 L 96.1426 -69.5801 C 97.5098 -70.9473 97.5586 -73.2422 96.1426 -74.6582 C 94.7266 -76.0742 92.4316 -76.0254 91.0645 -74.6582 L 56.6406 -40.1855 L 22.168 -74.6582 C 20.8008 -76.0254 18.5059 -76.0742 17.1387 -74.6582 C 15.7227 -73.2422 15.7227 -70.9473 17.1387 -69.5801 L 51.5625 -35.1562 Z"/>
  </g>
  <g id="Thin-L" transform="matrix(1 0 0 1 800.831 1556)">
   <path d="M 16.6504 0.976562 C 15.8691 1.75781 15.8691 3.02734 16.6504 3.80859 C 17.4805 4.58984 18.7012 4.58984 19.5312 3.80859 L 55.5664 -32.2754 L 91.6504 3.80859 C 92.4805 4.58984 93.7012 4.58984 94.4824 3.80859 C 95.3125 3.02734 95.3125 1.75781 94.4824 0.976562 L 58.4473 -35.1074 L 94.4824 -71.1914 C 95.3125 -71.9727 95.3125 -73.2422 94.4824 -74.0234 C 93.7012 -74.8535 92.4805 -74.8535 91.6504 -74.0234 L 55.5664 -37.9395 L 19.5312 -74.0234 C 18.7012 -74.8535 17.4805 -74.8535 16.6504 -74.0234 C 15.8691 -73.2422 15.8691 -71.9727 16.6504 -71.1914 L 52.7344 -35.1074 Z"/>
  </g>
  <g id="Ultralight-L" transform="matrix(1 0 0 1 504.657 1556)">
   <path d="M 16.4551 1.80664 C 15.918 2.29492 15.9668 3.02734 16.4551 3.51562 C 16.9434 4.00391 17.627 4.00391 18.1152 3.51562 L 55.0293 -33.3984 L 91.9922 3.51562 C 92.4805 4.00391 93.1641 4.00391 93.6523 3.51562 C 94.1406 3.02734 94.1895 2.29492 93.6523 1.80664 L 56.7383 -35.1074 L 93.6523 -72.0215 C 94.1895 -72.5098 94.1406 -73.2422 93.6523 -73.7305 C 93.1641 -74.2188 92.4805 -74.2188 91.9922 -73.7305 L 55.0293 -36.8164 L 18.1152 -73.7305 C 17.627 -74.2188 16.9434 -74.2188 16.4551 -73.7305 C 15.9668 -73.2422 15.918 -72.5098 16.4551 -72.0215 L 53.3691 -35.1074 Z"/>
  </g>
  <g id="Black-M" transform="matrix(1 0 0 1 2884.79 1126)">
   <path d="M 15.3809 -17.5781 C 11.5234 -13.7695 11.3281 -6.34766 15.5762 -2.14844 C 19.8242 2.09961 27.1973 1.9043 31.0547 -1.95312 L 48.6328 -19.5312 L 66.1133 -2.00195 C 70.2148 2.05078 77.3438 2.05078 81.5918 -2.19727 C 85.791 -6.44531 85.791 -13.5742 81.7871 -17.6758 L 64.2578 -35.1562 L 81.7871 -52.6855 C 85.791 -56.7871 85.791 -63.916 81.5918 -68.1152 C 77.3438 -72.3633 70.2148 -72.3633 66.1133 -68.3105 L 48.6328 -50.8301 L 31.0547 -68.4082 C 27.1973 -72.2168 19.8242 -72.4121 15.5762 -68.2129 C 11.3281 -63.9648 11.5234 -56.5918 15.3809 -52.7344 L 32.959 -35.1562 Z"/>
  </g>
  <g id="Heavy-M" transform="matrix(1 0 0 1 2588.94 1126)">
   <path d="M 14.9902 -15.8203 C 11.6699 -12.5 11.5234 -6.20117 15.1367 -2.58789 C 18.75 1.07422 25.0977 0.927734 28.418 -2.44141 L 47.7539 -21.7285 L 67.041 -2.49023 C 70.5566 1.02539 76.6602 1.02539 80.3223 -2.63672 C 83.9355 -6.25 83.9355 -12.3535 80.4688 -15.8691 L 61.1816 -35.1562 L 80.4688 -54.4434 C 83.9355 -57.959 83.9355 -64.1113 80.3223 -67.7246 C 76.6602 -71.3867 70.5566 -71.3379 67.041 -67.8711 L 47.7539 -48.584 L 28.418 -67.9199 C 25.0977 -71.2402 18.75 -71.4355 15.1367 -67.7734 C 11.5234 -64.1602 11.6699 -57.8125 14.9902 -54.4922 L 34.3262 -35.1562 Z"/>
  </g>
  <g id="Bold-M" transform="matrix(1 0 0 1 2293.2 1126)">
   <path d="M 14.5508 -13.8672 C 11.8164 -11.1328 11.6699 -6.00586 14.6484 -3.02734 C 17.5781 -0.0976562 22.7051 -0.195312 25.4883 -2.97852 L 46.7773 -24.2676 L 68.0176 -2.97852 C 70.9473 -0.146484 75.9277 -0.0976562 78.8574 -3.07617 C 81.8359 -6.05469 81.8359 -11.0352 78.9551 -13.916 L 57.7148 -35.1562 L 78.9551 -56.4453 C 81.8359 -59.3262 81.8359 -64.3066 78.8574 -67.2852 C 75.9277 -70.2637 70.9473 -70.2148 68.0176 -67.3828 L 46.7773 -46.0938 L 25.4883 -67.3828 C 22.7051 -70.166 17.5781 -70.2637 14.6484 -67.2852 C 11.6699 -64.3555 11.8164 -59.2285 14.5508 -56.4941 L 35.8398 -35.1562 Z"/>
  </g>
  <g id="Semibold-M" transform="matrix(1 0 0 1 1997.17 1126)">
   <path d="M 14.2578 -12.5 C 11.8652 -10.1562 11.8164 -5.85938 14.3066 -3.36914 C 16.7969 -0.878906 21.0938 -0.976562 23.4375 -3.32031 L 46.0938 -25.9766 L 68.75 -3.36914 C 71.1914 -0.927734 75.3906 -0.878906 77.8809 -3.41797 C 80.3711 -5.9082 80.3711 -10.1074 77.9297 -12.5488 L 55.3223 -35.1562 L 77.9297 -57.8125 C 80.3711 -60.2539 80.3711 -64.4531 77.8809 -66.9434 C 75.3906 -69.4824 71.1914 -69.4336 68.75 -66.9922 L 46.0938 -44.3848 L 23.4375 -67.041 C 21.0938 -69.3848 16.7969 -69.4824 14.3066 -66.9922 C 11.8164 -64.502 11.8652 -60.2051 14.2578 -57.8125 L 36.9141 -35.1562 Z"/>
  </g>
  <g id="Medium-M" transform="matrix(1 0 0 1 1700.95 1126)">
   <path d="M 14.0137 -11.4746 C 11.9629 -9.42383 11.8652 -5.76172 14.0625 -3.66211 C 16.1621 -1.46484 19.873 -1.5625 21.9238 -3.61328 L 45.6055 -27.2949 L 69.2871 -3.61328 C 71.3867 -1.51367 75 -1.46484 77.0996 -3.66211 C 79.2969 -5.76172 79.248 -9.42383 77.1484 -11.5234 L 53.4668 -35.2051 L 77.1484 -58.8379 C 79.248 -60.9863 79.2969 -64.5996 77.0996 -66.6992 C 75 -68.8965 71.3867 -68.8477 69.2871 -66.748 L 45.6055 -43.0664 L 21.9238 -66.748 C 19.873 -68.7988 16.1621 -68.8965 14.0625 -66.6992 C 11.8652 -64.5996 11.9629 -60.9375 14.0137 -58.8867 L 37.6953 -35.2051 Z"/>
  </g>
  <g id="Regular-M" transform="matrix(1 0 0 1 1404.92 1126)">
   <path d="M 13.7207 -10.1562 C 12.0605 -8.49609 12.0117 -5.66406 13.7207 -3.95508 C 15.3809 -2.24609 18.2617 -2.29492 19.9219 -3.95508 L 44.9219 -29.0039 L 69.9707 -3.95508 C 71.6309 -2.29492 74.4629 -2.24609 76.123 -3.95508 C 77.8809 -5.66406 77.832 -8.49609 76.123 -10.1562 L 51.123 -35.2051 L 76.123 -60.2051 C 77.832 -61.8652 77.8809 -64.7461 76.123 -66.4062 C 74.4629 -68.1152 71.6309 -68.0664 69.9707 -66.4062 L 44.9219 -41.3574 L 19.9219 -66.4062 C 18.2617 -68.0664 15.3809 -68.1152 13.7207 -66.4062 C 12.0117 -64.7461 12.0605 -61.8652 13.7207 -60.2051 L 38.7695 -35.2051 Z"/>
  </g>
  <g id="Light-M" transform="matrix(1 0 0 1 1108.9 1126)">
   <path d="M 13.4277 -9.0332 C 12.1582 -7.76367 12.1094 -5.61523 13.4277 -4.3457 C 14.6973 -3.02734 16.8457 -3.07617 18.1152 -4.3457 L 44.2383 -30.4688 L 70.3613 -4.3457 C 71.6309 -3.07617 73.7793 -3.02734 75.0488 -4.3457 C 76.3672 -5.61523 76.3184 -7.76367 75.0488 -9.0332 L 48.9258 -35.1562 L 75.0488 -61.3281 C 76.3184 -62.5977 76.3672 -64.6973 75.0488 -65.9668 C 73.7793 -67.2852 71.6309 -67.2363 70.3613 -65.9668 L 44.2383 -39.8438 L 18.1152 -65.9668 C 16.8457 -67.2363 14.6973 -67.2852 13.4277 -65.9668 C 12.1094 -64.6973 12.1582 -62.5977 13.4277 -61.3281 L 39.5508 -35.1562 Z"/>
  </g>
  <g id="Thin-M" transform="matrix(1 0 0 1 813.112 1126)">
   <path d="M 13.0371 -7.51953 C 12.2559 -6.78711 12.2559 -5.61523 13.0371 -4.88281 C 13.7695 -4.10156 14.9414 -4.10156 15.6738 -4.88281 L 43.3105 -32.4707 L 70.8984 -4.88281 C 71.6309 -4.10156 72.8516 -4.10156 73.584 -4.88281 C 74.3652 -5.61523 74.3164 -6.78711 73.584 -7.51953 L 45.9961 -35.1562 L 73.584 -62.7441 C 74.3164 -63.4766 74.3652 -64.6973 73.584 -65.4297 C 72.8516 -66.2109 71.6309 -66.1621 70.8984 -65.4297 L 43.3105 -37.8418 L 15.6738 -65.4297 C 14.9414 -66.1621 13.7695 -66.2109 13.0371 -65.4297 C 12.2559 -64.6973 12.2559 -63.4766 13.0371 -62.7441 L 40.625 -35.1562 Z"/>
  </g>
  <g id="Ultralight-M" transform="matrix(1 0 0 1 516.889 1126)">
   <path d="M 12.793 -6.78711 C 12.3535 -6.29883 12.3535 -5.61523 12.793 -5.12695 C 13.2812 -4.63867 14.0137 -4.63867 14.4531 -5.12695 L 42.8223 -33.4961 L 71.1914 -5.12695 C 71.6797 -4.63867 72.3633 -4.63867 72.8516 -5.12695 C 73.3398 -5.61523 73.3398 -6.29883 72.8516 -6.78711 L 44.4824 -35.1562 L 72.8516 -63.4766 C 73.3398 -63.9648 73.3398 -64.6973 72.8516 -65.1367 C 72.3633 -65.625 71.6797 -65.625 71.1914 -65.1367 L 42.8223 -36.8164 L 14.4531 -65.1367 C 14.0137 -65.625 13.2812 -65.625 12.793 -65.1367 C 12.3535 -64.6973 12.3535 -63.9648 12.793 -63.4766 L 41.1621 -35.1562 Z"/>
  </g>
  <g id="Black-S" transform="matrix(1 0 0 1 2895.36 696)">
   <path d="M 12.0605 -21.2891 C 9.08203 -18.3105 8.93555 -12.5977 12.207 -9.32617 C 15.4785 -6.05469 21.1914 -6.20117 24.1699 -9.17969 L 38.0371 -23.0957 L 51.9043 -9.22852 C 55.0781 -6.10352 60.5957 -6.10352 63.8672 -9.375 C 67.1387 -12.6465 67.1387 -18.1641 64.0137 -21.3379 L 50.1465 -35.2051 L 64.0137 -49.0234 C 67.1387 -52.1973 67.1387 -57.7148 63.8672 -60.9863 C 60.5957 -64.2578 55.0781 -64.2578 51.9043 -61.1328 L 38.0371 -47.3145 L 24.1699 -61.1816 C 21.1914 -64.1602 15.4785 -64.3066 12.207 -61.0352 C 8.93555 -57.7637 9.08203 -52.0508 12.0605 -49.0723 L 25.9277 -35.2051 Z"/>
  </g>
  <g id="Heavy-S" transform="matrix(1 0 0 1 2599.24 696)">
   <path d="M 11.7676 -20.0684 C 9.13086 -17.4316 9.0332 -12.4512 11.8652 -9.61914 C 14.7461 -6.73828 19.7266 -6.88477 22.3145 -9.52148 L 37.4512 -24.6094 L 52.5391 -9.52148 C 55.3223 -6.78711 60.1074 -6.78711 62.9883 -9.66797 C 65.8691 -12.5 65.8203 -17.334 63.0859 -20.1172 L 47.998 -35.2051 L 63.0859 -50.2441 C 65.8203 -53.0273 65.8691 -57.8613 62.9883 -60.6934 C 60.1074 -63.5742 55.3223 -63.5742 52.5391 -60.8398 L 37.4512 -45.752 L 22.3145 -60.8887 C 19.7266 -63.4766 14.7461 -63.623 11.8652 -60.7422 C 9.0332 -57.9102 9.13086 -52.9297 11.7676 -50.293 L 26.9043 -35.2051 Z"/>
  </g>
  <g id="Bold-S" transform="matrix(1 0 0 1 2303.19 696)">
   <path d="M 11.4746 -18.7012 C 9.22852 -16.4551 9.13086 -12.3047 11.5234 -9.96094 C 13.916 -7.51953 18.0664 -7.61719 20.3125 -9.86328 L 36.8164 -26.3672 L 53.2715 -9.91211 C 55.5664 -7.56836 59.6191 -7.56836 62.0117 -9.96094 C 64.4531 -12.3535 64.4043 -16.4062 62.1094 -18.75 L 45.6543 -35.2051 L 62.1094 -51.6602 C 64.4043 -54.0039 64.4531 -58.0078 62.0117 -60.4004 C 59.6191 -62.8418 55.5664 -62.793 53.2715 -60.498 L 36.8164 -44.043 L 20.3125 -60.498 C 18.0664 -62.7441 13.916 -62.8418 11.5234 -60.4492 C 9.13086 -58.0566 9.22852 -53.9062 11.4746 -51.6602 L 27.9297 -35.2051 Z"/>
  </g>
  <g id="Semibold-S" transform="matrix(1 0 0 1 2006.91 696)">
   <path d="M 11.2793 -17.7734 C 9.27734 -15.8203 9.22852 -12.207 11.3281 -10.1562 C 13.3789 -8.05664 16.9434 -8.1543 18.9453 -10.1074 L 36.3281 -27.5391 L 53.7598 -10.1562 C 55.7617 -8.10547 59.2773 -8.10547 61.377 -10.2051 C 63.4766 -12.2559 63.4277 -15.7715 61.4258 -17.7734 L 43.9941 -35.2051 L 61.4258 -52.5879 C 63.4277 -54.6387 63.4766 -58.1543 61.377 -60.2051 C 59.2773 -62.3047 55.7617 -62.2559 53.7598 -60.2539 L 36.3281 -42.8711 L 18.9453 -60.2539 C 16.9434 -62.2559 13.3789 -62.3047 11.3281 -60.2051 C 9.22852 -58.1543 9.27734 -54.5898 11.2793 -52.6367 L 28.7109 -35.2051 Z"/>
  </g>
  <g id="Medium-S" transform="matrix(1 0 0 1 1710.54 696)">
   <path d="M 11.1328 -17.041 C 9.32617 -15.2832 9.27734 -12.1582 11.1328 -10.3516 C 12.9395 -8.49609 16.1133 -8.54492 17.8711 -10.3027 L 35.9863 -28.4668 L 54.1504 -10.3027 C 55.9082 -8.54492 59.0332 -8.49609 60.8398 -10.3516 C 62.6953 -12.1582 62.6953 -15.2832 60.8887 -17.0898 L 42.7734 -35.2051 L 60.8887 -53.3203 C 62.6953 -55.127 62.6953 -58.252 60.8398 -60.0586 C 59.0332 -61.9141 55.9082 -61.8652 54.1504 -60.0586 L 35.9863 -41.9434 L 17.8711 -60.1074 C 16.1133 -61.8652 12.9395 -61.9141 11.1328 -60.0586 C 9.27734 -58.252 9.32617 -55.0781 11.1328 -53.3203 L 29.248 -35.2051 Z"/>
  </g>
  <g id="Regular-S" transform="matrix(1 0 0 1 1414.3 696)">
   <path d="M 10.8887 -16.1133 C 9.42383 -14.6484 9.375 -12.0605 10.8887 -10.5469 C 12.4023 -9.0332 14.9902 -9.0332 16.5039 -10.5469 L 35.5469 -29.6387 L 54.6387 -10.5469 C 56.1035 -9.0332 58.6914 -9.0332 60.2051 -10.5469 C 61.7676 -12.0605 61.7188 -14.6484 60.2051 -16.1133 L 41.1133 -35.2051 L 60.2051 -54.248 C 61.7188 -55.7617 61.7676 -58.3496 60.2051 -59.8633 C 58.6914 -61.377 56.1035 -61.3281 54.6387 -59.8633 L 35.5469 -40.7715 L 16.5039 -59.8633 C 14.9902 -61.3281 12.4023 -61.377 10.8887 -59.8633 C 9.375 -58.3496 9.42383 -55.7617 10.8887 -54.248 L 29.9805 -35.2051 Z"/>
  </g>
  <g id="Light-S" transform="matrix(1 0 0 1 1118.2 696)">
   <path d="M 10.6445 -15.1367 C 9.47266 -13.9648 9.47266 -12.0605 10.6445 -10.8887 C 11.7676 -9.7168 13.7207 -9.76562 14.8926 -10.8887 L 34.9121 -30.957 L 54.9805 -10.8887 C 56.1523 -9.76562 58.0566 -9.7168 59.2285 -10.8887 C 60.4004 -12.0605 60.3516 -13.9648 59.2285 -15.1367 L 39.1602 -35.2051 L 59.2285 -55.2246 C 60.3516 -56.3965 60.4004 -58.3496 59.2285 -59.4727 C 58.0566 -60.6445 56.1523 -60.6445 54.9805 -59.4727 L 34.9121 -39.4531 L 14.8926 -59.4727 C 13.7207 -60.6445 11.7676 -60.6445 10.6445 -59.4727 C 9.47266 -58.3496 9.47266 -56.3965 10.6445 -55.2246 L 30.7129 -35.2051 Z"/>
  </g>
  <g id="Thin-S" transform="matrix(1 0 0 1 822.316 696)">
   <path d="M 10.3027 -13.8184 C 9.61914 -13.1348 9.57031 -12.0117 10.3027 -11.3281 C 10.9863 -10.6445 12.0605 -10.6445 12.7441 -11.3281 L 34.1309 -32.666 L 55.4688 -11.3281 C 56.1523 -10.6445 57.2754 -10.6445 57.959 -11.3281 C 58.6426 -12.0117 58.6426 -13.1348 57.959 -13.8184 L 36.5723 -35.1562 L 57.959 -56.4941 C 58.6426 -57.1777 58.6426 -58.3008 57.959 -58.9844 C 57.2754 -59.7168 56.1523 -59.668 55.4688 -58.9844 L 34.1309 -37.6465 L 12.7441 -58.9844 C 12.0605 -59.668 10.9863 -59.7168 10.3027 -58.9844 C 9.57031 -58.3008 9.61914 -57.1777 10.3027 -56.4941 L 31.6406 -35.1562 Z"/>
  </g>
  <g id="Ultralight-S" transform="matrix(1 0 0 1 526.02 696)">
   <path d="M 10.1074 -13.1348 C 9.66797 -12.6953 9.66797 -12.0117 10.1074 -11.5723 C 10.5469 -11.1328 11.2305 -11.1328 11.6699 -11.5723 L 33.6914 -33.5938 L 55.7129 -11.5723 C 56.1523 -11.1328 56.8359 -11.1328 57.2754 -11.5723 C 57.7148 -12.0117 57.7148 -12.6953 57.2754 -13.1348 L 35.2539 -35.1562 L 57.2754 -57.1777 C 57.7148 -57.6172 57.7148 -58.3008 57.2754 -58.7402 C 56.8359 -59.1797 56.1523 -59.1797 55.7129 -58.7402 L 33.6914 -36.7188 L 11.6699 -58.7402 C 11.2305 -59.1797 10.5469 -59.1797 10.1074 -58.7402 C 9.66797 -58.3008 9.66797 -57.6172 10.1074 -57.1777 L 32.1289 -35.1562 Z"/>
  </g>
 </g>
</svg>
