<?xml version="1.0" encoding="UTF-8"?>
<!--Generator: Apple Native CoreSVG 123-->
<!DOCTYPE svg
PUBLIC "-//W3C//DTD SVG 1.1//EN"
       "http://www.w3.org/Graphics/SVG/1.1/DTD/svg11.dtd">
<svg version="1.1" xmlns="http://www.w3.org/2000/svg" xmlns:xlink="http://www.w3.org/1999/xlink" width="3300" height="2200">
 <!--glyph: "uni100492.medium", point size: 100.000000, font version: "Version 15.0d7e11", template writer version: "5"-->
 <g id="Notes">
  <rect height="2200" id="artboard" style="fill:white;opacity:1" width="3300" x="0" y="0"/>
  <line id="" style="fill:none;stroke:black;opacity:1;stroke-width:0.5;" x1="263" x2="3036" y1="292" y2="292"/>
  <text style="stroke:none;fill:black;font-family:-apple-system,&quot;SF Pro Display&quot;,&quot;SF Pro Text&quot;,Helvetica,sans-serif;font-weight:bold;" transform="matrix(1 0 0 1 263 322)">Weight/Scale Variations</text>
  <text style="stroke:none;fill:black;font-family:-apple-system,&quot;SF Pro Display&quot;,&quot;SF Pro Text&quot;,Helvetica,sans-serif;text-anchor:middle;" transform="matrix(1 0 0 1 559.711 322)">Ultralight</text>
  <text style="stroke:none;fill:black;font-family:-apple-system,&quot;SF Pro Display&quot;,&quot;SF Pro Text&quot;,Helvetica,sans-serif;text-anchor:middle;" transform="matrix(1 0 0 1 856.422 322)">Thin</text>
  <text style="stroke:none;fill:black;font-family:-apple-system,&quot;SF Pro Display&quot;,&quot;SF Pro Text&quot;,Helvetica,sans-serif;text-anchor:middle;" transform="matrix(1 0 0 1 1153.13 322)">Light</text>
  <text style="stroke:none;fill:black;font-family:-apple-system,&quot;SF Pro Display&quot;,&quot;SF Pro Text&quot;,Helvetica,sans-serif;text-anchor:middle;" transform="matrix(1 0 0 1 1449.84 322)">Regular</text>
  <text style="stroke:none;fill:black;font-family:-apple-system,&quot;SF Pro Display&quot;,&quot;SF Pro Text&quot;,Helvetica,sans-serif;text-anchor:middle;" transform="matrix(1 0 0 1 1746.56 322)">Medium</text>
  <text style="stroke:none;fill:black;font-family:-apple-system,&quot;SF Pro Display&quot;,&quot;SF Pro Text&quot;,Helvetica,sans-serif;text-anchor:middle;" transform="matrix(1 0 0 1 2043.27 322)">Semibold</text>
  <text style="stroke:none;fill:black;font-family:-apple-system,&quot;SF Pro Display&quot;,&quot;SF Pro Text&quot;,Helvetica,sans-serif;text-anchor:middle;" transform="matrix(1 0 0 1 2339.98 322)">Bold</text>
  <text style="stroke:none;fill:black;font-family:-apple-system,&quot;SF Pro Display&quot;,&quot;SF Pro Text&quot;,Helvetica,sans-serif;text-anchor:middle;" transform="matrix(1 0 0 1 2636.69 322)">Heavy</text>
  <text style="stroke:none;fill:black;font-family:-apple-system,&quot;SF Pro Display&quot;,&quot;SF Pro Text&quot;,Helvetica,sans-serif;text-anchor:middle;" transform="matrix(1 0 0 1 2933.4 322)">Black</text>
  <line id="" style="fill:none;stroke:black;opacity:1;stroke-width:0.5;" x1="263" x2="3036" y1="1903" y2="1903"/>
  <g id="" transform="matrix(1 0 0 1 263 1933)">
   <path d="M 9.24805 0.830078 C 13.5547 0.830078 17.1387 -2.74414 17.1387 -7.05078 C 17.1387 -11.3574 13.5449 -14.9316 9.23828 -14.9316 C 4.94141 -14.9316 1.36719 -11.3574 1.36719 -7.05078 C 1.36719 -2.74414 4.95117 0.830078 9.24805 0.830078 Z M 9.24805 -0.654297 C 5.70312 -0.654297 2.87109 -3.49609 2.87109 -7.05078 C 2.87109 -10.6055 5.69336 -13.4473 9.23828 -13.4473 C 12.793 -13.4473 15.6348 -10.6055 15.6445 -7.05078 C 15.6543 -3.49609 12.8027 -0.654297 9.24805 -0.654297 Z M 9.22852 -3.42773 C 9.69727 -3.42773 9.9707 -3.74023 9.9707 -4.25781 L 9.9707 -6.31836 L 12.1973 -6.31836 C 12.6953 -6.31836 13.0371 -6.57227 13.0371 -7.04102 C 13.0371 -7.51953 12.7148 -7.7832 12.1973 -7.7832 L 9.9707 -7.7832 L 9.9707 -10.0098 C 9.9707 -10.5273 9.69727 -10.8496 9.22852 -10.8496 C 8.75977 -10.8496 8.50586 -10.5078 8.50586 -10.0098 L 8.50586 -7.7832 L 6.29883 -7.7832 C 5.78125 -7.7832 5.44922 -7.51953 5.44922 -7.04102 C 5.44922 -6.57227 5.80078 -6.31836 6.29883 -6.31836 L 8.50586 -6.31836 L 8.50586 -4.25781 C 8.50586 -3.75977 8.75977 -3.42773 9.22852 -3.42773 Z"/>
  </g>
  <g id="" transform="matrix(1 0 0 1 281.506 1933)">
   <path d="M 11.709 2.91016 C 17.1582 2.91016 21.6699 -1.60156 21.6699 -7.05078 C 21.6699 -12.4902 17.1484 -17.0117 11.6992 -17.0117 C 6.25977 -17.0117 1.74805 -12.4902 1.74805 -7.05078 C 1.74805 -1.60156 6.26953 2.91016 11.709 2.91016 Z M 11.709 1.25 C 7.09961 1.25 3.41797 -2.44141 3.41797 -7.05078 C 3.41797 -11.6504 7.08984 -15.3516 11.6992 -15.3516 C 16.3086 -15.3516 20 -11.6504 20.0098 -7.05078 C 20.0195 -2.44141 16.3184 1.25 11.709 1.25 Z M 11.6895 -2.41211 C 12.207 -2.41211 12.5195 -2.77344 12.5195 -3.33984 L 12.5195 -6.23047 L 15.5762 -6.23047 C 16.123 -6.23047 16.5039 -6.51367 16.5039 -7.03125 C 16.5039 -7.55859 16.1426 -7.86133 15.5762 -7.86133 L 12.5195 -7.86133 L 12.5195 -10.9277 C 12.5195 -11.5039 12.207 -11.8555 11.6895 -11.8555 C 11.1719 -11.8555 10.8789 -11.4844 10.8789 -10.9277 L 10.8789 -7.86133 L 7.83203 -7.86133 C 7.26562 -7.86133 6.89453 -7.55859 6.89453 -7.03125 C 6.89453 -6.51367 7.28516 -6.23047 7.83203 -6.23047 L 10.8789 -6.23047 L 10.8789 -3.33984 C 10.8789 -2.79297 11.1719 -2.41211 11.6895 -2.41211 Z"/>
  </g>
  <g id="" transform="matrix(1 0 0 1 304.924 1933)">
   <path d="M 14.9707 5.67383 C 21.9336 5.67383 27.6953 -0.078125 27.6953 -7.04102 C 27.6953 -14.0039 21.9238 -19.7559 14.9609 -19.7559 C 8.00781 -19.7559 2.25586 -14.0039 2.25586 -7.04102 C 2.25586 -0.078125 8.01758 5.67383 14.9707 5.67383 Z M 14.9707 3.85742 C 8.93555 3.85742 4.08203 -1.00586 4.08203 -7.04102 C 4.08203 -13.0762 8.92578 -17.9395 14.9609 -17.9395 C 21.0059 -17.9395 25.8594 -13.0762 25.8691 -7.04102 C 25.8789 -1.00586 21.0156 3.85742 14.9707 3.85742 Z M 14.9512 -1.06445 C 15.5176 -1.06445 15.8691 -1.45508 15.8691 -2.06055 L 15.8691 -6.13281 L 20.1074 -6.13281 C 20.6934 -6.13281 21.1133 -6.46484 21.1133 -7.02148 C 21.1133 -7.59766 20.7227 -7.93945 20.1074 -7.93945 L 15.8691 -7.93945 L 15.8691 -12.1875 C 15.8691 -12.8027 15.5176 -13.1934 14.9512 -13.1934 C 14.3848 -13.1934 14.0625 -12.7832 14.0625 -12.1875 L 14.0625 -7.93945 L 9.83398 -7.93945 C 9.21875 -7.93945 8.80859 -7.59766 8.80859 -7.02148 C 8.80859 -6.46484 9.23828 -6.13281 9.83398 -6.13281 L 14.0625 -6.13281 L 14.0625 -2.06055 C 14.0625 -1.47461 14.3848 -1.06445 14.9512 -1.06445 Z"/>
  </g>
  <text style="stroke:none;fill:black;font-family:-apple-system,&quot;SF Pro Display&quot;,&quot;SF Pro Text&quot;,Helvetica,sans-serif;font-weight:bold;" transform="matrix(1 0 0 1 263 1953)">Design Variations</text>
  <text style="stroke:none;fill:black;font-family:-apple-system,&quot;SF Pro Display&quot;,&quot;SF Pro Text&quot;,Helvetica,sans-serif;" transform="matrix(1 0 0 1 263 1971)">Symbols are supported in up to nine weights and three scales.</text>
  <text style="stroke:none;fill:black;font-family:-apple-system,&quot;SF Pro Display&quot;,&quot;SF Pro Text&quot;,Helvetica,sans-serif;" transform="matrix(1 0 0 1 263 1989)">For optimal layout with text and other symbols, vertically align</text>
  <text style="stroke:none;fill:black;font-family:-apple-system,&quot;SF Pro Display&quot;,&quot;SF Pro Text&quot;,Helvetica,sans-serif;" transform="matrix(1 0 0 1 263 2007)">symbols with the adjacent text.</text>
  <rect height="14" id="" style="fill:#00AEEF;stroke:none;opacity:0.4;" width="3" x="776" y="1919"/>
  <g id="" transform="matrix(1 0 0 1 779 1933)">
   <path d="M 10.5273 0 L 12.373 0 L 7.17773 -14.0918 L 5.43945 -14.0918 L 0.244141 0 L 2.08984 0 L 3.50586 -4.0332 L 9.11133 -4.0332 Z M 6.2793 -11.9531 L 6.33789 -11.9531 L 8.59375 -5.52734 L 4.02344 -5.52734 Z"/>
  </g>
  <rect height="14" id="" style="fill:#00AEEF;stroke:none;opacity:0.4;" width="3" x="791.617" y="1919"/>
  <text style="stroke:none;fill:black;font-family:-apple-system,&quot;SF Pro Display&quot;,&quot;SF Pro Text&quot;,Helvetica,sans-serif;font-weight:bold;" transform="matrix(1 0 0 1 776 1953)">Margins</text>
  <text style="stroke:none;fill:black;font-family:-apple-system,&quot;SF Pro Display&quot;,&quot;SF Pro Text&quot;,Helvetica,sans-serif;" transform="matrix(1 0 0 1 776 1971)">Leading and trailing margins on the left and right side of each symbol</text>
  <text style="stroke:none;fill:black;font-family:-apple-system,&quot;SF Pro Display&quot;,&quot;SF Pro Text&quot;,Helvetica,sans-serif;" transform="matrix(1 0 0 1 776 1989)">can be adjusted by modifying the width of the blue rectangles.</text>
  <text style="stroke:none;fill:black;font-family:-apple-system,&quot;SF Pro Display&quot;,&quot;SF Pro Text&quot;,Helvetica,sans-serif;" transform="matrix(1 0 0 1 776 2007)">Modifications are automatically applied proportionally to all</text>
  <text style="stroke:none;fill:black;font-family:-apple-system,&quot;SF Pro Display&quot;,&quot;SF Pro Text&quot;,Helvetica,sans-serif;" transform="matrix(1 0 0 1 776 2025)">scales and weights.</text>
  <g id="" transform="matrix(1 0 0 1 1289 1933)">
   <path d="M 2.83203 3.11523 L 4.375 4.6582 C 5.22461 5.48828 6.19141 5.41992 7.06055 4.46289 L 17.2754 -6.66016 C 17.7051 -6.36719 18.0957 -6.37695 18.5645 -6.47461 L 19.6094 -6.68945 L 20.3027 -5.99609 L 20.2539 -5.47852 C 20.1855 -4.95117 20.3516 -4.53125 20.8496 -4.0332 L 21.6602 -3.22266 C 22.168 -2.71484 22.8223 -2.68555 23.3008 -3.16406 L 26.5527 -6.41602 C 27.0312 -6.89453 27.0117 -7.54883 26.5039 -8.05664 L 25.6836 -8.87695 C 25.1855 -9.375 24.7754 -9.55078 24.2383 -9.47266 L 23.7109 -9.41406 L 23.0566 -10.0781 L 23.3398 -11.2207 C 23.4863 -11.7871 23.3398 -12.2559 22.7148 -12.8613 L 20.3027 -15.2539 C 16.7578 -18.7793 12.2266 -18.6719 9.11133 -15.5371 C 8.69141 -15.1074 8.64258 -14.5215 8.91602 -14.0918 C 9.15039 -13.7207 9.62891 -13.4961 10.2734 -13.6621 C 11.7871 -14.043 13.3008 -13.9258 14.7852 -12.9199 L 14.1602 -11.3379 C 13.9258 -10.752 13.9453 -10.2734 14.1797 -9.83398 L 3.01758 0.439453 C 2.08008 1.30859 1.97266 2.25586 2.83203 3.11523 Z M 10.6738 -15.1465 C 13.3398 -17.1387 16.6504 -16.8262 19.0527 -14.4141 L 21.6797 -11.8066 C 21.9141 -11.5723 21.9434 -11.3867 21.8848 -11.0938 L 21.5039 -9.53125 L 23.0762 -7.95898 L 24.043 -8.04688 C 24.3262 -8.07617 24.4141 -8.05664 24.6387 -7.83203 L 25.2637 -7.20703 L 22.5098 -4.46289 L 21.8848 -5.07812 C 21.6602 -5.30273 21.6406 -5.40039 21.6699 -5.68359 L 21.7578 -6.64062 L 20.1953 -8.20312 L 18.5742 -7.89062 C 18.291 -7.83203 18.1445 -7.83203 17.9102 -8.07617 L 15.7324 -10.2539 C 15.5078 -10.4883 15.4785 -10.625 15.6055 -10.9473 L 16.5527 -13.2227 C 14.9512 -14.7559 12.8418 -15.6055 10.8008 -14.9512 C 10.7129 -14.9219 10.6445 -14.9414 10.6152 -14.9805 C 10.5859 -15.0293 10.5859 -15.0781 10.6738 -15.1465 Z M 4.10156 2.41211 C 3.61328 1.91406 3.78906 1.61133 4.12109 1.30859 L 15.0781 -8.80859 L 16.3086 -7.57812 L 6.15234 3.34961 C 5.84961 3.68164 5.46875 3.7793 5.06836 3.37891 Z"/>
  </g>
  <text style="stroke:none;fill:black;font-family:-apple-system,&quot;SF Pro Display&quot;,&quot;SF Pro Text&quot;,Helvetica,sans-serif;font-weight:bold;" transform="matrix(1 0 0 1 1289 1953)">Exporting</text>
  <text style="stroke:none;fill:black;font-family:-apple-system,&quot;SF Pro Display&quot;,&quot;SF Pro Text&quot;,Helvetica,sans-serif;" transform="matrix(1 0 0 1 1289 1971)">Symbols should be outlined when exporting to ensure the</text>
  <text style="stroke:none;fill:black;font-family:-apple-system,&quot;SF Pro Display&quot;,&quot;SF Pro Text&quot;,Helvetica,sans-serif;" transform="matrix(1 0 0 1 1289 1989)">design is preserved when submitting to Xcode.</text>
  <text id="template-version" style="stroke:none;fill:black;font-family:-apple-system,&quot;SF Pro Display&quot;,&quot;SF Pro Text&quot;,Helvetica,sans-serif;text-anchor:end;" transform="matrix(1 0 0 1 3036 1933)">Template v.1.0</text>
  <text style="stroke:none;fill:black;font-family:-apple-system,&quot;SF Pro Display&quot;,&quot;SF Pro Text&quot;,Helvetica,sans-serif;text-anchor:end;" transform="matrix(1 0 0 1 3036 1951)">Generated from magnifyingglass.circle</text>
  <text style="stroke:none;fill:black;font-family:-apple-system,&quot;SF Pro Display&quot;,&quot;SF Pro Text&quot;,Helvetica,sans-serif;text-anchor:end;" transform="matrix(1 0 0 1 3036 1969)">Typeset at 100 points</text>
  <text style="stroke:none;fill:black;font-family:-apple-system,&quot;SF Pro Display&quot;,&quot;SF Pro Text&quot;,Helvetica,sans-serif;" transform="matrix(1 0 0 1 263 726)">Small</text>
  <text style="stroke:none;fill:black;font-family:-apple-system,&quot;SF Pro Display&quot;,&quot;SF Pro Text&quot;,Helvetica,sans-serif;" transform="matrix(1 0 0 1 263 1156)">Medium</text>
  <text style="stroke:none;fill:black;font-family:-apple-system,&quot;SF Pro Display&quot;,&quot;SF Pro Text&quot;,Helvetica,sans-serif;" transform="matrix(1 0 0 1 263 1586)">Large</text>
 </g>
 <g id="Guides">
  <g id="H-reference" style="fill:#27AAE1;stroke:none;" transform="matrix(1 0 0 1 339 696)">
   <path d="M 54.9316 0 L 57.666 0 L 30.5664 -70.459 L 28.0762 -70.459 L 0.976562 0 L 3.66211 0 L 12.9395 -24.4629 L 45.7031 -24.4629 Z M 29.1992 -67.0898 L 29.4434 -67.0898 L 44.8242 -26.709 L 13.8184 -26.709 Z"/>
  </g>
  <line id="Baseline-S" style="fill:none;stroke:#27AAE1;opacity:1;stroke-width:0.577;" x1="263" x2="3036" y1="696" y2="696"/>
  <line id="Capline-S" style="fill:none;stroke:#27AAE1;opacity:1;stroke-width:0.577;" x1="263" x2="3036" y1="625.541" y2="625.541"/>
  <g id="H-reference" style="fill:#27AAE1;stroke:none;" transform="matrix(1 0 0 1 339 1126)">
   <path d="M 54.9316 0 L 57.666 0 L 30.5664 -70.459 L 28.0762 -70.459 L 0.976562 0 L 3.66211 0 L 12.9395 -24.4629 L 45.7031 -24.4629 Z M 29.1992 -67.0898 L 29.4434 -67.0898 L 44.8242 -26.709 L 13.8184 -26.709 Z"/>
  </g>
  <line id="Baseline-M" style="fill:none;stroke:#27AAE1;opacity:1;stroke-width:0.577;" x1="263" x2="3036" y1="1126" y2="1126"/>
  <line id="Capline-M" style="fill:none;stroke:#27AAE1;opacity:1;stroke-width:0.577;" x1="263" x2="3036" y1="1055.54" y2="1055.54"/>
  <g id="H-reference" style="fill:#27AAE1;stroke:none;" transform="matrix(1 0 0 1 339 1556)">
   <path d="M 54.9316 0 L 57.666 0 L 30.5664 -70.459 L 28.0762 -70.459 L 0.976562 0 L 3.66211 0 L 12.9395 -24.4629 L 45.7031 -24.4629 Z M 29.1992 -67.0898 L 29.4434 -67.0898 L 44.8242 -26.709 L 13.8184 -26.709 Z"/>
  </g>
  <line id="Baseline-L" style="fill:none;stroke:#27AAE1;opacity:1;stroke-width:0.577;" x1="263" x2="3036" y1="1556" y2="1556"/>
  <line id="Capline-L" style="fill:none;stroke:#27AAE1;opacity:1;stroke-width:0.577;" x1="263" x2="3036" y1="1485.54" y2="1485.54"/>
  <rect height="119.336" id="left-margin" style="fill:#00AEEF;stroke:none;opacity:0.4;" width="8.74023" x="1391.3" y="1030.79"/>
  <rect height="119.336" id="right-margin" style="fill:#00AEEF;stroke:none;opacity:0.4;" width="8.74023" x="1499.65" y="1030.79"/>
 </g>
 <g id="Symbols">
  <g id="Black-L" transform="matrix(1 0 0 1 2854.05 1556)">
   <path d="M 79.3457 32.8613 C 116.748 32.8613 147.412 2.19727 147.412 -35.2051 C 147.412 -72.6074 116.748 -103.271 79.2969 -103.271 C 41.8945 -103.271 11.2793 -72.6074 11.2793 -35.2051 C 11.2793 2.19727 41.9434 32.8613 79.3457 32.8613 Z M 79.3457 12.4023 C 52.9785 12.4023 31.7383 -8.83789 31.7383 -35.2051 C 31.7383 -61.5723 52.9297 -82.8125 79.2969 -82.8125 C 105.664 -82.8125 126.953 -61.5723 126.953 -35.2051 C 127.002 -8.83789 105.713 12.4023 79.3457 12.4023 Z M 73.1445 -15.918 C 77.0996 -15.918 80.8105 -16.8457 84.1309 -18.5059 L 95.5566 -7.12891 C 97.168 -5.56641 99.1211 -4.88281 101.221 -4.88281 C 105.42 -4.88281 108.594 -8.05664 108.594 -12.4512 C 108.594 -14.3555 107.959 -16.2598 106.445 -17.8223 L 95.0684 -29.1504 C 96.9727 -32.6172 97.998 -36.6211 97.998 -40.8203 C 97.998 -54.3945 86.8164 -65.625 73.1445 -65.625 C 59.5703 -65.625 48.3398 -54.3945 48.3398 -40.8203 C 48.3398 -27.1484 59.5703 -15.918 73.1445 -15.918 Z M 73.1445 -27.0996 C 65.5762 -27.0996 59.375 -33.1543 59.375 -40.8203 C 59.375 -48.3398 65.5762 -54.4922 73.1445 -54.4922 C 80.7129 -54.4922 86.8652 -48.3398 86.8652 -40.8203 C 86.8652 -33.1543 80.7129 -27.0996 73.1445 -27.0996 Z"/>
  </g>
  <g id="Heavy-L" transform="matrix(1 0 0 1 2558.39 1556)">
   <path d="M 78.2715 31.7871 C 115.088 31.7871 145.312 1.61133 145.312 -35.2051 C 145.312 -72.0215 115.039 -102.197 78.2715 -102.197 C 41.4551 -102.197 11.2793 -72.0215 11.2793 -35.2051 C 11.2793 1.61133 41.5039 31.7871 78.2715 31.7871 Z M 78.2715 14.0137 C 51.0254 14.0137 29.0527 -7.95898 29.0527 -35.2051 C 29.0527 -62.5 50.9766 -84.4727 78.2715 -84.4727 C 105.518 -84.4727 127.49 -62.5 127.539 -35.2051 C 127.539 -7.95898 105.566 14.0137 78.2715 14.0137 Z M 71.9727 -16.5039 C 76.1719 -16.5039 80.127 -17.5781 83.5938 -19.4336 L 96.0938 -6.98242 C 97.6074 -5.51758 99.3164 -4.88281 101.221 -4.88281 C 104.98 -4.88281 107.812 -7.71484 107.812 -11.6211 C 107.812 -13.3301 107.178 -15.0391 105.811 -16.4062 L 93.3105 -28.8574 C 95.459 -32.4707 96.6309 -36.7188 96.6309 -41.1621 C 96.6309 -54.6387 85.5469 -65.8203 71.9727 -65.8203 C 58.4961 -65.8203 47.3633 -54.6387 47.3633 -41.1621 C 47.3633 -27.5879 58.4961 -16.5039 71.9727 -16.5039 Z M 71.9727 -26.4648 C 63.916 -26.4648 57.2754 -33.0078 57.2754 -41.1621 C 57.2754 -49.2188 63.916 -55.8105 71.9727 -55.8105 C 80.0781 -55.8105 86.6699 -49.2188 86.6699 -41.1621 C 86.6699 -33.0078 80.0781 -26.4648 71.9727 -26.4648 Z"/>
  </g>
  <g id="Bold-L" transform="matrix(1 0 0 1 2262.88 1556)">
   <path d="M 77.0996 30.6152 C 113.232 30.6152 142.92 0.878906 142.92 -35.2051 C 142.92 -71.3379 113.184 -101.025 77.0508 -101.025 C 40.9668 -101.025 11.2793 -71.3379 11.2793 -35.2051 C 11.2793 0.878906 41.0156 30.6152 77.0996 30.6152 Z M 77.0996 15.8691 C 48.8281 15.8691 26.0742 -6.93359 26.0742 -35.2051 C 26.0742 -63.4766 48.7793 -86.2793 77.0508 -86.2793 C 105.371 -86.2793 128.125 -63.4766 128.174 -35.2051 C 128.174 -6.93359 105.371 15.8691 77.0996 15.8691 Z M 70.7031 -17.1387 C 75.1465 -17.1387 79.3945 -18.3594 83.0078 -20.5078 L 96.7285 -6.78711 C 98.0957 -5.46875 99.5605 -4.88281 101.27 -4.88281 C 104.492 -4.88281 106.885 -7.32422 106.885 -10.6934 C 106.885 -12.207 106.299 -13.623 105.127 -14.7949 L 91.3574 -28.5645 C 93.7012 -32.373 95.1172 -36.8164 95.1172 -41.5527 C 95.1172 -54.9805 84.1309 -65.9668 70.7031 -65.9668 C 57.2754 -65.9668 46.2891 -54.9805 46.2891 -41.5527 C 46.2891 -28.125 57.2754 -17.1387 70.7031 -17.1387 Z M 70.7031 -25.8301 C 62.0117 -25.8301 54.8828 -32.8613 54.8828 -41.5527 C 54.8828 -50.1953 62.0117 -57.2754 70.7031 -57.2754 C 79.3457 -57.2754 86.4258 -50.1953 86.4258 -41.5527 C 86.4258 -32.8613 79.3457 -25.8301 70.7031 -25.8301 Z"/>
  </g>
  <g id="Semibold-L" transform="matrix(1 0 0 1 1966.97 1556)">
   <path d="M 76.2695 29.7852 C 111.914 29.7852 141.309 0.439453 141.309 -35.2051 C 141.309 -70.8496 111.865 -100.244 76.2695 -100.244 C 40.625 -100.244 11.2793 -70.8496 11.2793 -35.2051 C 11.2793 0.439453 40.6738 29.7852 76.2695 29.7852 Z M 76.2695 17.0898 C 47.3145 17.0898 24.0234 -6.25 24.0234 -35.2051 C 24.0234 -64.209 47.2656 -87.5 76.2695 -87.5 C 105.225 -87.5 128.564 -64.209 128.613 -35.2051 C 128.662 -6.25 105.273 17.0898 76.2695 17.0898 Z M 69.7754 -17.5781 C 74.4629 -17.5781 78.8574 -18.9453 82.5684 -21.2402 L 97.168 -6.64062 C 98.3887 -5.41992 99.707 -4.93164 101.27 -4.93164 C 104.102 -4.93164 106.25 -7.03125 106.25 -10.0586 C 106.25 -11.4258 105.664 -12.6953 104.639 -13.7207 L 89.9414 -28.418 C 92.5293 -32.2754 94.043 -36.8652 94.043 -41.8457 C 94.043 -55.1758 83.1543 -66.1133 69.7754 -66.1133 C 56.4453 -66.1133 45.5078 -55.1758 45.5078 -41.8457 C 45.5078 -28.4668 56.4453 -17.5781 69.7754 -17.5781 Z M 69.7754 -25.3418 C 60.7422 -25.3418 53.2715 -32.7637 53.2715 -41.8457 C 53.2715 -50.8789 60.7422 -58.3008 69.7754 -58.3008 C 78.8086 -58.3008 86.2305 -50.8789 86.2305 -41.8457 C 86.2305 -32.7637 78.8086 -25.3418 69.7754 -25.3418 Z"/>
  </g>
  <g id="Medium-L" transform="matrix(1 0 0 1 1670.87 1556)">
   <path d="M 75.6836 29.1992 C 110.938 29.1992 140.088 0.0488281 140.088 -35.2051 C 140.088 -70.459 110.889 -99.6094 75.6348 -99.6094 C 40.3809 -99.6094 11.2793 -70.459 11.2793 -35.2051 C 11.2793 0.0488281 40.3809 29.1992 75.6836 29.1992 Z M 75.6836 18.0664 C 46.1426 18.0664 22.4609 -5.71289 22.4609 -35.2051 C 22.4609 -64.6973 46.1426 -88.4766 75.6348 -88.4766 C 105.127 -88.4766 128.906 -64.6973 128.906 -35.2051 C 128.955 -5.71289 105.176 18.0664 75.6836 18.0664 Z M 69.0918 -17.9199 C 73.9258 -17.9199 78.4668 -19.3359 82.2266 -21.8262 L 97.4609 -6.5918 C 98.6328 -5.41992 99.8535 -4.93164 101.27 -4.93164 C 103.857 -4.93164 105.762 -6.83594 105.762 -9.57031 C 105.762 -10.791 105.225 -11.9629 104.248 -12.8906 L 88.916 -28.2715 C 91.6504 -32.1777 93.2129 -36.9629 93.2129 -42.041 C 93.2129 -55.3223 82.373 -66.2109 69.0918 -66.2109 C 55.8594 -66.2109 44.9707 -55.3223 44.9707 -42.041 C 44.9707 -28.7598 55.8594 -17.9199 69.0918 -17.9199 Z M 69.0918 -25 C 59.7656 -25 52.002 -32.666 52.002 -42.041 C 52.002 -51.3672 59.7656 -59.082 69.0918 -59.082 C 78.418 -59.082 86.1328 -51.3672 86.1328 -42.041 C 86.1328 -32.666 78.418 -25 69.0918 -25 Z"/>
  </g>
  <g id="Regular-L" transform="matrix(1 0 0 1 1374.97 1556)">
   <path d="M 74.8535 28.3691 C 109.668 28.3691 138.477 -0.390625 138.477 -35.2051 C 138.477 -70.0195 109.619 -98.7793 74.8047 -98.7793 C 40.0391 -98.7793 11.2793 -70.0195 11.2793 -35.2051 C 11.2793 -0.390625 40.0879 28.3691 74.8535 28.3691 Z M 74.8535 19.2871 C 44.6777 19.2871 20.4102 -5.0293 20.4102 -35.2051 C 20.4102 -65.3809 44.6289 -89.6973 74.8047 -89.6973 C 105.029 -89.6973 129.297 -65.3809 129.346 -35.2051 C 129.395 -5.0293 105.078 19.2871 74.8535 19.2871 Z M 68.2129 -18.3594 C 73.2422 -18.3594 77.9297 -19.9219 81.7871 -22.5586 L 97.9004 -6.44531 C 98.9746 -5.37109 100 -4.93164 101.318 -4.93164 C 103.516 -4.93164 105.127 -6.54297 105.127 -8.93555 C 105.127 -10.0098 104.59 -11.0352 103.809 -11.8164 L 87.5 -28.125 C 90.4297 -32.1289 92.1875 -37.0117 92.1875 -42.334 C 92.1875 -55.5176 81.3965 -66.3086 68.2129 -66.3086 C 55.0293 -66.3086 44.2383 -55.5176 44.2383 -42.334 C 44.2383 -29.1016 55.0293 -18.3594 68.2129 -18.3594 Z M 68.2129 -24.5117 C 58.4473 -24.5117 50.3906 -32.5684 50.3906 -42.334 C 50.3906 -52.002 58.4473 -60.1074 68.2129 -60.1074 C 77.9297 -60.1074 85.9375 -52.002 85.9375 -42.334 C 85.9375 -32.5684 77.9297 -24.5117 68.2129 -24.5117 Z"/>
  </g>
  <g id="Light-L" transform="matrix(1 0 0 1 1079.18 1556)">
   <path d="M 73.9258 27.4902 C 108.301 27.4902 136.621 -0.830078 136.621 -35.1562 C 136.621 -69.5312 108.252 -97.8516 73.9258 -97.8516 C 39.5508 -97.8516 11.2793 -69.5312 11.2793 -35.1562 C 11.2793 -0.830078 39.5996 27.4902 73.9258 27.4902 Z M 73.9258 20.6055 C 43.1152 20.6055 18.2129 -4.3457 18.2129 -35.1562 C 18.2129 -66.0156 43.0664 -90.918 73.9258 -90.918 C 104.736 -90.918 129.688 -66.0156 129.736 -35.1562 C 129.736 -4.3457 104.785 20.6055 73.9258 20.6055 Z M 67.1875 -18.7988 C 72.3633 -18.7988 77.1973 -20.5078 81.1035 -23.3887 L 97.998 -6.44531 C 98.877 -5.51758 99.707 -5.12695 100.83 -5.12695 C 102.734 -5.12695 104.004 -6.49414 104.004 -8.34961 C 104.004 -9.375 103.564 -10.1562 102.832 -10.8398 L 85.791 -27.9297 C 88.916 -31.9336 90.8203 -37.0117 90.8203 -42.4316 C 90.8203 -55.4688 80.1758 -66.1621 67.1875 -66.1621 C 54.1504 -66.1621 43.457 -55.4688 43.457 -42.4316 C 43.457 -29.4434 54.1504 -18.7988 67.1875 -18.7988 Z M 67.1875 -23.877 C 56.9824 -23.877 48.5352 -32.2754 48.5352 -42.4316 C 48.5352 -52.6367 56.9824 -61.0352 67.1875 -61.0352 C 77.3438 -61.0352 85.6934 -52.6367 85.6934 -42.4316 C 85.6934 -32.2754 77.3438 -23.877 67.1875 -23.877 Z"/>
  </g>
  <g id="Thin-L" transform="matrix(1 0 0 1 783.693 1556)">
   <path d="M 72.7051 26.3184 C 106.494 26.3184 134.18 -1.36719 134.18 -35.1074 C 134.18 -68.8965 106.494 -96.582 72.7051 -96.582 C 38.9648 -96.582 11.2793 -68.8965 11.2793 -35.1074 C 11.2793 -1.36719 38.9648 26.3184 72.7051 26.3184 Z M 72.7051 22.3145 C 41.0156 22.3145 15.2832 -3.41797 15.2832 -35.1074 C 15.2832 -66.8457 41.0156 -92.5781 72.7051 -92.5781 C 104.395 -92.5781 130.176 -66.8457 130.176 -35.1074 C 130.176 -3.41797 104.443 22.3145 72.7051 22.3145 Z M 65.7715 -19.4336 C 71.1914 -19.4336 76.1719 -21.2891 80.127 -24.4141 L 98.0957 -6.39648 C 98.7793 -5.71289 99.3652 -5.37109 100.244 -5.37109 C 101.611 -5.37109 102.539 -6.34766 102.539 -7.61719 C 102.539 -8.49609 102.197 -8.98438 101.611 -9.57031 L 83.4961 -27.7344 C 86.9141 -31.7383 88.9648 -36.9629 88.9648 -42.627 C 88.9648 -55.3711 78.5645 -65.918 65.7715 -65.918 C 52.9785 -65.918 42.4805 -55.3711 42.4805 -42.627 C 42.4805 -29.834 52.9785 -19.4336 65.7715 -19.4336 Z M 65.7715 -23.0469 C 54.9805 -23.0469 46.0938 -31.8359 46.0938 -42.627 C 46.0938 -53.418 54.9805 -62.3047 65.7715 -62.3047 C 76.5625 -62.3047 85.3516 -53.418 85.3516 -42.627 C 85.3516 -31.8359 76.5625 -23.0469 65.7715 -23.0469 Z"/>
  </g>
  <g id="Ultralight-L" transform="matrix(1 0 0 1 487.616 1556)">
   <path d="M 72.1191 25.7324 C 105.566 25.7324 132.91 -1.61133 132.91 -35.1074 C 132.91 -68.5547 105.566 -95.8984 72.1191 -95.8984 C 38.623 -95.8984 11.2793 -68.5547 11.2793 -35.1074 C 11.2793 -1.61133 38.623 25.7324 72.1191 25.7324 Z M 72.1191 23.2422 C 39.9414 23.2422 13.7695 -2.97852 13.7695 -35.1074 C 13.7695 -67.2363 39.9414 -93.4082 72.1191 -93.4082 C 104.248 -93.4082 130.42 -67.2363 130.42 -35.1074 C 130.42 -2.97852 104.248 23.2422 72.1191 23.2422 Z M 65.0391 -19.7266 C 70.6055 -19.7266 75.6836 -21.7285 79.6387 -25 L 98.1445 -6.39648 C 98.7305 -5.81055 99.1699 -5.51758 99.9023 -5.51758 C 101.074 -5.51758 101.807 -6.29883 101.807 -7.27539 C 101.807 -8.00781 101.514 -8.34961 100.977 -8.88672 L 82.3242 -27.5879 C 85.8887 -31.6406 88.0371 -36.9141 88.0371 -42.7246 C 88.0371 -55.3711 77.6855 -65.7715 65.0391 -65.7715 C 52.3926 -65.7715 41.9922 -55.3711 41.9922 -42.7246 C 41.9922 -30.0781 52.3926 -19.7266 65.0391 -19.7266 Z M 65.0391 -22.6074 C 53.9551 -22.6074 44.873 -31.6406 44.873 -42.7246 C 44.873 -53.8086 53.9551 -62.9395 65.0391 -62.9395 C 76.123 -62.9395 85.2051 -53.8086 85.2051 -42.7246 C 85.2051 -31.6406 76.123 -22.6074 65.0391 -22.6074 Z"/>
  </g>
  <g id="Black-M" transform="matrix(1 0 0 1 2870.97 1126)">
   <path d="M 62.4023 18.457 C 91.9922 18.457 116.113 -5.61523 116.113 -35.2051 C 116.113 -64.7949 91.9922 -88.8672 62.4023 -88.8672 C 32.8125 -88.8672 8.74023 -64.7949 8.74023 -35.2051 C 8.74023 -5.61523 32.8125 18.457 62.4023 18.457 Z M 62.4023 0.195312 C 42.8711 0.195312 27.002 -15.625 27.002 -35.2051 C 27.002 -54.7363 42.8711 -70.6055 62.4023 -70.6055 C 81.9824 -70.6055 97.8027 -54.7363 97.8027 -35.2051 C 97.8027 -15.625 81.9824 0.195312 62.4023 0.195312 Z M 57.666 -19.7754 C 60.498 -19.7754 63.1348 -20.3613 65.5273 -21.4355 L 73.3887 -13.6719 C 74.707 -12.4023 76.3672 -11.7676 78.125 -11.7676 C 81.8359 -11.7676 84.7168 -14.5996 84.7168 -18.3594 C 84.7168 -20.0684 84.1797 -21.7285 82.8125 -23.0957 L 75.1465 -30.7617 C 76.3672 -33.3008 77.0996 -36.1328 77.0996 -39.1602 C 77.0996 -49.707 68.3594 -58.4961 57.666 -58.4961 C 47.168 -58.4961 38.3789 -49.707 38.3789 -39.1602 C 38.3789 -28.5156 47.168 -19.7754 57.666 -19.7754 Z M 57.666 -29.3945 C 52.2949 -29.3945 47.9004 -33.6426 47.9004 -39.1602 C 47.9004 -44.5312 52.2949 -48.877 57.666 -48.877 C 63.1348 -48.877 67.4805 -44.5312 67.4805 -39.1602 C 67.4805 -33.6426 63.1348 -29.3945 57.666 -29.3945 Z"/>
  </g>
  <g id="Heavy-M" transform="matrix(1 0 0 1 2575.19 1126)">
   <path d="M 61.5234 17.5781 C 90.5273 17.5781 114.258 -6.15234 114.258 -35.2051 C 114.258 -64.2578 90.5273 -87.9883 61.4746 -87.9883 C 32.4707 -87.9883 8.74023 -64.2578 8.74023 -35.2051 C 8.74023 -6.15234 32.4707 17.5781 61.5234 17.5781 Z M 61.5234 1.66016 C 41.1133 1.66016 24.6582 -14.8438 24.6582 -35.2051 C 24.6582 -55.5664 41.1133 -72.0703 61.4746 -72.0703 C 81.8848 -72.0703 98.3398 -55.5664 98.3398 -35.2051 C 98.3398 -14.8438 81.8848 1.66016 61.5234 1.66016 Z M 56.6895 -20.2637 C 59.7168 -20.2637 62.5977 -20.9961 65.1367 -22.2168 L 73.9258 -13.4766 C 75.1953 -12.3047 76.709 -11.7188 78.2715 -11.7188 C 81.5918 -11.7188 84.082 -14.2578 84.082 -17.627 C 84.082 -19.1406 83.5938 -20.6055 82.373 -21.8262 L 73.6816 -30.5176 C 75.0977 -33.2031 75.9277 -36.2793 75.9277 -39.502 C 75.9277 -50 67.2852 -58.6914 56.6895 -58.6914 C 46.1914 -58.6914 37.5 -50 37.5 -39.502 C 37.5 -28.9062 46.1914 -20.2637 56.6895 -20.2637 Z M 56.6895 -28.9062 C 50.8301 -28.9062 46.0449 -33.5938 46.0449 -39.502 C 46.0449 -45.3125 50.8301 -50.0488 56.6895 -50.0488 C 62.5488 -50.0488 67.2852 -45.3125 67.2852 -39.502 C 67.2852 -33.5938 62.5488 -28.9062 56.6895 -28.9062 Z"/>
  </g>
  <g id="Bold-M" transform="matrix(1 0 0 1 2279.5 1126)">
   <path d="M 60.498 16.5039 C 88.8672 16.5039 112.207 -6.78711 112.207 -35.2051 C 112.207 -63.623 88.8672 -86.9629 60.4492 -86.9629 C 32.0312 -86.9629 8.74023 -63.623 8.74023 -35.2051 C 8.74023 -6.78711 32.0801 16.5039 60.498 16.5039 Z M 60.498 3.22266 C 39.1602 3.22266 22.0703 -13.916 22.0703 -35.2051 C 22.0703 -56.4941 39.1602 -73.6816 60.4492 -73.6816 C 81.7383 -73.6816 98.9258 -56.4941 98.9258 -35.2051 C 98.9746 -13.916 81.7871 3.22266 60.498 3.22266 Z M 55.5664 -20.8008 C 58.8867 -20.8008 62.0117 -21.6797 64.6973 -23.1445 L 74.6094 -13.2812 C 75.7324 -12.207 77.002 -11.7188 78.4668 -11.7188 C 81.2988 -11.7188 83.3984 -13.8184 83.3984 -16.748 C 83.3984 -18.0664 82.9102 -19.3359 81.8848 -20.3613 L 72.0215 -30.2734 C 73.6816 -33.1055 74.6582 -36.377 74.6582 -39.8926 C 74.6582 -50.3418 66.0645 -58.9355 55.5664 -58.9355 C 45.1172 -58.9355 36.5234 -50.3418 36.5234 -39.8926 C 36.5234 -29.3945 45.1172 -20.8008 55.5664 -20.8008 Z M 55.5664 -28.3203 C 49.2188 -28.3203 43.9941 -33.4961 43.9941 -39.8926 C 43.9941 -46.2402 49.2188 -51.416 55.5664 -51.416 C 61.9141 -51.416 67.0898 -46.2402 67.0898 -39.8926 C 67.0898 -33.4961 61.9141 -28.3203 55.5664 -28.3203 Z"/>
  </g>
  <g id="Semibold-M" transform="matrix(1 0 0 1 1983.5 1126)">
   <path d="M 59.7656 15.8203 C 87.7441 15.8203 110.791 -7.22656 110.791 -35.2051 C 110.791 -63.1836 87.6953 -86.2793 59.7656 -86.2793 C 31.7871 -86.2793 8.74023 -63.1836 8.74023 -35.2051 C 8.74023 -7.22656 31.7871 15.8203 59.7656 15.8203 Z M 59.7656 4.3457 C 37.8418 4.3457 20.2637 -13.2812 20.2637 -35.2051 C 20.2637 -57.1289 37.793 -74.8047 59.7656 -74.8047 C 81.6895 -74.8047 99.3164 -57.1289 99.3652 -35.2051 C 99.3652 -13.2812 81.6895 4.3457 59.7656 4.3457 Z M 54.7852 -21.1914 C 58.3008 -21.1914 61.5723 -22.168 64.3555 -23.8281 L 75.0488 -13.1836 C 76.0742 -12.1094 77.2461 -11.6699 78.5645 -11.6699 C 81.0547 -11.6699 82.9102 -13.5742 82.9102 -16.1621 C 82.9102 -17.334 82.4707 -18.457 81.543 -19.3848 L 70.8496 -30.0781 C 72.7051 -33.0078 73.7793 -36.4746 73.7793 -40.1855 C 73.7793 -50.5859 65.2344 -59.1309 54.7852 -59.1309 C 44.3848 -59.1309 35.8398 -50.5859 35.8398 -40.1855 C 35.8398 -29.7363 44.3848 -21.1914 54.7852 -21.1914 Z M 54.7852 -27.9785 C 48.0957 -27.9785 42.5781 -33.4473 42.5781 -40.1855 C 42.5781 -46.8262 48.0957 -52.3438 54.7852 -52.3438 C 61.4746 -52.3438 66.9922 -46.8262 66.9922 -40.1855 C 66.9922 -33.4473 61.4746 -27.9785 54.7852 -27.9785 Z"/>
  </g>
  <g id="Medium-M" transform="matrix(1 0 0 1 1687.3 1126)">
   <path d="M 59.2285 15.2832 C 86.9141 15.2832 109.766 -7.56836 109.766 -35.2051 C 109.766 -62.8906 86.8652 -85.7422 59.1797 -85.7422 C 31.543 -85.7422 8.74023 -62.8906 8.74023 -35.2051 C 8.74023 -7.56836 31.5918 15.2832 59.2285 15.2832 Z M 59.2285 5.17578 C 36.8164 5.17578 18.8965 -12.8418 18.8965 -35.2051 C 18.8965 -57.6172 36.8164 -75.6348 59.1797 -75.6348 C 81.5918 -75.6348 99.6094 -57.6172 99.6582 -35.2051 C 99.707 -12.8418 81.6406 5.17578 59.2285 5.17578 Z M 54.248 -21.4844 C 57.8613 -21.4844 61.2305 -22.5586 64.1113 -24.3164 L 75.3906 -13.0859 C 76.3672 -12.0605 77.4414 -11.6699 78.6621 -11.6699 C 80.9082 -11.6699 82.5684 -13.3301 82.5684 -15.7227 C 82.5684 -16.7969 82.1289 -17.8223 81.2988 -18.6523 L 69.9707 -29.9805 C 71.9238 -32.959 73.0957 -36.5234 73.0957 -40.3809 C 73.0957 -50.7324 64.5996 -59.2773 54.248 -59.2773 C 43.8477 -59.2773 35.3516 -50.7324 35.3516 -40.3809 C 35.3516 -29.9805 43.8477 -21.4844 54.248 -21.4844 Z M 54.248 -27.6855 C 47.2656 -27.6855 41.5039 -33.3984 41.5039 -40.3809 C 41.5039 -47.3145 47.2656 -53.0273 54.248 -53.0273 C 61.1328 -53.0273 66.8945 -47.3145 66.8945 -40.3809 C 66.8945 -33.3984 61.1328 -27.6855 54.248 -27.6855 Z"/>
  </g>
  <g id="Regular-M" transform="matrix(1 0 0 1 1391.3 1126)">
   <path d="M 58.5449 14.5508 C 85.791 14.5508 108.35 -8.00781 108.35 -35.2539 C 108.35 -62.4512 85.7422 -85.0586 58.4961 -85.0586 C 31.2988 -85.0586 8.74023 -62.4512 8.74023 -35.2539 C 8.74023 -8.00781 31.3477 14.5508 58.5449 14.5508 Z M 58.5449 6.25 C 35.498 6.25 17.0898 -12.207 17.0898 -35.2539 C 17.0898 -58.252 35.4492 -76.7578 58.4961 -76.7578 C 81.543 -76.7578 100 -58.252 100.049 -35.2539 C 100.098 -12.207 81.5918 6.25 58.5449 6.25 Z M 53.4668 -21.875 C 57.2754 -21.875 60.791 -23.0469 63.7695 -25 L 75.8301 -12.9395 C 76.7578 -12.0117 77.6367 -11.6699 78.7598 -11.6699 C 80.7129 -11.6699 82.0801 -13.0859 82.0801 -15.1367 C 82.0801 -16.0645 81.6406 -16.9922 80.957 -17.6758 L 68.7988 -29.834 C 70.9473 -32.9102 72.2168 -36.6211 72.2168 -40.6738 C 72.2168 -50.9766 63.8184 -59.4238 53.4668 -59.4238 C 43.1152 -59.4238 34.668 -50.9766 34.668 -40.6738 C 34.668 -30.3223 43.1152 -21.875 53.4668 -21.875 Z M 53.4668 -27.2949 C 46.1426 -27.2949 40.0879 -33.3496 40.0879 -40.6738 C 40.0879 -47.9004 46.1426 -53.9551 53.4668 -53.9551 C 60.7422 -53.9551 66.748 -47.9004 66.748 -40.6738 C 66.748 -33.3496 60.7422 -27.2949 53.4668 -27.2949 Z"/>
  </g>
  <g id="Light-M" transform="matrix(1 0 0 1 1095.42 1126)">
   <path d="M 57.7148 13.7695 C 84.5215 13.7695 106.689 -8.39844 106.689 -35.2051 C 106.689 -62.0117 84.5215 -84.1797 57.666 -84.1797 C 30.8594 -84.1797 8.74023 -62.0117 8.74023 -35.2051 C 8.74023 -8.39844 30.9082 13.7695 57.7148 13.7695 Z M 57.7148 7.4707 C 34.082 7.4707 15.0879 -11.5723 15.0879 -35.2051 C 15.0879 -58.8379 34.082 -77.832 57.666 -77.832 C 81.2988 -77.832 100.342 -58.8379 100.391 -35.2051 C 100.391 -11.5723 81.3477 7.4707 57.7148 7.4707 Z M 52.5391 -22.3145 C 56.4941 -22.3145 60.1562 -23.5352 63.1348 -25.6836 L 75.8789 -12.9395 C 76.6602 -12.1094 77.3926 -11.8164 78.3691 -11.8164 C 79.9805 -11.8164 81.1035 -12.9883 81.1035 -14.6484 C 81.1035 -15.4785 80.7129 -16.1621 80.127 -16.7969 L 67.2852 -29.6875 C 69.5801 -32.7637 70.9961 -36.6211 70.9961 -40.7715 C 70.9961 -50.9277 62.6953 -59.2773 52.5391 -59.2773 C 42.334 -59.2773 34.0332 -50.9277 34.0332 -40.7715 C 34.0332 -30.6152 42.334 -22.3145 52.5391 -22.3145 Z M 52.5391 -26.709 C 44.8242 -26.709 38.4277 -33.0566 38.4277 -40.7715 C 38.4277 -48.4375 44.8242 -54.7852 52.5391 -54.7852 C 60.2051 -54.7852 66.5527 -48.4375 66.5527 -40.7715 C 66.5527 -33.0566 60.2051 -26.709 52.5391 -26.709 Z"/>
  </g>
  <g id="Thin-M" transform="matrix(1 0 0 1 799.806 1126)">
   <path d="M 56.6406 12.7441 C 82.9102 12.7441 104.492 -8.83789 104.492 -35.1562 C 104.492 -61.4746 82.9102 -83.0566 56.5918 -83.0566 C 30.3223 -83.0566 8.74023 -61.4746 8.74023 -35.1562 C 8.74023 -8.83789 30.3223 12.7441 56.6406 12.7441 Z M 56.6406 8.98438 C 32.2266 8.98438 12.4512 -10.791 12.4512 -35.1562 C 12.4512 -59.5215 32.2266 -79.2969 56.5918 -79.2969 C 81.0059 -79.2969 100.781 -59.5215 100.781 -35.1562 C 100.781 -10.791 81.0059 8.98438 56.6406 8.98438 Z M 51.2695 -22.8516 C 55.4199 -22.8516 59.2773 -24.2676 62.3047 -26.6113 L 75.9766 -12.8906 C 76.6113 -12.3047 77.0996 -12.0117 77.7832 -12.0117 C 79.0039 -12.0117 79.7852 -12.8906 79.7852 -14.0137 C 79.7852 -14.6973 79.4922 -15.1367 79.0039 -15.625 L 65.2344 -29.4434 C 67.7734 -32.5684 69.3359 -36.5723 69.3359 -40.918 C 69.3359 -50.8789 61.2305 -59.0332 51.2695 -59.0332 C 41.3086 -59.0332 33.1543 -50.8789 33.1543 -40.918 C 33.1543 -30.957 41.3086 -22.8516 51.2695 -22.8516 Z M 51.2695 -25.9766 C 43.0664 -25.9766 36.2793 -32.7148 36.2793 -40.918 C 36.2793 -49.1211 43.0664 -55.9082 51.2695 -55.9082 C 59.4727 -55.9082 66.2109 -49.1211 66.2109 -40.918 C 66.2109 -32.7148 59.4727 -25.9766 51.2695 -25.9766 Z"/>
  </g>
  <g id="Ultralight-M" transform="matrix(1 0 0 1 503.656 1126)">
   <path d="M 56.0547 12.207 C 82.0801 12.207 103.369 -9.08203 103.369 -35.1562 C 103.369 -61.1816 82.0801 -82.4707 56.0547 -82.4707 C 30.0293 -82.4707 8.74023 -61.1816 8.74023 -35.1562 C 8.74023 -9.08203 30.0293 12.207 56.0547 12.207 Z M 56.0547 9.81445 C 31.2988 9.81445 11.1328 -10.3516 11.1328 -35.1562 C 11.1328 -59.9121 31.2988 -80.0781 56.0547 -80.0781 C 80.8594 -80.0781 100.977 -59.9121 100.977 -35.1562 C 100.977 -10.3516 80.8594 9.81445 56.0547 9.81445 Z M 50.6348 -23.1445 C 54.8828 -23.1445 58.7891 -24.6094 61.8652 -27.1484 L 76.0742 -12.8906 C 76.5625 -12.4023 76.9043 -12.1582 77.5391 -12.1582 C 78.5156 -12.1582 79.1016 -12.8418 79.1016 -13.6719 C 79.1016 -14.3066 78.8574 -14.5996 78.418 -15.0391 L 64.1602 -29.3457 C 66.8457 -32.4707 68.5059 -36.5723 68.5059 -41.0156 C 68.5059 -50.8301 60.4492 -58.9355 50.6348 -58.9355 C 40.7715 -58.9355 32.7148 -50.8301 32.7148 -41.0156 C 32.7148 -31.1523 40.7715 -23.1445 50.6348 -23.1445 Z M 50.6348 -25.5859 C 42.1387 -25.5859 35.1562 -32.5195 35.1562 -41.0156 C 35.1562 -49.5117 42.1387 -56.4941 50.6348 -56.4941 C 59.1309 -56.4941 66.0645 -49.5117 66.0645 -41.0156 C 66.0645 -32.5195 59.1309 -25.5859 50.6348 -25.5859 Z"/>
  </g>
  <g id="Black-S" transform="matrix(1 0 0 1 2884.57 696)">
   <path d="M 48.8281 6.78711 C 71.9727 6.78711 90.8203 -12.0605 90.8203 -35.2051 C 90.8203 -58.3496 71.9727 -77.1973 48.8281 -77.1973 C 25.6836 -77.1973 6.83594 -58.3496 6.83594 -35.2051 C 6.83594 -12.0605 25.6836 6.78711 48.8281 6.78711 Z M 48.8281 -7.37305 C 33.4473 -7.37305 20.9961 -19.8242 20.9961 -35.2051 C 20.9961 -50.5859 33.4473 -63.0371 48.8281 -63.0371 C 64.209 -63.0371 76.6602 -50.5859 76.6602 -35.2051 C 76.6602 -19.8242 64.209 -7.37305 48.8281 -7.37305 Z M 45.1172 -23.1445 C 47.3145 -23.1445 49.4141 -23.6328 51.3184 -24.4629 L 57.5195 -18.3105 C 58.5449 -17.334 59.8633 -16.8457 61.2305 -16.8457 C 64.1113 -16.8457 66.3086 -19.043 66.3086 -21.9727 C 66.3086 -23.291 65.918 -24.5605 64.8438 -25.6348 L 58.7891 -31.6895 C 59.7656 -33.6914 60.3027 -35.9375 60.3027 -38.3301 C 60.3027 -46.582 53.4668 -53.4668 45.1172 -53.4668 C 36.8652 -53.4668 29.9805 -46.582 29.9805 -38.3301 C 29.9805 -29.9805 36.8652 -23.1445 45.1172 -23.1445 Z M 45.1172 -30.6152 C 40.8691 -30.6152 37.4023 -33.9844 37.4023 -38.3301 C 37.4023 -42.5781 40.8691 -45.9961 45.1172 -45.9961 C 49.4141 -45.9961 52.832 -42.5781 52.832 -38.3301 C 52.832 -33.9844 49.4141 -30.6152 45.1172 -30.6152 Z"/>
  </g>
  <g id="Heavy-S" transform="matrix(1 0 0 1 2588.47 696)">
   <path d="M 48.2422 6.15234 C 70.9961 6.15234 89.5996 -12.4512 89.5996 -35.2051 C 89.5996 -57.959 70.9961 -76.6113 48.1934 -76.6113 C 25.4395 -76.6113 6.83594 -57.959 6.83594 -35.2051 C 6.83594 -12.4512 25.4395 6.15234 48.2422 6.15234 Z M 48.2422 -6.39648 C 32.2754 -6.39648 19.4336 -19.2871 19.4336 -35.2051 C 19.4336 -51.1719 32.2754 -64.0137 48.1934 -64.0137 C 64.1602 -64.0137 77.002 -51.1719 77.0508 -35.2051 C 77.0508 -19.2871 64.1602 -6.39648 48.2422 -6.39648 Z M 44.4824 -23.4863 C 46.8262 -23.4863 49.0723 -24.0234 51.0742 -25 L 57.959 -18.1641 C 58.9355 -17.2363 60.1074 -16.7969 61.377 -16.7969 C 63.9648 -16.7969 65.9668 -18.7988 65.9668 -21.4355 C 65.9668 -22.6562 65.5762 -23.7793 64.5996 -24.7559 L 57.8125 -31.543 C 58.9355 -33.6426 59.5703 -36.0352 59.5703 -38.5742 C 59.5703 -46.8262 52.7832 -53.6621 44.4824 -53.6621 C 36.2305 -53.6621 29.3945 -46.8262 29.3945 -38.5742 C 29.3945 -30.2734 36.2305 -23.4863 44.4824 -23.4863 Z M 44.4824 -30.3223 C 39.8926 -30.3223 36.1816 -33.9844 36.1816 -38.5742 C 36.1816 -43.1152 39.8926 -46.8262 44.4824 -46.8262 C 49.0234 -46.8262 52.7344 -43.1152 52.7344 -38.5742 C 52.7344 -33.9844 49.0234 -30.3223 44.4824 -30.3223 Z"/>
  </g>
  <g id="Bold-S" transform="matrix(1 0 0 1 2292.44 696)">
   <path d="M 47.5586 5.46875 C 69.873 5.46875 88.2324 -12.8906 88.2324 -35.2051 C 88.2324 -57.5684 69.873 -75.9277 47.5098 -75.9277 C 25.1953 -75.9277 6.83594 -57.5684 6.83594 -35.2051 C 6.83594 -12.8906 25.1953 5.46875 47.5586 5.46875 Z M 47.5586 -5.32227 C 30.957 -5.32227 17.6758 -18.6523 17.6758 -35.2051 C 17.6758 -51.8066 30.957 -65.1367 47.5098 -65.1367 C 64.1113 -65.1367 77.4414 -51.8066 77.4414 -35.2051 C 77.4414 -18.6523 64.1113 -5.32227 47.5586 -5.32227 Z M 43.75 -23.877 C 46.2891 -23.877 48.6816 -24.5117 50.8301 -25.6348 L 58.4473 -18.0176 C 59.3262 -17.1387 60.4004 -16.748 61.5723 -16.748 C 63.8184 -16.748 65.5273 -18.457 65.5273 -20.8496 C 65.5273 -21.9238 65.1855 -22.9492 64.3555 -23.7793 L 56.7383 -31.3965 C 58.0078 -33.5938 58.7402 -36.1328 58.7402 -38.8672 C 58.7402 -47.0703 52.002 -53.8574 43.75 -53.8574 C 35.498 -53.8574 28.7109 -47.0703 28.7109 -38.8672 C 28.7109 -30.6152 35.498 -23.877 43.75 -23.877 Z M 43.75 -29.9805 C 38.8184 -29.9805 34.8145 -33.9355 34.8145 -38.8672 C 34.8145 -43.75 38.8184 -47.7539 43.75 -47.7539 C 48.6328 -47.7539 52.6367 -43.75 52.6367 -38.8672 C 52.6367 -33.9355 48.6328 -29.9805 43.75 -29.9805 Z"/>
  </g>
  <g id="Semibold-S" transform="matrix(1 0 0 1 1996.2 696)">
   <path d="M 47.0703 4.98047 C 69.0918 4.98047 87.3047 -13.1836 87.3047 -35.2539 C 87.3047 -57.2754 69.0918 -75.4883 47.0215 -75.4883 C 25 -75.4883 6.83594 -57.2754 6.83594 -35.2539 C 6.83594 -13.1836 25.0488 4.98047 47.0703 4.98047 Z M 47.0703 -4.58984 C 30.0781 -4.58984 16.4551 -18.2129 16.4551 -35.2539 C 16.4551 -52.2461 30.0293 -65.8691 47.0215 -65.8691 C 64.0625 -65.8691 77.6855 -52.2461 77.7344 -35.2539 C 77.7344 -18.2129 64.0625 -4.58984 47.0703 -4.58984 Z M 43.2129 -24.1211 C 45.8984 -24.1211 48.4375 -24.8535 50.5859 -26.0742 L 58.7402 -17.9199 C 59.6191 -17.0898 60.5957 -16.748 61.6699 -16.748 C 63.7207 -16.748 65.2832 -18.2617 65.2832 -20.459 C 65.2832 -21.3867 64.8926 -22.3633 64.1602 -23.0957 L 55.957 -31.25 C 57.373 -33.5449 58.1543 -36.2305 58.1543 -39.0625 C 58.1543 -47.2656 51.4648 -54.0039 43.2129 -54.0039 C 35.0098 -54.0039 28.2715 -47.2656 28.2715 -39.0625 C 28.2715 -30.8594 35.0098 -24.1211 43.2129 -24.1211 Z M 43.2129 -29.7363 C 38.0859 -29.7363 33.8867 -33.9355 33.8867 -39.0625 C 33.8867 -44.1895 38.0859 -48.3887 43.2129 -48.3887 C 48.3398 -48.3887 52.5391 -44.1895 52.5391 -39.0625 C 52.5391 -33.9355 48.3398 -29.7363 43.2129 -29.7363 Z"/>
  </g>
  <g id="Medium-S" transform="matrix(1 0 0 1 1699.83 696)">
   <path d="M 46.7285 4.63867 C 68.5547 4.63867 86.6211 -13.4277 86.6211 -35.2539 C 86.6211 -57.0312 68.5059 -75.1465 46.6797 -75.1465 C 24.8535 -75.1465 6.83594 -57.0312 6.83594 -35.2539 C 6.83594 -13.4277 24.9023 4.63867 46.7285 4.63867 Z M 46.7285 -4.00391 C 29.3945 -4.00391 15.5273 -17.9199 15.5273 -35.2539 C 15.5273 -52.5879 29.3457 -66.4551 46.6797 -66.4551 C 64.0137 -66.4551 77.8809 -52.5879 77.9297 -35.2539 C 77.9785 -17.9199 64.0625 -4.00391 46.7285 -4.00391 Z M 42.8223 -24.3164 C 45.6055 -24.3164 48.2422 -25.0977 50.4395 -26.416 L 59.0332 -17.8711 C 59.8633 -17.041 60.7422 -16.6992 61.7676 -16.6992 C 63.6719 -16.6992 65.0391 -18.1152 65.0391 -20.166 C 65.0391 -20.9961 64.6973 -21.875 64.0137 -22.5586 L 55.3711 -31.2012 C 56.8848 -33.4961 57.7637 -36.2793 57.7637 -39.209 C 57.7637 -47.4121 51.0254 -54.1504 42.8223 -54.1504 C 34.668 -54.1504 27.9297 -47.4121 27.9297 -39.209 C 27.9297 -31.0059 34.668 -24.3164 42.8223 -24.3164 Z M 42.8223 -29.541 C 37.5488 -29.541 33.1543 -33.8867 33.1543 -39.209 C 33.1543 -44.4824 37.5488 -48.877 42.8223 -48.877 C 48.0957 -48.877 52.4902 -44.4824 52.4902 -39.209 C 52.4902 -33.8867 48.0957 -29.541 42.8223 -29.541 Z"/>
  </g>
  <g id="Regular-S" transform="matrix(1 0 0 1 1403.58 696)">
   <path d="M 46.2402 4.15039 C 67.7734 4.15039 85.6934 -13.7207 85.6934 -35.2539 C 85.6934 -56.7871 67.7246 -74.6582 46.1914 -74.6582 C 24.707 -74.6582 6.83594 -56.7871 6.83594 -35.2539 C 6.83594 -13.7207 24.7559 4.15039 46.2402 4.15039 Z M 46.2402 -3.27148 C 28.5156 -3.27148 14.3555 -17.4805 14.3555 -35.2539 C 14.3555 -53.0273 28.4668 -67.2363 46.1914 -67.2363 C 63.9648 -67.2363 78.1738 -53.0273 78.2227 -35.2539 C 78.2715 -17.4805 64.0137 -3.27148 46.2402 -3.27148 Z M 42.334 -24.5605 C 45.2148 -24.5605 47.9492 -25.4395 50.2441 -26.8555 L 59.3262 -17.7734 C 60.1562 -16.9434 60.9375 -16.6992 61.9141 -16.6992 C 63.5742 -16.6992 64.7949 -17.9199 64.7949 -19.7266 C 64.7949 -20.5078 64.4043 -21.2891 63.8184 -21.875 L 54.6387 -31.1035 C 56.25 -33.4961 57.1777 -36.3281 57.1777 -39.4043 C 57.1777 -47.6074 50.4883 -54.248 42.334 -54.248 C 34.1797 -54.248 27.4902 -47.6074 27.4902 -39.4043 C 27.4902 -31.25 34.1797 -24.5605 42.334 -24.5605 Z M 42.334 -29.2969 C 36.8164 -29.2969 32.2266 -33.8867 32.2266 -39.4043 C 32.2266 -44.9219 36.8164 -49.5117 42.334 -49.5117 C 47.8027 -49.5117 52.3926 -44.9219 52.3926 -39.4043 C 52.3926 -33.8867 47.8027 -29.2969 42.334 -29.2969 Z"/>
  </g>
  <g id="Light-S" transform="matrix(1 0 0 1 1107.6 696)">
   <path d="M 45.5078 3.4668 C 66.6992 3.4668 84.2285 -14.0625 84.2285 -35.2051 C 84.2285 -56.3965 66.6504 -73.9258 45.5078 -73.9258 C 24.3164 -73.9258 6.83594 -56.3965 6.83594 -35.2051 C 6.83594 -14.0625 24.3652 3.4668 45.5078 3.4668 Z M 45.5078 -2.24609 C 27.2461 -2.24609 12.5977 -16.9434 12.5977 -35.2051 C 12.5977 -53.5156 27.1973 -68.2129 45.5078 -68.2129 C 63.7695 -68.2129 78.4668 -53.5156 78.5156 -35.2051 C 78.5156 -16.9434 63.8184 -2.24609 45.5078 -2.24609 Z M 41.5039 -24.9512 C 44.5312 -24.9512 47.3633 -25.8789 49.707 -27.4902 L 59.4238 -17.7734 C 60.1074 -17.0898 60.7422 -16.8457 61.5234 -16.8457 C 62.8906 -16.8457 63.916 -17.8223 63.916 -19.2871 C 63.916 -19.9707 63.5742 -20.6055 63.0859 -21.0938 L 53.2715 -30.957 C 55.0293 -33.3496 56.1035 -36.3281 56.1035 -39.502 C 56.1035 -47.5586 49.5117 -54.1016 41.5039 -54.1016 C 33.4473 -54.1016 26.9043 -47.5586 26.9043 -39.502 C 26.9043 -31.4941 33.4473 -24.9512 41.5039 -24.9512 Z M 41.5039 -28.8086 C 35.5957 -28.8086 30.7617 -33.6426 30.7617 -39.502 C 30.7617 -45.3613 35.5957 -50.2441 41.5039 -50.2441 C 47.3633 -50.2441 52.1973 -45.3613 52.1973 -39.502 C 52.1973 -33.6426 47.3633 -28.8086 41.5039 -28.8086 Z"/>
  </g>
  <g id="Thin-S" transform="matrix(1 0 0 1 811.867 696)">
   <path d="M 44.5801 2.53906 C 65.2832 2.53906 82.2754 -14.4531 82.2754 -35.2051 C 82.2754 -55.9082 65.2344 -72.9004 44.5312 -72.9004 C 23.8281 -72.9004 6.83594 -55.9082 6.83594 -35.2051 C 6.83594 -14.4531 23.877 2.53906 44.5801 2.53906 Z M 44.5801 -0.878906 C 25.5859 -0.878906 10.2539 -16.2109 10.2539 -35.2051 C 10.2539 -54.1504 25.5859 -69.4824 44.5312 -69.4824 C 63.5254 -69.4824 78.8574 -54.1504 78.8574 -35.2051 C 78.8574 -16.2109 63.5254 -0.878906 44.5801 -0.878906 Z M 40.3809 -25.4395 C 43.6035 -25.4395 46.582 -26.5137 48.9746 -28.3203 L 59.5215 -17.7246 C 60.0098 -17.2363 60.4492 -16.9922 61.0352 -16.9922 C 62.0605 -16.9922 62.7441 -17.7246 62.7441 -18.75 C 62.7441 -19.2871 62.5 -19.6777 62.1094 -20.0684 L 51.4648 -30.7617 C 53.4668 -33.2031 54.6387 -36.2793 54.6387 -39.6484 C 54.6387 -47.5098 48.2422 -53.9551 40.3809 -53.9551 C 32.5684 -53.9551 26.123 -47.5098 26.123 -39.6484 C 26.123 -31.8359 32.5684 -25.4395 40.3809 -25.4395 Z M 40.3809 -28.125 C 34.0332 -28.125 28.8086 -33.3008 28.8086 -39.6484 C 28.8086 -45.9961 34.0332 -51.2207 40.3809 -51.2207 C 46.7285 -51.2207 51.9531 -45.9961 51.9531 -39.6484 C 51.9531 -33.3008 46.7285 -28.125 40.3809 -28.125 Z"/>
  </g>
  <g id="Ultralight-S" transform="matrix(1 0 0 1 515.644 696)">
   <path d="M 44.043 2.05078 C 64.502 2.05078 81.2988 -14.6973 81.2988 -35.1562 C 81.2988 -55.6152 64.502 -72.3633 44.043 -72.3633 C 23.584 -72.3633 6.83594 -55.6152 6.83594 -35.1562 C 6.83594 -14.6973 23.584 2.05078 44.043 2.05078 Z M 44.043 -0.146484 C 24.7559 -0.146484 9.08203 -15.8691 9.08203 -35.1562 C 9.08203 -54.4434 24.7559 -70.166 44.043 -70.166 C 63.3789 -70.166 79.0527 -54.4434 79.0527 -35.1562 C 79.0527 -15.8691 63.3789 -0.146484 44.043 -0.146484 Z M 39.8438 -25.6836 C 43.1152 -25.6836 46.1914 -26.8066 48.584 -28.7598 L 59.5703 -17.7246 C 59.9609 -17.334 60.3027 -17.1387 60.791 -17.1387 C 61.6211 -17.1387 62.1582 -17.6758 62.1582 -18.4082 C 62.1582 -18.9453 61.9629 -19.1895 61.5723 -19.5312 L 50.5371 -30.6641 C 52.6367 -33.1055 53.9062 -36.2793 53.9062 -39.7461 C 53.9062 -47.4609 47.5586 -53.8086 39.8438 -53.8086 C 32.0801 -53.8086 25.7324 -47.4609 25.7324 -39.7461 C 25.7324 -31.9824 32.0801 -25.6836 39.8438 -25.6836 Z M 39.8438 -27.7832 C 33.252 -27.7832 27.832 -33.1543 27.832 -39.7461 C 27.832 -46.3379 33.252 -51.7578 39.8438 -51.7578 C 46.3867 -51.7578 51.8066 -46.3379 51.8066 -39.7461 C 51.8066 -33.1543 46.3867 -27.7832 39.8438 -27.7832 Z"/>
  </g>
 </g>
</svg>
