<?xml version="1.0" encoding="UTF-8"?>
<!--Generator: Apple Native CoreSVG 123-->
<!DOCTYPE svg
PUBLIC "-//W3C//DTD SVG 1.1//EN"
       "http://www.w3.org/Graphics/SVG/1.1/DTD/svg11.dtd">
<svg version="1.1" xmlns="http://www.w3.org/2000/svg" xmlns:xlink="http://www.w3.org/1999/xlink" width="3300" height="2200">
 <!--glyph: "uni1000DC.medium", point size: 100.000000, font version: "Version 15.0d7e11", template writer version: "5"-->
 <g id="Notes">
  <rect height="2200" id="artboard" style="fill:white;opacity:1" width="3300" x="0" y="0"/>
  <line id="" style="fill:none;stroke:black;opacity:1;stroke-width:0.5;" x1="263" x2="3036" y1="292" y2="292"/>
  <text style="stroke:none;fill:black;font-family:-apple-system,&quot;SF Pro Display&quot;,&quot;SF Pro Text&quot;,Helvetica,sans-serif;font-weight:bold;" transform="matrix(1 0 0 1 263 322)">Weight/Scale Variations</text>
  <text style="stroke:none;fill:black;font-family:-apple-system,&quot;SF Pro Display&quot;,&quot;SF Pro Text&quot;,Helvetica,sans-serif;text-anchor:middle;" transform="matrix(1 0 0 1 559.711 322)">Ultralight</text>
  <text style="stroke:none;fill:black;font-family:-apple-system,&quot;SF Pro Display&quot;,&quot;SF Pro Text&quot;,Helvetica,sans-serif;text-anchor:middle;" transform="matrix(1 0 0 1 856.422 322)">Thin</text>
  <text style="stroke:none;fill:black;font-family:-apple-system,&quot;SF Pro Display&quot;,&quot;SF Pro Text&quot;,Helvetica,sans-serif;text-anchor:middle;" transform="matrix(1 0 0 1 1153.13 322)">Light</text>
  <text style="stroke:none;fill:black;font-family:-apple-system,&quot;SF Pro Display&quot;,&quot;SF Pro Text&quot;,Helvetica,sans-serif;text-anchor:middle;" transform="matrix(1 0 0 1 1449.84 322)">Regular</text>
  <text style="stroke:none;fill:black;font-family:-apple-system,&quot;SF Pro Display&quot;,&quot;SF Pro Text&quot;,Helvetica,sans-serif;text-anchor:middle;" transform="matrix(1 0 0 1 1746.56 322)">Medium</text>
  <text style="stroke:none;fill:black;font-family:-apple-system,&quot;SF Pro Display&quot;,&quot;SF Pro Text&quot;,Helvetica,sans-serif;text-anchor:middle;" transform="matrix(1 0 0 1 2043.27 322)">Semibold</text>
  <text style="stroke:none;fill:black;font-family:-apple-system,&quot;SF Pro Display&quot;,&quot;SF Pro Text&quot;,Helvetica,sans-serif;text-anchor:middle;" transform="matrix(1 0 0 1 2339.98 322)">Bold</text>
  <text style="stroke:none;fill:black;font-family:-apple-system,&quot;SF Pro Display&quot;,&quot;SF Pro Text&quot;,Helvetica,sans-serif;text-anchor:middle;" transform="matrix(1 0 0 1 2636.69 322)">Heavy</text>
  <text style="stroke:none;fill:black;font-family:-apple-system,&quot;SF Pro Display&quot;,&quot;SF Pro Text&quot;,Helvetica,sans-serif;text-anchor:middle;" transform="matrix(1 0 0 1 2933.4 322)">Black</text>
  <line id="" style="fill:none;stroke:black;opacity:1;stroke-width:0.5;" x1="263" x2="3036" y1="1903" y2="1903"/>
  <g id="" transform="matrix(1 0 0 1 263 1933)">
   <path d="M 9.24805 0.830078 C 13.5547 0.830078 17.1387 -2.74414 17.1387 -7.05078 C 17.1387 -11.3574 13.5449 -14.9316 9.23828 -14.9316 C 4.94141 -14.9316 1.36719 -11.3574 1.36719 -7.05078 C 1.36719 -2.74414 4.95117 0.830078 9.24805 0.830078 Z M 9.24805 -0.654297 C 5.70312 -0.654297 2.87109 -3.49609 2.87109 -7.05078 C 2.87109 -10.6055 5.69336 -13.4473 9.23828 -13.4473 C 12.793 -13.4473 15.6348 -10.6055 15.6445 -7.05078 C 15.6543 -3.49609 12.8027 -0.654297 9.24805 -0.654297 Z M 9.22852 -3.42773 C 9.69727 -3.42773 9.9707 -3.74023 9.9707 -4.25781 L 9.9707 -6.31836 L 12.1973 -6.31836 C 12.6953 -6.31836 13.0371 -6.57227 13.0371 -7.04102 C 13.0371 -7.51953 12.7148 -7.7832 12.1973 -7.7832 L 9.9707 -7.7832 L 9.9707 -10.0098 C 9.9707 -10.5273 9.69727 -10.8496 9.22852 -10.8496 C 8.75977 -10.8496 8.50586 -10.5078 8.50586 -10.0098 L 8.50586 -7.7832 L 6.29883 -7.7832 C 5.78125 -7.7832 5.44922 -7.51953 5.44922 -7.04102 C 5.44922 -6.57227 5.80078 -6.31836 6.29883 -6.31836 L 8.50586 -6.31836 L 8.50586 -4.25781 C 8.50586 -3.75977 8.75977 -3.42773 9.22852 -3.42773 Z"/>
  </g>
  <g id="" transform="matrix(1 0 0 1 281.506 1933)">
   <path d="M 11.709 2.91016 C 17.1582 2.91016 21.6699 -1.60156 21.6699 -7.05078 C 21.6699 -12.4902 17.1484 -17.0117 11.6992 -17.0117 C 6.25977 -17.0117 1.74805 -12.4902 1.74805 -7.05078 C 1.74805 -1.60156 6.26953 2.91016 11.709 2.91016 Z M 11.709 1.25 C 7.09961 1.25 3.41797 -2.44141 3.41797 -7.05078 C 3.41797 -11.6504 7.08984 -15.3516 11.6992 -15.3516 C 16.3086 -15.3516 20 -11.6504 20.0098 -7.05078 C 20.0195 -2.44141 16.3184 1.25 11.709 1.25 Z M 11.6895 -2.41211 C 12.207 -2.41211 12.5195 -2.77344 12.5195 -3.33984 L 12.5195 -6.23047 L 15.5762 -6.23047 C 16.123 -6.23047 16.5039 -6.51367 16.5039 -7.03125 C 16.5039 -7.55859 16.1426 -7.86133 15.5762 -7.86133 L 12.5195 -7.86133 L 12.5195 -10.9277 C 12.5195 -11.5039 12.207 -11.8555 11.6895 -11.8555 C 11.1719 -11.8555 10.8789 -11.4844 10.8789 -10.9277 L 10.8789 -7.86133 L 7.83203 -7.86133 C 7.26562 -7.86133 6.89453 -7.55859 6.89453 -7.03125 C 6.89453 -6.51367 7.28516 -6.23047 7.83203 -6.23047 L 10.8789 -6.23047 L 10.8789 -3.33984 C 10.8789 -2.79297 11.1719 -2.41211 11.6895 -2.41211 Z"/>
  </g>
  <g id="" transform="matrix(1 0 0 1 304.924 1933)">
   <path d="M 14.9707 5.67383 C 21.9336 5.67383 27.6953 -0.078125 27.6953 -7.04102 C 27.6953 -14.0039 21.9238 -19.7559 14.9609 -19.7559 C 8.00781 -19.7559 2.25586 -14.0039 2.25586 -7.04102 C 2.25586 -0.078125 8.01758 5.67383 14.9707 5.67383 Z M 14.9707 3.85742 C 8.93555 3.85742 4.08203 -1.00586 4.08203 -7.04102 C 4.08203 -13.0762 8.92578 -17.9395 14.9609 -17.9395 C 21.0059 -17.9395 25.8594 -13.0762 25.8691 -7.04102 C 25.8789 -1.00586 21.0156 3.85742 14.9707 3.85742 Z M 14.9512 -1.06445 C 15.5176 -1.06445 15.8691 -1.45508 15.8691 -2.06055 L 15.8691 -6.13281 L 20.1074 -6.13281 C 20.6934 -6.13281 21.1133 -6.46484 21.1133 -7.02148 C 21.1133 -7.59766 20.7227 -7.93945 20.1074 -7.93945 L 15.8691 -7.93945 L 15.8691 -12.1875 C 15.8691 -12.8027 15.5176 -13.1934 14.9512 -13.1934 C 14.3848 -13.1934 14.0625 -12.7832 14.0625 -12.1875 L 14.0625 -7.93945 L 9.83398 -7.93945 C 9.21875 -7.93945 8.80859 -7.59766 8.80859 -7.02148 C 8.80859 -6.46484 9.23828 -6.13281 9.83398 -6.13281 L 14.0625 -6.13281 L 14.0625 -2.06055 C 14.0625 -1.47461 14.3848 -1.06445 14.9512 -1.06445 Z"/>
  </g>
  <text style="stroke:none;fill:black;font-family:-apple-system,&quot;SF Pro Display&quot;,&quot;SF Pro Text&quot;,Helvetica,sans-serif;font-weight:bold;" transform="matrix(1 0 0 1 263 1953)">Design Variations</text>
  <text style="stroke:none;fill:black;font-family:-apple-system,&quot;SF Pro Display&quot;,&quot;SF Pro Text&quot;,Helvetica,sans-serif;" transform="matrix(1 0 0 1 263 1971)">Symbols are supported in up to nine weights and three scales.</text>
  <text style="stroke:none;fill:black;font-family:-apple-system,&quot;SF Pro Display&quot;,&quot;SF Pro Text&quot;,Helvetica,sans-serif;" transform="matrix(1 0 0 1 263 1989)">For optimal layout with text and other symbols, vertically align</text>
  <text style="stroke:none;fill:black;font-family:-apple-system,&quot;SF Pro Display&quot;,&quot;SF Pro Text&quot;,Helvetica,sans-serif;" transform="matrix(1 0 0 1 263 2007)">symbols with the adjacent text.</text>
  <rect height="14" id="" style="fill:#00AEEF;stroke:none;opacity:0.4;" width="3" x="776" y="1919"/>
  <g id="" transform="matrix(1 0 0 1 779 1933)">
   <path d="M 10.5273 0 L 12.373 0 L 7.17773 -14.0918 L 5.43945 -14.0918 L 0.244141 0 L 2.08984 0 L 3.50586 -4.0332 L 9.11133 -4.0332 Z M 6.2793 -11.9531 L 6.33789 -11.9531 L 8.59375 -5.52734 L 4.02344 -5.52734 Z"/>
  </g>
  <rect height="14" id="" style="fill:#00AEEF;stroke:none;opacity:0.4;" width="3" x="791.617" y="1919"/>
  <text style="stroke:none;fill:black;font-family:-apple-system,&quot;SF Pro Display&quot;,&quot;SF Pro Text&quot;,Helvetica,sans-serif;font-weight:bold;" transform="matrix(1 0 0 1 776 1953)">Margins</text>
  <text style="stroke:none;fill:black;font-family:-apple-system,&quot;SF Pro Display&quot;,&quot;SF Pro Text&quot;,Helvetica,sans-serif;" transform="matrix(1 0 0 1 776 1971)">Leading and trailing margins on the left and right side of each symbol</text>
  <text style="stroke:none;fill:black;font-family:-apple-system,&quot;SF Pro Display&quot;,&quot;SF Pro Text&quot;,Helvetica,sans-serif;" transform="matrix(1 0 0 1 776 1989)">can be adjusted by modifying the width of the blue rectangles.</text>
  <text style="stroke:none;fill:black;font-family:-apple-system,&quot;SF Pro Display&quot;,&quot;SF Pro Text&quot;,Helvetica,sans-serif;" transform="matrix(1 0 0 1 776 2007)">Modifications are automatically applied proportionally to all</text>
  <text style="stroke:none;fill:black;font-family:-apple-system,&quot;SF Pro Display&quot;,&quot;SF Pro Text&quot;,Helvetica,sans-serif;" transform="matrix(1 0 0 1 776 2025)">scales and weights.</text>
  <g id="" transform="matrix(1 0 0 1 1289 1933)">
   <path d="M 2.83203 3.11523 L 4.375 4.6582 C 5.22461 5.48828 6.19141 5.41992 7.06055 4.46289 L 17.2754 -6.66016 C 17.7051 -6.36719 18.0957 -6.37695 18.5645 -6.47461 L 19.6094 -6.68945 L 20.3027 -5.99609 L 20.2539 -5.47852 C 20.1855 -4.95117 20.3516 -4.53125 20.8496 -4.0332 L 21.6602 -3.22266 C 22.168 -2.71484 22.8223 -2.68555 23.3008 -3.16406 L 26.5527 -6.41602 C 27.0312 -6.89453 27.0117 -7.54883 26.5039 -8.05664 L 25.6836 -8.87695 C 25.1855 -9.375 24.7754 -9.55078 24.2383 -9.47266 L 23.7109 -9.41406 L 23.0566 -10.0781 L 23.3398 -11.2207 C 23.4863 -11.7871 23.3398 -12.2559 22.7148 -12.8613 L 20.3027 -15.2539 C 16.7578 -18.7793 12.2266 -18.6719 9.11133 -15.5371 C 8.69141 -15.1074 8.64258 -14.5215 8.91602 -14.0918 C 9.15039 -13.7207 9.62891 -13.4961 10.2734 -13.6621 C 11.7871 -14.043 13.3008 -13.9258 14.7852 -12.9199 L 14.1602 -11.3379 C 13.9258 -10.752 13.9453 -10.2734 14.1797 -9.83398 L 3.01758 0.439453 C 2.08008 1.30859 1.97266 2.25586 2.83203 3.11523 Z M 10.6738 -15.1465 C 13.3398 -17.1387 16.6504 -16.8262 19.0527 -14.4141 L 21.6797 -11.8066 C 21.9141 -11.5723 21.9434 -11.3867 21.8848 -11.0938 L 21.5039 -9.53125 L 23.0762 -7.95898 L 24.043 -8.04688 C 24.3262 -8.07617 24.4141 -8.05664 24.6387 -7.83203 L 25.2637 -7.20703 L 22.5098 -4.46289 L 21.8848 -5.07812 C 21.6602 -5.30273 21.6406 -5.40039 21.6699 -5.68359 L 21.7578 -6.64062 L 20.1953 -8.20312 L 18.5742 -7.89062 C 18.291 -7.83203 18.1445 -7.83203 17.9102 -8.07617 L 15.7324 -10.2539 C 15.5078 -10.4883 15.4785 -10.625 15.6055 -10.9473 L 16.5527 -13.2227 C 14.9512 -14.7559 12.8418 -15.6055 10.8008 -14.9512 C 10.7129 -14.9219 10.6445 -14.9414 10.6152 -14.9805 C 10.5859 -15.0293 10.5859 -15.0781 10.6738 -15.1465 Z M 4.10156 2.41211 C 3.61328 1.91406 3.78906 1.61133 4.12109 1.30859 L 15.0781 -8.80859 L 16.3086 -7.57812 L 6.15234 3.34961 C 5.84961 3.68164 5.46875 3.7793 5.06836 3.37891 Z"/>
  </g>
  <text style="stroke:none;fill:black;font-family:-apple-system,&quot;SF Pro Display&quot;,&quot;SF Pro Text&quot;,Helvetica,sans-serif;font-weight:bold;" transform="matrix(1 0 0 1 1289 1953)">Exporting</text>
  <text style="stroke:none;fill:black;font-family:-apple-system,&quot;SF Pro Display&quot;,&quot;SF Pro Text&quot;,Helvetica,sans-serif;" transform="matrix(1 0 0 1 1289 1971)">Symbols should be outlined when exporting to ensure the</text>
  <text style="stroke:none;fill:black;font-family:-apple-system,&quot;SF Pro Display&quot;,&quot;SF Pro Text&quot;,Helvetica,sans-serif;" transform="matrix(1 0 0 1 1289 1989)">design is preserved when submitting to Xcode.</text>
  <text id="template-version" style="stroke:none;fill:black;font-family:-apple-system,&quot;SF Pro Display&quot;,&quot;SF Pro Text&quot;,Helvetica,sans-serif;text-anchor:end;" transform="matrix(1 0 0 1 3036 1933)">Template v.1.0</text>
  <text style="stroke:none;fill:black;font-family:-apple-system,&quot;SF Pro Display&quot;,&quot;SF Pro Text&quot;,Helvetica,sans-serif;text-anchor:end;" transform="matrix(1 0 0 1 3036 1951)">Generated from plus.square</text>
  <text style="stroke:none;fill:black;font-family:-apple-system,&quot;SF Pro Display&quot;,&quot;SF Pro Text&quot;,Helvetica,sans-serif;text-anchor:end;" transform="matrix(1 0 0 1 3036 1969)">Typeset at 100 points</text>
  <text style="stroke:none;fill:black;font-family:-apple-system,&quot;SF Pro Display&quot;,&quot;SF Pro Text&quot;,Helvetica,sans-serif;" transform="matrix(1 0 0 1 263 726)">Small</text>
  <text style="stroke:none;fill:black;font-family:-apple-system,&quot;SF Pro Display&quot;,&quot;SF Pro Text&quot;,Helvetica,sans-serif;" transform="matrix(1 0 0 1 263 1156)">Medium</text>
  <text style="stroke:none;fill:black;font-family:-apple-system,&quot;SF Pro Display&quot;,&quot;SF Pro Text&quot;,Helvetica,sans-serif;" transform="matrix(1 0 0 1 263 1586)">Large</text>
 </g>
 <g id="Guides">
  <g id="H-reference" style="fill:#27AAE1;stroke:none;" transform="matrix(1 0 0 1 339 696)">
   <path d="M 54.9316 0 L 57.666 0 L 30.5664 -70.459 L 28.0762 -70.459 L 0.976562 0 L 3.66211 0 L 12.9395 -24.4629 L 45.7031 -24.4629 Z M 29.1992 -67.0898 L 29.4434 -67.0898 L 44.8242 -26.709 L 13.8184 -26.709 Z"/>
  </g>
  <line id="Baseline-S" style="fill:none;stroke:#27AAE1;opacity:1;stroke-width:0.577;" x1="263" x2="3036" y1="696" y2="696"/>
  <line id="Capline-S" style="fill:none;stroke:#27AAE1;opacity:1;stroke-width:0.577;" x1="263" x2="3036" y1="625.541" y2="625.541"/>
  <g id="H-reference" style="fill:#27AAE1;stroke:none;" transform="matrix(1 0 0 1 339 1126)">
   <path d="M 54.9316 0 L 57.666 0 L 30.5664 -70.459 L 28.0762 -70.459 L 0.976562 0 L 3.66211 0 L 12.9395 -24.4629 L 45.7031 -24.4629 Z M 29.1992 -67.0898 L 29.4434 -67.0898 L 44.8242 -26.709 L 13.8184 -26.709 Z"/>
  </g>
  <line id="Baseline-M" style="fill:none;stroke:#27AAE1;opacity:1;stroke-width:0.577;" x1="263" x2="3036" y1="1126" y2="1126"/>
  <line id="Capline-M" style="fill:none;stroke:#27AAE1;opacity:1;stroke-width:0.577;" x1="263" x2="3036" y1="1055.54" y2="1055.54"/>
  <g id="H-reference" style="fill:#27AAE1;stroke:none;" transform="matrix(1 0 0 1 339 1556)">
   <path d="M 54.9316 0 L 57.666 0 L 30.5664 -70.459 L 28.0762 -70.459 L 0.976562 0 L 3.66211 0 L 12.9395 -24.4629 L 45.7031 -24.4629 Z M 29.1992 -67.0898 L 29.4434 -67.0898 L 44.8242 -26.709 L 13.8184 -26.709 Z"/>
  </g>
  <line id="Baseline-L" style="fill:none;stroke:#27AAE1;opacity:1;stroke-width:0.577;" x1="263" x2="3036" y1="1556" y2="1556"/>
  <line id="Capline-L" style="fill:none;stroke:#27AAE1;opacity:1;stroke-width:0.577;" x1="263" x2="3036" y1="1485.54" y2="1485.54"/>
  <rect height="119.336" id="left-margin" style="fill:#00AEEF;stroke:none;opacity:0.4;" width="12.4512" x="1392.45" y="1030.79"/>
  <rect height="119.336" id="right-margin" style="fill:#00AEEF;stroke:none;opacity:0.4;" width="12.4512" x="1494.79" y="1030.79"/>
 </g>
 <g id="Symbols">
  <g id="Black-L" transform="matrix(1 0 0 1 2855.62 1556)">
   <path d="M 39.9902 26.5137 L 115.576 26.5137 C 130.811 26.5137 139.502 17.8711 139.502 2.68555 L 139.502 -73.0957 C 139.502 -88.2812 130.811 -96.875 115.576 -96.875 L 39.9902 -96.875 C 24.7559 -96.875 16.0645 -88.2812 16.0645 -73.0957 L 16.0645 2.68555 C 16.0645 17.8711 24.7559 26.5137 39.9902 26.5137 Z M 42.6758 6.29883 C 38.4766 6.29883 36.3281 4.39453 36.3281 -0.146484 L 36.3281 -70.2148 C 36.3281 -74.7559 38.4766 -76.6602 42.6758 -76.6602 L 112.842 -76.6602 C 117.09 -76.6602 119.238 -74.7559 119.238 -70.2148 L 119.238 -0.146484 C 119.238 4.39453 117.09 6.29883 112.842 6.29883 Z M 77.7344 -5.61523 C 82.5195 -5.61523 85.9863 -9.0332 85.9863 -13.8184 L 85.9863 -26.9531 L 100.098 -26.9531 C 104.834 -26.9531 108.301 -30.3711 108.301 -35.1074 C 108.301 -39.9414 104.883 -43.3594 100.098 -43.3594 L 85.9863 -43.3594 L 85.9863 -56.8848 C 85.9863 -61.6699 82.5195 -65.1367 77.7344 -65.1367 C 72.9492 -65.1367 69.5801 -61.6211 69.5801 -56.8848 L 69.5801 -43.3594 L 55.4688 -43.3594 C 50.6836 -43.3594 47.2656 -39.9414 47.2656 -35.1074 C 47.2656 -30.3711 50.7324 -26.9531 55.4688 -26.9531 L 69.5801 -26.9531 L 69.5801 -13.8184 C 69.5801 -9.08203 72.9492 -5.61523 77.7344 -5.61523 Z"/>
  </g>
  <g id="Heavy-L" transform="matrix(1 0 0 1 2559.93 1556)">
   <path d="M 38.8184 25.4883 L 114.697 25.4883 C 129.346 25.4883 137.451 17.4316 137.451 2.88086 L 137.451 -73.2422 C 137.451 -87.793 129.346 -95.8496 114.697 -95.8496 L 38.8184 -95.8496 C 24.2188 -95.8496 16.0645 -87.793 16.0645 -73.2422 L 16.0645 2.88086 C 16.0645 17.4316 24.2188 25.4883 38.8184 25.4883 Z M 40.918 8.00781 C 36.084 8.00781 33.5938 5.71289 33.5938 0.585938 L 33.5938 -70.9473 C 33.5938 -76.0742 36.084 -78.3691 40.918 -78.3691 L 112.549 -78.3691 C 117.383 -78.3691 119.922 -76.0742 119.922 -70.9473 L 119.922 0.585938 C 119.922 5.71289 117.383 8.00781 112.549 8.00781 Z M 76.709 -5.56641 C 81.0547 -5.56641 84.082 -8.64258 84.082 -12.9883 L 84.082 -27.832 L 99.8535 -27.832 C 104.199 -27.832 107.324 -30.8105 107.324 -35.1562 C 107.324 -39.502 104.248 -42.4805 99.8535 -42.4805 L 84.082 -42.4805 L 84.082 -57.8613 C 84.082 -62.2559 81.0547 -65.332 76.709 -65.332 C 72.4121 -65.332 69.4336 -62.207 69.4336 -57.8613 L 69.4336 -42.4805 L 53.6621 -42.4805 C 49.2676 -42.4805 46.1914 -39.502 46.1914 -35.1562 C 46.1914 -30.8105 49.3652 -27.832 53.6621 -27.832 L 69.4336 -27.832 L 69.4336 -12.9883 C 69.4336 -8.69141 72.4121 -5.56641 76.709 -5.56641 Z"/>
  </g>
  <g id="Bold-L" transform="matrix(1 0 0 1 2264.37 1556)">
   <path d="M 37.5 24.3652 L 113.721 24.3652 C 127.637 24.3652 135.156 16.8945 135.156 3.07617 L 135.156 -73.3887 C 135.156 -87.207 127.637 -94.7266 113.721 -94.7266 L 37.5 -94.7266 C 23.6328 -94.7266 16.0645 -87.2559 16.0645 -73.3887 L 16.0645 3.07617 C 16.0645 16.8945 23.6328 24.3652 37.5 24.3652 Z M 38.9648 9.91211 C 33.4473 9.91211 30.5176 7.17773 30.5176 1.41602 L 30.5176 -71.7285 C 30.5176 -77.5391 33.4473 -80.2734 38.9648 -80.2734 L 112.256 -80.2734 C 117.725 -80.2734 120.703 -77.5391 120.703 -71.7285 L 120.703 1.41602 C 120.703 7.17773 117.725 9.91211 112.256 9.91211 Z M 75.5859 -5.46875 C 79.3945 -5.46875 81.9824 -8.20312 81.9824 -12.1094 L 81.9824 -28.8574 L 99.6094 -28.8574 C 103.467 -28.8574 106.25 -31.3477 106.25 -35.1562 C 106.25 -39.0137 103.564 -41.5527 99.6094 -41.5527 L 81.9824 -41.5527 L 81.9824 -58.9355 C 81.9824 -62.8906 79.3945 -65.5762 75.5859 -65.5762 C 71.7773 -65.5762 69.2383 -62.793 69.2383 -58.9355 L 69.2383 -41.5527 L 51.6602 -41.5527 C 47.7051 -41.5527 44.9707 -39.0137 44.9707 -35.1562 C 44.9707 -31.3477 47.8027 -28.8574 51.6602 -28.8574 L 69.2383 -28.8574 L 69.2383 -12.1094 C 69.2383 -8.25195 71.7773 -5.46875 75.5859 -5.46875 Z"/>
  </g>
  <g id="Semibold-L" transform="matrix(1 0 0 1 1968.44 1556)">
   <path d="M 36.6211 23.584 L 113.037 23.584 C 126.514 23.584 133.594 16.5039 133.594 3.17383 L 133.594 -73.5352 C 133.594 -86.8164 126.514 -93.9453 113.037 -93.9453 L 36.6211 -93.9453 C 23.1934 -93.9453 16.0645 -86.8652 16.0645 -73.5352 L 16.0645 3.17383 C 16.0645 16.5527 23.1934 23.584 36.6211 23.584 Z M 37.5977 11.2793 C 31.6406 11.2793 28.418 8.20312 28.418 1.95312 L 28.418 -72.3145 C 28.418 -78.5156 31.6406 -81.5918 37.5977 -81.5918 L 112.061 -81.5918 C 117.969 -81.5918 121.24 -78.5156 121.24 -72.3145 L 121.24 1.95312 C 121.24 8.20312 117.969 11.2793 112.061 11.2793 Z M 74.7559 -5.46875 C 78.2227 -5.46875 80.5176 -7.86133 80.5176 -11.4746 L 80.5176 -29.541 L 99.4629 -29.541 C 102.979 -29.541 105.518 -31.7383 105.518 -35.1562 C 105.518 -38.6719 103.076 -40.8691 99.4629 -40.8691 L 80.5176 -40.8691 L 80.5176 -59.7168 C 80.5176 -63.3301 78.2227 -65.7715 74.7559 -65.7715 C 71.3379 -65.7715 69.1406 -63.2324 69.1406 -59.7168 L 69.1406 -40.8691 L 50.2441 -40.8691 C 46.6309 -40.8691 44.1406 -38.6719 44.1406 -35.1562 C 44.1406 -31.7383 46.7285 -29.541 50.2441 -29.541 L 69.1406 -29.541 L 69.1406 -11.4746 C 69.1406 -7.95898 71.3379 -5.46875 74.7559 -5.46875 Z"/>
  </g>
  <g id="Medium-L" transform="matrix(1 0 0 1 1672.31 1556)">
   <path d="M 35.9375 22.998 L 112.5 22.998 C 125.635 22.998 132.422 16.2109 132.422 3.27148 L 132.422 -73.6328 C 132.422 -86.5234 125.635 -93.3105 112.5 -93.3105 L 35.9375 -93.3105 C 22.9004 -93.3105 16.0645 -86.5723 16.0645 -73.6328 L 16.0645 3.27148 C 16.0645 16.2598 22.9004 22.998 35.9375 22.998 Z M 36.5723 12.2559 C 30.2246 12.2559 26.8066 8.98438 26.8066 2.39258 L 26.8066 -72.7051 C 26.8066 -79.2969 30.2246 -82.6172 36.5723 -82.6172 L 111.865 -82.6172 C 118.115 -82.6172 121.68 -79.2969 121.68 -72.7051 L 121.68 2.39258 C 121.68 8.98438 118.115 12.2559 111.865 12.2559 Z M 74.1699 -5.41992 C 77.3926 -5.41992 79.3945 -7.61719 79.3945 -10.9863 L 79.3945 -30.0293 L 99.3164 -30.0293 C 102.588 -30.0293 104.932 -32.0312 104.932 -35.1562 C 104.932 -38.3789 102.734 -40.3809 99.3164 -40.3809 L 79.3945 -40.3809 L 79.3945 -60.2539 C 79.3945 -63.6719 77.3926 -65.8691 74.1699 -65.8691 C 70.9961 -65.8691 69.043 -63.5742 69.043 -60.2539 L 69.043 -40.3809 L 49.1699 -40.3809 C 45.8008 -40.3809 43.5059 -38.3789 43.5059 -35.1562 C 43.5059 -32.0312 45.8984 -30.0293 49.1699 -30.0293 L 69.043 -30.0293 L 69.043 -10.9863 C 69.043 -7.71484 70.9961 -5.41992 74.1699 -5.41992 Z"/>
  </g>
  <g id="Regular-L" transform="matrix(1 0 0 1 1376.38 1556)">
   <path d="M 35.0586 22.2168 L 111.816 22.2168 C 124.463 22.2168 130.859 15.8691 130.859 3.41797 L 130.859 -73.7305 C 130.859 -86.1816 124.463 -92.5293 111.816 -92.5293 L 35.0586 -92.5293 C 22.4609 -92.5293 16.0645 -86.2305 16.0645 -73.7305 L 16.0645 3.41797 C 16.0645 15.918 22.4609 22.2168 35.0586 22.2168 Z M 35.2539 13.5742 C 28.418 13.5742 24.707 9.96094 24.707 2.97852 L 24.707 -73.291 C 24.707 -80.2734 28.418 -83.8867 35.2539 -83.8867 L 111.67 -83.8867 C 118.359 -83.8867 122.217 -80.2734 122.217 -73.291 L 122.217 2.97852 C 122.217 9.96094 118.359 13.5742 111.67 13.5742 Z M 73.3887 -5.37109 C 76.2695 -5.37109 77.9785 -7.32422 77.9785 -10.4004 L 77.9785 -30.7129 L 99.1699 -30.7129 C 102.1 -30.7129 104.199 -32.373 104.199 -35.1562 C 104.199 -38.0371 102.246 -39.7461 99.1699 -39.7461 L 77.9785 -39.7461 L 77.9785 -60.9863 C 77.9785 -64.0625 76.2695 -66.0645 73.3887 -66.0645 C 70.5566 -66.0645 68.9453 -63.9648 68.9453 -60.9863 L 68.9453 -39.7461 L 47.8027 -39.7461 C 44.7266 -39.7461 42.6758 -38.0371 42.6758 -35.1562 C 42.6758 -32.373 44.8242 -30.7129 47.8027 -30.7129 L 68.9453 -30.7129 L 68.9453 -10.4004 C 68.9453 -7.42188 70.5566 -5.37109 73.3887 -5.37109 Z"/>
  </g>
  <g id="Light-L" transform="matrix(1 0 0 1 1080.5 1556)">
   <path d="M 34.0332 21.4355 L 111.23 21.4355 C 123.096 21.4355 129.199 15.2344 129.199 3.56445 L 129.199 -73.8281 C 129.199 -85.5469 123.096 -91.6992 111.23 -91.6992 L 34.0332 -91.6992 C 22.168 -91.6992 16.0645 -85.6445 16.0645 -73.8281 L 16.0645 3.56445 C 16.0645 15.3809 22.168 21.4355 34.0332 21.4355 Z M 34.1797 14.7949 C 26.709 14.7949 22.7051 10.8398 22.7051 3.22266 L 22.7051 -73.4863 C 22.7051 -81.1523 26.709 -85.0586 34.1797 -85.0586 L 111.035 -85.0586 C 118.359 -85.0586 122.559 -81.1523 122.559 -73.4863 L 122.559 3.22266 C 122.559 10.8398 118.359 14.7949 111.035 14.7949 Z M 72.5586 -5.32227 C 74.7559 -5.32227 76.0742 -6.83594 76.0742 -9.08203 L 76.0742 -31.7871 L 99.2676 -31.7871 C 101.465 -31.7871 103.076 -33.1055 103.076 -35.1562 C 103.076 -37.3047 101.562 -38.6719 99.2676 -38.6719 L 76.0742 -38.6719 L 76.0742 -61.9141 C 76.0742 -64.209 74.7559 -65.6738 72.5586 -65.6738 C 70.459 -65.6738 69.1895 -64.1113 69.1895 -61.9141 L 69.1895 -38.6719 L 45.9961 -38.6719 C 43.7012 -38.6719 42.1875 -37.3047 42.1875 -35.1562 C 42.1875 -33.1055 43.7988 -31.7871 45.9961 -31.7871 L 69.1895 -31.7871 L 69.1895 -9.08203 C 69.1895 -6.88477 70.459 -5.32227 72.5586 -5.32227 Z"/>
  </g>
  <g id="Thin-L" transform="matrix(1 0 0 1 784.889 1556)">
   <path d="M 32.666 20.3613 L 110.352 20.3613 C 121.24 20.3613 127.002 14.4531 127.002 3.75977 L 127.002 -73.9746 C 127.002 -84.7168 121.24 -90.5762 110.352 -90.5762 L 32.666 -90.5762 C 21.7773 -90.5762 16.0645 -84.8633 16.0645 -73.9746 L 16.0645 3.75977 C 16.0645 14.6484 21.7773 20.3613 32.666 20.3613 Z M 32.8125 16.4062 C 24.4141 16.4062 19.9707 12.0117 19.9707 3.56445 L 19.9707 -73.7793 C 19.9707 -82.2754 24.4141 -86.6699 32.8125 -86.6699 L 110.205 -86.6699 C 118.359 -86.6699 123.047 -82.2754 123.047 -73.7793 L 123.047 3.56445 C 123.047 12.0117 118.359 16.4062 110.205 16.4062 Z M 71.4355 -5.27344 C 72.7051 -5.27344 73.584 -6.15234 73.584 -7.32422 L 73.584 -33.1543 L 99.4141 -33.1543 C 100.586 -33.1543 101.562 -34.0332 101.562 -35.1074 C 101.562 -36.3281 100.684 -37.2559 99.4141 -37.2559 L 73.584 -37.2559 L 73.584 -63.0859 C 73.584 -64.3555 72.7051 -65.2344 71.4355 -65.2344 C 70.3125 -65.2344 69.4824 -64.3066 69.4824 -63.0859 L 69.4824 -37.2559 L 43.6523 -37.2559 C 42.3828 -37.2559 41.5039 -36.3281 41.5039 -35.1074 C 41.5039 -34.0332 42.4805 -33.1543 43.6523 -33.1543 L 69.4824 -33.1543 L 69.4824 -7.32422 C 69.4824 -6.20117 70.3125 -5.27344 71.4355 -5.27344 Z"/>
  </g>
  <g id="Ultralight-L" transform="matrix(1 0 0 1 488.739 1556)">
   <path d="M 31.9824 19.7754 L 109.961 19.7754 C 120.312 19.7754 125.879 14.0625 125.879 3.85742 L 125.879 -74.0723 C 125.879 -84.2773 120.312 -89.9902 109.961 -89.9902 L 31.9824 -89.9902 C 21.582 -89.9902 16.0645 -84.4727 16.0645 -74.0723 L 16.0645 3.85742 C 16.0645 14.2578 21.582 19.7754 31.9824 19.7754 Z M 32.1289 17.2363 C 23.1934 17.2363 18.6035 12.6465 18.6035 3.75977 L 18.6035 -73.9258 C 18.6035 -82.8125 23.1934 -87.4512 32.1289 -87.4512 L 109.766 -87.4512 C 118.359 -87.4512 123.291 -82.8125 123.291 -73.9258 L 123.291 3.75977 C 123.291 12.6465 118.359 17.2363 109.766 17.2363 Z M 70.8984 -5.27344 C 71.6797 -5.27344 72.3145 -5.81055 72.3145 -6.44531 L 72.3145 -33.8379 L 99.5117 -33.8379 C 100.146 -33.8379 100.781 -34.5215 100.781 -35.1074 C 100.781 -35.8398 100.195 -36.5234 99.5117 -36.5234 L 72.3145 -36.5234 L 72.3145 -63.7207 C 72.3145 -64.4043 71.6797 -64.9902 70.8984 -64.9902 C 70.2148 -64.9902 69.6289 -64.4531 69.6289 -63.7207 L 69.6289 -36.5234 L 42.4316 -36.5234 C 41.6992 -36.5234 41.1621 -35.8398 41.1621 -35.1074 C 41.1621 -34.5215 41.7969 -33.8379 42.4316 -33.8379 L 69.6289 -33.8379 L 69.6289 -6.44531 C 69.6289 -5.81055 70.2148 -5.27344 70.8984 -5.27344 Z"/>
  </g>
  <g id="Black-M" transform="matrix(1 0 0 1 2872.19 1126)">
   <path d="M 31.9824 13.5742 L 90.4297 13.5742 C 102.686 13.5742 109.961 6.29883 109.961 -5.95703 L 109.961 -64.4043 C 109.961 -76.6602 102.686 -83.9355 90.4297 -83.9355 L 31.9824 -83.9355 C 19.7266 -83.9355 12.4512 -76.6602 12.4512 -64.4043 L 12.4512 -5.95703 C 12.4512 6.29883 19.7266 13.5742 31.9824 13.5742 Z M 34.9121 -4.73633 C 32.0801 -4.73633 30.7617 -5.81055 30.7617 -8.88672 L 30.7617 -61.4746 C 30.7617 -64.5508 32.0801 -65.6738 34.9121 -65.6738 L 87.5 -65.6738 C 90.332 -65.6738 91.6504 -64.5508 91.6504 -61.4746 L 91.6504 -8.88672 C 91.6504 -5.81055 90.332 -4.73633 87.5 -4.73633 Z M 61.1816 -12.3535 C 65.1367 -12.3535 68.1641 -15.2344 68.1641 -19.043 L 68.1641 -28.1738 L 77.9297 -28.1738 C 81.7383 -28.1738 84.6191 -31.2012 84.6191 -35.1562 C 84.6191 -39.0625 81.7383 -42.0898 77.9297 -42.0898 L 68.1641 -42.0898 L 68.1641 -51.2207 C 68.1641 -55.0293 65.1367 -57.9102 61.1816 -57.9102 C 57.2754 -57.9102 54.248 -55.0293 54.248 -51.2207 L 54.248 -42.0898 L 44.4824 -42.0898 C 40.6738 -42.0898 37.793 -39.0625 37.793 -35.1562 C 37.793 -31.2012 40.6738 -28.1738 44.4824 -28.1738 L 54.248 -28.1738 L 54.248 -19.043 C 54.248 -15.2344 57.2754 -12.3535 61.1816 -12.3535 Z"/>
  </g>
  <g id="Heavy-M" transform="matrix(1 0 0 1 2576.39 1126)">
   <path d="M 31.0059 12.6465 L 89.6484 12.6465 C 101.416 12.6465 108.154 5.9082 108.154 -5.81055 L 108.154 -64.5508 C 108.154 -76.2695 101.416 -83.0566 89.6484 -83.0566 L 31.0059 -83.0566 C 19.2383 -83.0566 12.4512 -76.3184 12.4512 -64.5508 L 12.4512 -5.81055 C 12.4512 5.9082 19.2383 12.6465 31.0059 12.6465 Z M 33.252 -3.17383 C 29.9316 -3.17383 28.2715 -4.63867 28.2715 -8.1543 L 28.2715 -62.207 C 28.2715 -65.7715 29.9316 -67.2363 33.252 -67.2363 L 87.3535 -67.2363 C 90.6738 -67.2363 92.334 -65.7715 92.334 -62.207 L 92.334 -8.1543 C 92.334 -4.63867 90.6738 -3.17383 87.3535 -3.17383 Z M 60.3027 -12.2559 C 63.916 -12.2559 66.6016 -14.8926 66.6016 -18.5059 L 66.6016 -28.8574 L 77.6367 -28.8574 C 81.2012 -28.8574 83.8379 -31.543 83.8379 -35.1562 C 83.8379 -38.7695 81.25 -41.4551 77.6367 -41.4551 L 66.6016 -41.4551 L 66.6016 -52.0508 C 66.6016 -55.6152 63.916 -58.252 60.3027 -58.252 C 56.6895 -58.252 54.0039 -55.6152 54.0039 -52.0508 L 54.0039 -41.4551 L 42.9688 -41.4551 C 39.4043 -41.4551 36.7676 -38.7695 36.7676 -35.1562 C 36.7676 -31.543 39.4043 -28.8574 42.9688 -28.8574 L 54.0039 -28.8574 L 54.0039 -18.5059 C 54.0039 -14.9414 56.6895 -12.2559 60.3027 -12.2559 Z"/>
  </g>
  <g id="Bold-M" transform="matrix(1 0 0 1 2280.68 1126)">
   <path d="M 29.8828 11.6699 L 88.7207 11.6699 C 99.9512 11.6699 106.152 5.46875 106.152 -5.66406 L 106.152 -64.6973 C 106.152 -75.8789 99.9512 -82.0312 88.7207 -82.0312 L 29.8828 -82.0312 C 18.6523 -82.0312 12.4512 -75.8789 12.4512 -64.6973 L 12.4512 -5.66406 C 12.4512 5.51758 18.6523 11.6699 29.8828 11.6699 Z M 31.3965 -1.41602 C 27.5391 -1.41602 25.5371 -3.27148 25.5371 -7.32422 L 25.5371 -63.0371 C 25.5371 -67.1387 27.5391 -68.9453 31.3965 -68.9453 L 87.207 -68.9453 C 91.0156 -68.9453 93.0664 -67.1387 93.0664 -63.0371 L 93.0664 -7.32422 C 93.0664 -3.27148 91.0156 -1.41602 87.207 -1.41602 Z M 59.2773 -12.207 C 62.5488 -12.207 64.8438 -14.5508 64.8438 -17.8711 L 64.8438 -29.6387 L 77.3438 -29.6387 C 80.6152 -29.6387 83.0078 -31.8848 83.0078 -35.1562 C 83.0078 -38.4766 80.6641 -40.7227 77.3438 -40.7227 L 64.8438 -40.7227 L 64.8438 -52.9297 C 64.8438 -56.2988 62.5488 -58.5938 59.2773 -58.5938 C 56.0059 -58.5938 53.7598 -56.25 53.7598 -52.9297 L 53.7598 -40.7227 L 41.2598 -40.7227 C 37.9395 -40.7227 35.5957 -38.4766 35.5957 -35.1562 C 35.5957 -31.8848 37.9883 -29.6387 41.2598 -29.6387 L 53.7598 -29.6387 L 53.7598 -17.8711 C 53.7598 -14.5996 56.0059 -12.207 59.2773 -12.207 Z"/>
  </g>
  <g id="Semibold-M" transform="matrix(1 0 0 1 1984.65 1126)">
   <path d="M 29.1016 10.9863 L 88.0859 10.9863 C 98.9746 10.9863 104.785 5.17578 104.785 -5.56641 L 104.785 -64.8438 C 104.785 -75.5859 98.9746 -81.3477 88.0859 -81.3477 L 29.1016 -81.3477 C 18.2617 -81.3477 12.4512 -75.5859 12.4512 -64.8438 L 12.4512 -5.56641 C 12.4512 5.22461 18.2617 10.9863 29.1016 10.9863 Z M 30.127 -0.195312 C 25.8789 -0.195312 23.6328 -2.34375 23.6328 -6.78711 L 23.6328 -63.623 C 23.6328 -68.0664 25.8789 -70.166 30.127 -70.166 L 87.1094 -70.166 C 91.2598 -70.166 93.6035 -68.0664 93.6035 -63.623 L 93.6035 -6.78711 C 93.6035 -2.34375 91.2598 -0.195312 87.1094 -0.195312 Z M 58.5449 -12.1582 C 61.6211 -12.1582 63.623 -14.3066 63.623 -17.4805 L 63.623 -30.2246 L 77.1484 -30.2246 C 80.2246 -30.2246 82.4219 -32.1777 82.4219 -35.1562 C 82.4219 -38.2324 80.3223 -40.2344 77.1484 -40.2344 L 63.623 -40.2344 L 63.623 -53.5645 C 63.623 -56.7383 61.6211 -58.8867 58.5449 -58.8867 C 55.5664 -58.8867 53.6133 -56.6895 53.6133 -53.5645 L 53.6133 -40.2344 L 40.0879 -40.2344 C 36.9629 -40.2344 34.7656 -38.2324 34.7656 -35.1562 C 34.7656 -32.1777 37.0117 -30.2246 40.0879 -30.2246 L 53.6133 -30.2246 L 53.6133 -17.4805 C 53.6133 -14.3555 55.5664 -12.1582 58.5449 -12.1582 Z"/>
  </g>
  <g id="Medium-M" transform="matrix(1 0 0 1 1688.47 1126)">
   <path d="M 28.5156 10.4492 L 87.6465 10.4492 C 98.2422 10.4492 103.711 4.98047 103.711 -5.46875 L 103.711 -64.8926 C 103.711 -75.3418 98.2422 -80.8105 87.6465 -80.8105 L 28.5156 -80.8105 C 17.9688 -80.8105 12.4512 -75.3906 12.4512 -64.8926 L 12.4512 -5.46875 C 12.4512 4.98047 17.9688 10.4492 28.5156 10.4492 Z M 29.1504 0.732422 C 24.6582 0.732422 22.168 -1.61133 22.168 -6.34766 L 22.168 -64.0137 C 22.168 -68.75 24.6582 -71.0938 29.1504 -71.0938 L 87.0117 -71.0938 C 91.4551 -71.0938 93.9941 -68.75 93.9941 -64.0137 L 93.9941 -6.34766 C 93.9941 -1.61133 91.4551 0.732422 87.0117 0.732422 Z M 58.0566 -12.1582 C 60.8887 -12.1582 62.6953 -14.1113 62.6953 -17.1387 L 62.6953 -30.6152 L 77.002 -30.6152 C 79.9316 -30.6152 81.9824 -32.373 81.9824 -35.1562 C 81.9824 -38.0371 80.0293 -39.8438 77.002 -39.8438 L 62.6953 -39.8438 L 62.6953 -54.0527 C 62.6953 -57.0801 60.8887 -59.0332 58.0566 -59.0332 C 55.2246 -59.0332 53.4668 -56.9824 53.4668 -54.0527 L 53.4668 -39.8438 L 39.209 -39.8438 C 36.1816 -39.8438 34.1797 -38.0371 34.1797 -35.1562 C 34.1797 -32.373 36.2793 -30.6152 39.209 -30.6152 L 53.4668 -30.6152 L 53.4668 -17.1387 C 53.4668 -14.209 55.2246 -12.1582 58.0566 -12.1582 Z"/>
  </g>
  <g id="Regular-M" transform="matrix(1 0 0 1 1392.45 1126)">
   <path d="M 27.7832 9.76562 L 87.0117 9.76562 C 97.2656 9.76562 102.344 4.6875 102.344 -5.37109 L 102.344 -64.9902 C 102.344 -75.0488 97.2656 -80.127 87.0117 -80.127 L 27.7832 -80.127 C 17.5781 -80.127 12.4512 -75.0977 12.4512 -64.9902 L 12.4512 -5.37109 C 12.4512 4.73633 17.5781 9.76562 27.7832 9.76562 Z M 27.8809 1.9043 C 22.998 1.9043 20.3125 -0.683594 20.3125 -5.76172 L 20.3125 -64.5996 C 20.3125 -69.6777 22.998 -72.2656 27.8809 -72.2656 L 86.9141 -72.2656 C 91.748 -72.2656 94.4824 -69.6777 94.4824 -64.5996 L 94.4824 -5.76172 C 94.4824 -0.683594 91.748 1.9043 86.9141 1.9043 Z M 57.3242 -12.1094 C 59.9609 -12.1094 61.4746 -13.916 61.4746 -16.748 L 61.4746 -31.1523 L 76.8066 -31.1523 C 79.541 -31.1523 81.3965 -32.6172 81.3965 -35.2051 C 81.3965 -37.8418 79.6387 -39.3555 76.8066 -39.3555 L 61.4746 -39.3555 L 61.4746 -54.6875 C 61.4746 -57.5195 59.9609 -59.3262 57.3242 -59.3262 C 54.7363 -59.3262 53.3203 -57.4219 53.3203 -54.6875 L 53.3203 -39.3555 L 38.0859 -39.3555 C 35.2051 -39.3555 33.3984 -37.8418 33.3984 -35.2051 C 33.3984 -32.6172 35.3516 -31.1523 38.0859 -31.1523 L 53.3203 -31.1523 L 53.3203 -16.748 C 53.3203 -14.0137 54.7363 -12.1094 57.3242 -12.1094 Z"/>
  </g>
  <g id="Light-M" transform="matrix(1 0 0 1 1096.47 1126)">
   <path d="M 26.8555 9.0332 L 86.4746 9.0332 C 95.9961 9.0332 100.879 4.15039 100.879 -5.22461 L 100.879 -65.0879 C 100.879 -74.5117 95.9961 -79.3945 86.4746 -79.3945 L 26.8555 -79.3945 C 17.334 -79.3945 12.4512 -74.5605 12.4512 -65.0879 L 12.4512 -5.22461 C 12.4512 4.19922 17.334 9.0332 26.8555 9.0332 Z M 26.9531 2.97852 C 21.4844 2.97852 18.5059 0.0976562 18.5059 -5.56641 L 18.5059 -64.7949 C 18.5059 -70.4102 21.4844 -73.3398 26.9531 -73.3398 L 86.3281 -73.3398 C 91.748 -73.3398 94.8242 -70.4102 94.8242 -64.7949 L 94.8242 -5.56641 C 94.8242 0.0976562 91.748 2.97852 86.3281 2.97852 Z M 56.5918 -12.0605 C 58.5938 -12.0605 59.8145 -13.4277 59.8145 -15.5273 L 59.8145 -32.0801 L 76.9043 -32.0801 C 78.9062 -32.0801 80.3711 -33.252 80.3711 -35.1562 C 80.3711 -37.1582 79.0039 -38.3789 76.9043 -38.3789 L 59.8145 -38.3789 L 59.8145 -55.5176 C 59.8145 -57.6172 58.5938 -58.9844 56.5918 -58.9844 C 54.6387 -58.9844 53.5156 -57.5684 53.5156 -55.5176 L 53.5156 -38.3789 L 36.4746 -38.3789 C 34.3262 -38.3789 32.9102 -37.1582 32.9102 -35.1562 C 32.9102 -33.252 34.4238 -32.0801 36.4746 -32.0801 L 53.5156 -32.0801 L 53.5156 -15.5273 C 53.5156 -13.5254 54.6387 -12.0605 56.5918 -12.0605 Z"/>
  </g>
  <g id="Thin-M" transform="matrix(1 0 0 1 800.758 1126)">
   <path d="M 25.6348 8.05664 L 85.7422 8.05664 C 94.3848 8.05664 98.877 3.4668 98.877 -5.0293 L 98.877 -65.2344 C 98.877 -73.7305 94.3848 -78.3691 85.7422 -78.3691 L 25.6348 -78.3691 C 16.9922 -78.3691 12.4512 -73.877 12.4512 -65.2344 L 12.4512 -5.0293 C 12.4512 3.56445 16.9922 8.05664 25.6348 8.05664 Z M 25.7324 4.44336 C 19.3848 4.44336 16.0645 1.12305 16.0645 -5.22461 L 16.0645 -65.0391 C 16.0645 -71.4355 19.3848 -74.7559 25.7324 -74.7559 L 85.5957 -74.7559 C 91.748 -74.7559 95.2637 -71.4355 95.2637 -65.0391 L 95.2637 -5.22461 C 95.2637 1.12305 91.748 4.44336 85.5957 4.44336 Z M 55.6152 -12.0117 C 56.7871 -12.0117 57.5684 -12.8418 57.5684 -14.0137 L 57.5684 -33.3008 L 77.002 -33.3008 C 78.125 -33.3008 79.0527 -34.1309 79.0527 -35.1562 C 79.0527 -36.2793 78.2227 -37.1094 77.002 -37.1094 L 57.5684 -37.1094 L 57.5684 -56.5918 C 57.5684 -57.7637 56.7871 -58.5938 55.6152 -58.5938 C 54.541 -58.5938 53.7598 -57.7637 53.7598 -56.5918 L 53.7598 -37.1094 L 34.3262 -37.1094 C 33.1543 -37.1094 32.3242 -36.2793 32.3242 -35.1562 C 32.3242 -34.1309 33.2031 -33.3008 34.3262 -33.3008 L 53.7598 -33.3008 L 53.7598 -14.0137 C 53.7598 -12.8906 54.541 -12.0117 55.6152 -12.0117 Z"/>
  </g>
  <g id="Ultralight-M" transform="matrix(1 0 0 1 504.535 1126)">
   <path d="M 25 7.56836 L 85.3516 7.56836 C 93.5059 7.56836 97.9004 3.125 97.9004 -4.98047 L 97.9004 -65.2832 C 97.9004 -73.3887 93.5059 -77.832 85.3516 -77.832 L 25 -77.832 C 16.7969 -77.832 12.4512 -73.4863 12.4512 -65.2832 L 12.4512 -4.98047 C 12.4512 3.22266 16.7969 7.56836 25 7.56836 Z M 25.0977 5.17578 C 18.3594 5.17578 14.8438 1.66016 14.8438 -5.07812 L 14.8438 -65.1855 C 14.8438 -71.9727 18.3594 -75.4395 25.0977 -75.4395 L 85.2051 -75.4395 C 91.748 -75.4395 95.5078 -71.9727 95.5078 -65.1855 L 95.5078 -5.07812 C 95.5078 1.66016 91.748 5.17578 85.2051 5.17578 Z M 55.0781 -12.0117 C 55.8594 -12.0117 56.4453 -12.5488 56.4453 -13.1836 L 56.4453 -33.9355 L 77.0996 -33.9355 C 77.7344 -33.9355 78.3203 -34.5703 78.3203 -35.1562 C 78.3203 -35.8398 77.7832 -36.4746 77.0996 -36.4746 L 56.4453 -36.4746 L 56.4453 -57.1289 C 56.4453 -57.8125 55.8594 -58.3496 55.0781 -58.3496 C 54.4434 -58.3496 53.9062 -57.8125 53.9062 -57.1289 L 53.9062 -36.4746 L 33.252 -36.4746 C 32.5195 -36.4746 31.9824 -35.8398 31.9824 -35.1562 C 31.9824 -34.5703 32.6172 -33.9355 33.252 -33.9355 L 53.9062 -33.9355 L 53.9062 -13.1836 C 53.9062 -12.5488 54.4434 -12.0117 55.0781 -12.0117 Z"/>
  </g>
  <g id="Black-S" transform="matrix(1 0 0 1 2885.5 696)">
   <path d="M 25 2.92969 L 70.8008 2.92969 C 80.3711 2.92969 86.0352 -2.73438 86.0352 -12.3047 L 86.0352 -58.1055 C 86.0352 -67.6758 80.3711 -73.3398 70.8008 -73.3398 L 25 -73.3398 C 15.4297 -73.3398 9.76562 -67.6758 9.76562 -58.1055 L 9.76562 -12.3047 C 9.76562 -2.73438 15.4297 2.92969 25 2.92969 Z M 27.2461 -11.2305 C 25 -11.2305 23.9258 -12.1094 23.9258 -14.5508 L 23.9258 -55.8594 C 23.9258 -58.3008 25 -59.1797 27.2461 -59.1797 L 68.5547 -59.1797 C 70.8008 -59.1797 71.875 -58.3008 71.875 -55.8594 L 71.875 -14.5508 C 71.875 -12.1094 70.8008 -11.2305 68.5547 -11.2305 Z M 47.9004 -17.2852 C 50.9766 -17.2852 53.3203 -19.5312 53.3203 -22.5098 L 53.3203 -29.7363 L 61.0352 -29.7363 C 64.0137 -29.7363 66.2598 -32.0801 66.2598 -35.1562 C 66.2598 -38.2324 64.0137 -40.5762 61.0352 -40.5762 L 53.3203 -40.5762 L 53.3203 -47.8027 C 53.3203 -50.7812 50.9766 -53.0273 47.9004 -53.0273 C 44.8242 -53.0273 42.4805 -50.7812 42.4805 -47.8027 L 42.4805 -40.5762 L 34.7656 -40.5762 C 31.7871 -40.5762 29.541 -38.2324 29.541 -35.1562 C 29.541 -32.0801 31.7871 -29.7363 34.7656 -29.7363 L 42.4805 -29.7363 L 42.4805 -22.5098 C 42.4805 -19.5312 44.8242 -17.2852 47.9004 -17.2852 Z"/>
  </g>
  <g id="Heavy-S" transform="matrix(1 0 0 1 2589.4 696)">
   <path d="M 24.3652 2.34375 L 70.2637 2.34375 C 79.541 2.34375 84.8145 -2.97852 84.8145 -12.207 L 84.8145 -58.2031 C 84.8145 -67.4316 79.541 -72.7539 70.2637 -72.7539 L 24.3652 -72.7539 C 15.0879 -72.7539 9.76562 -67.4316 9.76562 -58.2031 L 9.76562 -12.207 C 9.76562 -2.97852 15.0879 2.34375 24.3652 2.34375 Z M 26.0742 -10.1562 C 23.5352 -10.1562 22.2656 -11.2793 22.2656 -14.0137 L 22.2656 -56.3965 C 22.2656 -59.1309 23.5352 -60.2539 26.0742 -60.2539 L 68.5059 -60.2539 C 71.0449 -60.2539 72.3633 -59.1309 72.3633 -56.3965 L 72.3633 -14.0137 C 72.3633 -11.2793 71.0449 -10.1562 68.5059 -10.1562 Z M 47.2656 -17.2363 C 50.1953 -17.2363 52.2949 -19.3359 52.2949 -22.2168 L 52.2949 -30.1758 L 60.8398 -30.1758 C 63.6719 -30.1758 65.7715 -32.2754 65.7715 -35.1562 C 65.7715 -38.0859 63.7207 -40.1855 60.8398 -40.1855 L 52.2949 -40.1855 L 52.2949 -48.3398 C 52.2949 -51.2207 50.1953 -53.3203 47.2656 -53.3203 C 44.3848 -53.3203 42.2852 -51.2207 42.2852 -48.3398 L 42.2852 -40.1855 L 33.7891 -40.1855 C 30.9082 -40.1855 28.8086 -38.0859 28.8086 -35.1562 C 28.8086 -32.2754 30.9082 -30.1758 33.7891 -30.1758 L 42.2852 -30.1758 L 42.2852 -22.2168 C 42.2852 -19.3848 44.3848 -17.2363 47.2656 -17.2363 Z"/>
  </g>
  <g id="Bold-S" transform="matrix(1 0 0 1 2293.35 696)">
   <path d="M 23.6328 1.66016 L 69.6289 1.66016 C 78.6133 1.66016 83.4961 -3.22266 83.4961 -12.1094 L 83.4961 -58.3008 C 83.4961 -67.1875 78.6133 -72.0703 69.6289 -72.0703 L 23.6328 -72.0703 C 14.6973 -72.0703 9.76562 -67.1875 9.76562 -58.3008 L 9.76562 -12.1094 C 9.76562 -3.22266 14.6973 1.66016 23.6328 1.66016 Z M 24.8047 -8.93555 C 21.9238 -8.93555 20.3613 -10.3516 20.3613 -13.4277 L 20.3613 -56.9824 C 20.3613 -60.0586 21.9238 -61.4746 24.8047 -61.4746 L 68.457 -61.4746 C 71.3379 -61.4746 72.9004 -60.0586 72.9004 -56.9824 L 72.9004 -13.4277 C 72.9004 -10.3516 71.3379 -8.93555 68.457 -8.93555 Z M 46.582 -17.1875 C 49.3164 -17.1875 51.1719 -19.1406 51.1719 -21.9238 L 51.1719 -30.6641 L 60.5957 -30.6641 C 63.3301 -30.6641 65.2832 -32.4707 65.2832 -35.1562 C 65.2832 -37.8906 63.3789 -39.7461 60.5957 -39.7461 L 51.1719 -39.7461 L 51.1719 -48.9258 C 51.1719 -51.709 49.3164 -53.6621 46.582 -53.6621 C 43.8965 -53.6621 42.0898 -51.6602 42.0898 -48.9258 L 42.0898 -39.7461 L 32.666 -39.7461 C 29.9316 -39.7461 27.9785 -37.8906 27.9785 -35.1562 C 27.9785 -32.4707 29.9805 -30.6641 32.666 -30.6641 L 42.0898 -30.6641 L 42.0898 -21.9238 C 42.0898 -19.1895 43.8965 -17.1875 46.582 -17.1875 Z"/>
  </g>
  <g id="Semibold-S" transform="matrix(1 0 0 1 1997.1 696)">
   <path d="M 23.0957 1.17188 L 69.1895 1.17188 C 77.9297 1.17188 82.5684 -3.36914 82.5684 -12.0117 L 82.5684 -58.3984 C 82.5684 -67.041 77.9297 -71.582 69.1895 -71.582 L 23.0957 -71.582 C 14.4043 -71.582 9.76562 -67.041 9.76562 -58.3984 L 9.76562 -12.0117 C 9.76562 -3.36914 14.4043 1.17188 23.0957 1.17188 Z M 23.877 -8.10547 C 20.752 -8.10547 19.0918 -9.7168 19.0918 -12.9883 L 19.0918 -57.4219 C 19.0918 -60.6934 20.752 -62.3047 23.877 -62.3047 L 68.4082 -62.3047 C 71.5332 -62.3047 73.2422 -60.6934 73.2422 -57.4219 L 73.2422 -12.9883 C 73.2422 -9.7168 71.5332 -8.10547 68.4082 -8.10547 Z M 46.1426 -17.1875 C 48.6816 -17.1875 50.3906 -18.9941 50.3906 -21.6797 L 50.3906 -31.0059 L 60.4004 -31.0059 C 63.0371 -31.0059 64.9414 -32.6172 64.9414 -35.2051 C 64.9414 -37.793 63.1348 -39.4531 60.4004 -39.4531 L 50.3906 -39.4531 L 50.3906 -49.3652 C 50.3906 -52.0508 48.6816 -53.8574 46.1426 -53.8574 C 43.5547 -53.8574 41.9434 -52.002 41.9434 -49.3652 L 41.9434 -39.4531 L 31.9336 -39.4531 C 29.248 -39.4531 27.3926 -37.793 27.3926 -35.2051 C 27.3926 -32.6172 29.2969 -31.0059 31.9336 -31.0059 L 41.9434 -31.0059 L 41.9434 -21.6797 C 41.9434 -19.043 43.5547 -17.1875 46.1426 -17.1875 Z"/>
  </g>
  <g id="Medium-S" transform="matrix(1 0 0 1 1700.75 696)">
   <path d="M 22.7051 0.830078 L 68.8965 0.830078 C 77.4414 0.830078 81.8359 -3.51562 81.8359 -11.9629 L 81.8359 -58.4473 C 81.8359 -66.8945 77.4414 -71.2402 68.8965 -71.2402 L 22.7051 -71.2402 C 14.209 -71.2402 9.76562 -66.8945 9.76562 -58.4473 L 9.76562 -11.9629 C 9.76562 -3.51562 14.209 0.830078 22.7051 0.830078 Z M 23.1934 -7.4707 C 19.9219 -7.4707 18.0664 -9.22852 18.0664 -12.6953 L 18.0664 -57.7148 C 18.0664 -61.1816 19.9219 -62.9395 23.1934 -62.9395 L 68.4082 -62.9395 C 71.6797 -62.9395 73.5352 -61.1816 73.5352 -57.7148 L 73.5352 -12.6953 C 73.5352 -9.22852 71.6797 -7.4707 68.4082 -7.4707 Z M 45.752 -17.1387 C 48.2422 -17.1387 49.8047 -18.8965 49.8047 -21.5332 L 49.8047 -31.25 L 60.3027 -31.25 C 62.8418 -31.25 64.6484 -32.7148 64.6484 -35.2051 C 64.6484 -37.6953 62.9395 -39.209 60.3027 -39.209 L 49.8047 -39.209 L 49.8047 -49.6582 C 49.8047 -52.2949 48.2422 -54.0527 45.752 -54.0527 C 43.3105 -54.0527 41.8457 -52.2461 41.8457 -49.6582 L 41.8457 -39.209 L 31.3477 -39.209 C 28.7109 -39.209 26.9531 -37.6953 26.9531 -35.2051 C 26.9531 -32.7148 28.8086 -31.25 31.3477 -31.25 L 41.8457 -31.25 L 41.8457 -21.5332 C 41.8457 -18.9453 43.3105 -17.1387 45.752 -17.1387 Z"/>
  </g>
  <g id="Regular-S" transform="matrix(1 0 0 1 1404.51 696)">
   <path d="M 22.2168 0.390625 L 68.457 0.390625 C 76.8066 0.390625 80.9082 -3.71094 80.9082 -11.9141 L 80.9082 -58.4961 C 80.9082 -66.6992 76.8066 -70.8008 68.457 -70.8008 L 22.2168 -70.8008 C 13.916 -70.8008 9.76562 -66.6992 9.76562 -58.4961 L 9.76562 -11.9141 C 9.76562 -3.71094 13.916 0.390625 22.2168 0.390625 Z M 22.3145 -6.68945 C 18.7988 -6.68945 16.7969 -8.54492 16.7969 -12.2559 L 16.7969 -58.1543 C 16.7969 -61.8164 18.7988 -63.7207 22.3145 -63.7207 L 68.3594 -63.7207 C 71.875 -63.7207 73.877 -61.8164 73.877 -58.1543 L 73.877 -12.2559 C 73.877 -8.54492 71.875 -6.68945 68.3594 -6.68945 Z M 45.3125 -17.1387 C 47.6562 -17.1387 49.0234 -18.75 49.0234 -21.2891 L 49.0234 -31.5918 L 60.1074 -31.5918 C 62.5977 -31.5918 64.3066 -32.8613 64.3066 -35.2051 C 64.3066 -37.5977 62.6953 -38.916 60.1074 -38.916 L 49.0234 -38.916 L 49.0234 -50.0977 C 49.0234 -52.6367 47.6562 -54.248 45.3125 -54.248 C 42.9688 -54.248 41.6992 -52.5391 41.6992 -50.0977 L 41.6992 -38.916 L 30.6152 -38.916 C 28.0273 -38.916 26.416 -37.5977 26.416 -35.2051 C 26.416 -32.8613 28.125 -31.5918 30.6152 -31.5918 L 41.6992 -31.5918 L 41.6992 -21.2891 C 41.6992 -18.7988 42.9688 -17.1387 45.3125 -17.1387 Z"/>
  </g>
  <g id="Light-S" transform="matrix(1 0 0 1 1108.46 696)">
   <path d="M 21.3867 -0.292969 L 67.9688 -0.292969 C 75.7324 -0.292969 79.5898 -4.15039 79.5898 -11.7676 L 79.5898 -58.5938 C 79.5898 -66.2109 75.7324 -70.1172 67.9688 -70.1172 L 21.3867 -70.1172 C 13.6719 -70.1172 9.76562 -66.2598 9.76562 -58.5938 L 9.76562 -11.7676 C 9.76562 -4.15039 13.6719 -0.292969 21.3867 -0.292969 Z M 21.4844 -5.71289 C 17.4316 -5.71289 15.1855 -7.86133 15.1855 -12.0605 L 15.1855 -58.3008 C 15.1855 -62.5 17.4316 -64.6973 21.4844 -64.6973 L 67.8711 -64.6973 C 71.875 -64.6973 74.1699 -62.5 74.1699 -58.3008 L 74.1699 -12.0605 C 74.1699 -7.86133 71.875 -5.71289 67.8711 -5.71289 Z M 44.6289 -17.0898 C 46.4355 -17.0898 47.5098 -18.3105 47.5098 -20.2637 L 47.5098 -32.4219 L 60.2051 -32.4219 C 62.0605 -32.4219 63.3789 -33.4473 63.3789 -35.2051 C 63.3789 -37.0117 62.1582 -38.0859 60.2051 -38.0859 L 47.5098 -38.0859 L 47.5098 -50.7812 C 47.5098 -52.7344 46.4355 -53.9551 44.6289 -53.9551 C 42.8711 -53.9551 41.8457 -52.6855 41.8457 -50.7812 L 41.8457 -38.0859 L 29.1992 -38.0859 C 27.2461 -38.0859 25.9766 -37.0117 25.9766 -35.2051 C 25.9766 -33.4473 27.3438 -32.4219 29.1992 -32.4219 L 41.8457 -32.4219 L 41.8457 -20.2637 C 41.8457 -18.4082 42.8711 -17.0898 44.6289 -17.0898 Z"/>
  </g>
  <g id="Thin-S" transform="matrix(1 0 0 1 812.599 696)">
   <path d="M 20.3125 -1.12305 L 67.334 -1.12305 C 74.2676 -1.12305 77.8809 -4.78516 77.8809 -11.6211 L 77.8809 -58.6914 C 77.8809 -65.5762 74.2676 -69.2383 67.334 -69.2383 L 20.3125 -69.2383 C 13.3789 -69.2383 9.76562 -65.625 9.76562 -58.6914 L 9.76562 -11.6211 C 9.76562 -4.6875 13.3789 -1.12305 20.3125 -1.12305 Z M 20.4102 -4.44336 C 15.625 -4.44336 13.0859 -6.93359 13.0859 -11.8164 L 13.0859 -58.5449 C 13.0859 -63.3789 15.625 -65.918 20.4102 -65.918 L 67.2363 -65.918 C 71.875 -65.918 74.5605 -63.3789 74.5605 -58.5449 L 74.5605 -11.8164 C 74.5605 -6.93359 71.875 -4.44336 67.2363 -4.44336 Z M 43.75 -17.0898 C 44.873 -17.0898 45.5566 -17.8223 45.5566 -18.8965 L 45.5566 -33.4961 L 60.3027 -33.4961 C 61.377 -33.4961 62.207 -34.1797 62.207 -35.1562 C 62.207 -36.2305 61.4258 -36.9629 60.3027 -36.9629 L 45.5566 -36.9629 L 45.5566 -51.7578 C 45.5566 -52.832 44.873 -53.6133 43.75 -53.6133 C 42.7734 -53.6133 42.0898 -52.832 42.0898 -51.7578 L 42.0898 -36.9629 L 27.2949 -36.9629 C 26.2207 -36.9629 25.4395 -36.2305 25.4395 -35.1562 C 25.4395 -34.1797 26.2695 -33.4961 27.2949 -33.4961 L 42.0898 -33.4961 L 42.0898 -18.8965 C 42.0898 -17.8223 42.7734 -17.0898 43.75 -17.0898 Z"/>
  </g>
  <g id="Ultralight-S" transform="matrix(1 0 0 1 516.352 696)">
   <path d="M 19.7754 -1.5625 L 66.9922 -1.5625 C 73.5352 -1.5625 76.9531 -5.12695 76.9531 -11.5234 L 76.9531 -58.7891 C 76.9531 -65.2344 73.5352 -68.75 66.9922 -68.75 L 19.7754 -68.75 C 13.2324 -68.75 9.76562 -65.2832 9.76562 -58.7891 L 9.76562 -11.5234 C 9.76562 -5.0293 13.2324 -1.5625 19.7754 -1.5625 Z M 19.873 -3.75977 C 14.6484 -3.75977 11.9629 -6.44531 11.9629 -11.6699 L 11.9629 -58.6426 C 11.9629 -63.8672 14.6484 -66.5527 19.873 -66.5527 L 66.8945 -66.5527 C 71.875 -66.5527 74.7559 -63.8672 74.7559 -58.6426 L 74.7559 -11.6699 C 74.7559 -6.44531 71.875 -3.75977 66.8945 -3.75977 Z M 43.3105 -17.041 C 44.043 -17.041 44.5312 -17.5293 44.5312 -18.1641 L 44.5312 -34.0332 L 60.4004 -34.0332 C 61.0352 -34.0332 61.5723 -34.5703 61.5723 -35.1562 C 61.5723 -35.8398 61.084 -36.377 60.4004 -36.377 L 44.5312 -36.377 L 44.5312 -52.2461 C 44.5312 -52.9297 44.043 -53.418 43.3105 -53.418 C 42.6758 -53.418 42.1875 -52.9297 42.1875 -52.2461 L 42.1875 -36.377 L 26.3672 -36.377 C 25.6836 -36.377 25.1465 -35.8398 25.1465 -35.1562 C 25.1465 -34.5703 25.7324 -34.0332 26.3672 -34.0332 L 42.1875 -34.0332 L 42.1875 -18.1641 C 42.1875 -17.5293 42.6758 -17.041 43.3105 -17.041 Z"/>
  </g>
 </g>
</svg>
