<?xml version="1.0" encoding="UTF-8"?>
<!--Generator: Apple Native CoreSVG 123-->
<!DOCTYPE svg
PUBLIC "-//W3C//DTD SVG 1.1//EN"
       "http://www.w3.org/Graphics/SVG/1.1/DTD/svg11.dtd">
<svg version="1.1" xmlns="http://www.w3.org/2000/svg" xmlns:xlink="http://www.w3.org/1999/xlink" width="3300" height="2200">
 <!--glyph: "uni100687.medium", point size: 100.000000, font version: "Version 15.0d7e11", template writer version: "5"-->
 <g id="Notes">
  <rect height="2200" id="artboard" style="fill:white;opacity:1" width="3300" x="0" y="0"/>
  <line id="" style="fill:none;stroke:black;opacity:1;stroke-width:0.5;" x1="263" x2="3036" y1="292" y2="292"/>
  <text style="stroke:none;fill:black;font-family:-apple-system,&quot;SF Pro Display&quot;,&quot;SF Pro Text&quot;,Helvetica,sans-serif;font-weight:bold;" transform="matrix(1 0 0 1 263 322)">Weight/Scale Variations</text>
  <text style="stroke:none;fill:black;font-family:-apple-system,&quot;SF Pro Display&quot;,&quot;SF Pro Text&quot;,Helvetica,sans-serif;text-anchor:middle;" transform="matrix(1 0 0 1 559.711 322)">Ultralight</text>
  <text style="stroke:none;fill:black;font-family:-apple-system,&quot;SF Pro Display&quot;,&quot;SF Pro Text&quot;,Helvetica,sans-serif;text-anchor:middle;" transform="matrix(1 0 0 1 856.422 322)">Thin</text>
  <text style="stroke:none;fill:black;font-family:-apple-system,&quot;SF Pro Display&quot;,&quot;SF Pro Text&quot;,Helvetica,sans-serif;text-anchor:middle;" transform="matrix(1 0 0 1 1153.13 322)">Light</text>
  <text style="stroke:none;fill:black;font-family:-apple-system,&quot;SF Pro Display&quot;,&quot;SF Pro Text&quot;,Helvetica,sans-serif;text-anchor:middle;" transform="matrix(1 0 0 1 1449.84 322)">Regular</text>
  <text style="stroke:none;fill:black;font-family:-apple-system,&quot;SF Pro Display&quot;,&quot;SF Pro Text&quot;,Helvetica,sans-serif;text-anchor:middle;" transform="matrix(1 0 0 1 1746.56 322)">Medium</text>
  <text style="stroke:none;fill:black;font-family:-apple-system,&quot;SF Pro Display&quot;,&quot;SF Pro Text&quot;,Helvetica,sans-serif;text-anchor:middle;" transform="matrix(1 0 0 1 2043.27 322)">Semibold</text>
  <text style="stroke:none;fill:black;font-family:-apple-system,&quot;SF Pro Display&quot;,&quot;SF Pro Text&quot;,Helvetica,sans-serif;text-anchor:middle;" transform="matrix(1 0 0 1 2339.98 322)">Bold</text>
  <text style="stroke:none;fill:black;font-family:-apple-system,&quot;SF Pro Display&quot;,&quot;SF Pro Text&quot;,Helvetica,sans-serif;text-anchor:middle;" transform="matrix(1 0 0 1 2636.69 322)">Heavy</text>
  <text style="stroke:none;fill:black;font-family:-apple-system,&quot;SF Pro Display&quot;,&quot;SF Pro Text&quot;,Helvetica,sans-serif;text-anchor:middle;" transform="matrix(1 0 0 1 2933.4 322)">Black</text>
  <line id="" style="fill:none;stroke:black;opacity:1;stroke-width:0.5;" x1="263" x2="3036" y1="1903" y2="1903"/>
  <g id="" transform="matrix(1 0 0 1 263 1933)">
   <path d="M 9.24805 0.830078 C 13.5547 0.830078 17.1387 -2.74414 17.1387 -7.05078 C 17.1387 -11.3574 13.5449 -14.9316 9.23828 -14.9316 C 4.94141 -14.9316 1.36719 -11.3574 1.36719 -7.05078 C 1.36719 -2.74414 4.95117 0.830078 9.24805 0.830078 Z M 9.24805 -0.654297 C 5.70312 -0.654297 2.87109 -3.49609 2.87109 -7.05078 C 2.87109 -10.6055 5.69336 -13.4473 9.23828 -13.4473 C 12.793 -13.4473 15.6348 -10.6055 15.6445 -7.05078 C 15.6543 -3.49609 12.8027 -0.654297 9.24805 -0.654297 Z M 9.22852 -3.42773 C 9.69727 -3.42773 9.9707 -3.74023 9.9707 -4.25781 L 9.9707 -6.31836 L 12.1973 -6.31836 C 12.6953 -6.31836 13.0371 -6.57227 13.0371 -7.04102 C 13.0371 -7.51953 12.7148 -7.7832 12.1973 -7.7832 L 9.9707 -7.7832 L 9.9707 -10.0098 C 9.9707 -10.5273 9.69727 -10.8496 9.22852 -10.8496 C 8.75977 -10.8496 8.50586 -10.5078 8.50586 -10.0098 L 8.50586 -7.7832 L 6.29883 -7.7832 C 5.78125 -7.7832 5.44922 -7.51953 5.44922 -7.04102 C 5.44922 -6.57227 5.80078 -6.31836 6.29883 -6.31836 L 8.50586 -6.31836 L 8.50586 -4.25781 C 8.50586 -3.75977 8.75977 -3.42773 9.22852 -3.42773 Z"/>
  </g>
  <g id="" transform="matrix(1 0 0 1 281.506 1933)">
   <path d="M 11.709 2.91016 C 17.1582 2.91016 21.6699 -1.60156 21.6699 -7.05078 C 21.6699 -12.4902 17.1484 -17.0117 11.6992 -17.0117 C 6.25977 -17.0117 1.74805 -12.4902 1.74805 -7.05078 C 1.74805 -1.60156 6.26953 2.91016 11.709 2.91016 Z M 11.709 1.25 C 7.09961 1.25 3.41797 -2.44141 3.41797 -7.05078 C 3.41797 -11.6504 7.08984 -15.3516 11.6992 -15.3516 C 16.3086 -15.3516 20 -11.6504 20.0098 -7.05078 C 20.0195 -2.44141 16.3184 1.25 11.709 1.25 Z M 11.6895 -2.41211 C 12.207 -2.41211 12.5195 -2.77344 12.5195 -3.33984 L 12.5195 -6.23047 L 15.5762 -6.23047 C 16.123 -6.23047 16.5039 -6.51367 16.5039 -7.03125 C 16.5039 -7.55859 16.1426 -7.86133 15.5762 -7.86133 L 12.5195 -7.86133 L 12.5195 -10.9277 C 12.5195 -11.5039 12.207 -11.8555 11.6895 -11.8555 C 11.1719 -11.8555 10.8789 -11.4844 10.8789 -10.9277 L 10.8789 -7.86133 L 7.83203 -7.86133 C 7.26562 -7.86133 6.89453 -7.55859 6.89453 -7.03125 C 6.89453 -6.51367 7.28516 -6.23047 7.83203 -6.23047 L 10.8789 -6.23047 L 10.8789 -3.33984 C 10.8789 -2.79297 11.1719 -2.41211 11.6895 -2.41211 Z"/>
  </g>
  <g id="" transform="matrix(1 0 0 1 304.924 1933)">
   <path d="M 14.9707 5.67383 C 21.9336 5.67383 27.6953 -0.078125 27.6953 -7.04102 C 27.6953 -14.0039 21.9238 -19.7559 14.9609 -19.7559 C 8.00781 -19.7559 2.25586 -14.0039 2.25586 -7.04102 C 2.25586 -0.078125 8.01758 5.67383 14.9707 5.67383 Z M 14.9707 3.85742 C 8.93555 3.85742 4.08203 -1.00586 4.08203 -7.04102 C 4.08203 -13.0762 8.92578 -17.9395 14.9609 -17.9395 C 21.0059 -17.9395 25.8594 -13.0762 25.8691 -7.04102 C 25.8789 -1.00586 21.0156 3.85742 14.9707 3.85742 Z M 14.9512 -1.06445 C 15.5176 -1.06445 15.8691 -1.45508 15.8691 -2.06055 L 15.8691 -6.13281 L 20.1074 -6.13281 C 20.6934 -6.13281 21.1133 -6.46484 21.1133 -7.02148 C 21.1133 -7.59766 20.7227 -7.93945 20.1074 -7.93945 L 15.8691 -7.93945 L 15.8691 -12.1875 C 15.8691 -12.8027 15.5176 -13.1934 14.9512 -13.1934 C 14.3848 -13.1934 14.0625 -12.7832 14.0625 -12.1875 L 14.0625 -7.93945 L 9.83398 -7.93945 C 9.21875 -7.93945 8.80859 -7.59766 8.80859 -7.02148 C 8.80859 -6.46484 9.23828 -6.13281 9.83398 -6.13281 L 14.0625 -6.13281 L 14.0625 -2.06055 C 14.0625 -1.47461 14.3848 -1.06445 14.9512 -1.06445 Z"/>
  </g>
  <text style="stroke:none;fill:black;font-family:-apple-system,&quot;SF Pro Display&quot;,&quot;SF Pro Text&quot;,Helvetica,sans-serif;font-weight:bold;" transform="matrix(1 0 0 1 263 1953)">Design Variations</text>
  <text style="stroke:none;fill:black;font-family:-apple-system,&quot;SF Pro Display&quot;,&quot;SF Pro Text&quot;,Helvetica,sans-serif;" transform="matrix(1 0 0 1 263 1971)">Symbols are supported in up to nine weights and three scales.</text>
  <text style="stroke:none;fill:black;font-family:-apple-system,&quot;SF Pro Display&quot;,&quot;SF Pro Text&quot;,Helvetica,sans-serif;" transform="matrix(1 0 0 1 263 1989)">For optimal layout with text and other symbols, vertically align</text>
  <text style="stroke:none;fill:black;font-family:-apple-system,&quot;SF Pro Display&quot;,&quot;SF Pro Text&quot;,Helvetica,sans-serif;" transform="matrix(1 0 0 1 263 2007)">symbols with the adjacent text.</text>
  <rect height="14" id="" style="fill:#00AEEF;stroke:none;opacity:0.4;" width="3" x="776" y="1919"/>
  <g id="" transform="matrix(1 0 0 1 779 1933)">
   <path d="M 10.5273 0 L 12.373 0 L 7.17773 -14.0918 L 5.43945 -14.0918 L 0.244141 0 L 2.08984 0 L 3.50586 -4.0332 L 9.11133 -4.0332 Z M 6.2793 -11.9531 L 6.33789 -11.9531 L 8.59375 -5.52734 L 4.02344 -5.52734 Z"/>
  </g>
  <rect height="14" id="" style="fill:#00AEEF;stroke:none;opacity:0.4;" width="3" x="791.617" y="1919"/>
  <text style="stroke:none;fill:black;font-family:-apple-system,&quot;SF Pro Display&quot;,&quot;SF Pro Text&quot;,Helvetica,sans-serif;font-weight:bold;" transform="matrix(1 0 0 1 776 1953)">Margins</text>
  <text style="stroke:none;fill:black;font-family:-apple-system,&quot;SF Pro Display&quot;,&quot;SF Pro Text&quot;,Helvetica,sans-serif;" transform="matrix(1 0 0 1 776 1971)">Leading and trailing margins on the left and right side of each symbol</text>
  <text style="stroke:none;fill:black;font-family:-apple-system,&quot;SF Pro Display&quot;,&quot;SF Pro Text&quot;,Helvetica,sans-serif;" transform="matrix(1 0 0 1 776 1989)">can be adjusted by modifying the width of the blue rectangles.</text>
  <text style="stroke:none;fill:black;font-family:-apple-system,&quot;SF Pro Display&quot;,&quot;SF Pro Text&quot;,Helvetica,sans-serif;" transform="matrix(1 0 0 1 776 2007)">Modifications are automatically applied proportionally to all</text>
  <text style="stroke:none;fill:black;font-family:-apple-system,&quot;SF Pro Display&quot;,&quot;SF Pro Text&quot;,Helvetica,sans-serif;" transform="matrix(1 0 0 1 776 2025)">scales and weights.</text>
  <g id="" transform="matrix(1 0 0 1 1289 1933)">
   <path d="M 2.83203 3.11523 L 4.375 4.6582 C 5.22461 5.48828 6.19141 5.41992 7.06055 4.46289 L 17.2754 -6.66016 C 17.7051 -6.36719 18.0957 -6.37695 18.5645 -6.47461 L 19.6094 -6.68945 L 20.3027 -5.99609 L 20.2539 -5.47852 C 20.1855 -4.95117 20.3516 -4.53125 20.8496 -4.0332 L 21.6602 -3.22266 C 22.168 -2.71484 22.8223 -2.68555 23.3008 -3.16406 L 26.5527 -6.41602 C 27.0312 -6.89453 27.0117 -7.54883 26.5039 -8.05664 L 25.6836 -8.87695 C 25.1855 -9.375 24.7754 -9.55078 24.2383 -9.47266 L 23.7109 -9.41406 L 23.0566 -10.0781 L 23.3398 -11.2207 C 23.4863 -11.7871 23.3398 -12.2559 22.7148 -12.8613 L 20.3027 -15.2539 C 16.7578 -18.7793 12.2266 -18.6719 9.11133 -15.5371 C 8.69141 -15.1074 8.64258 -14.5215 8.91602 -14.0918 C 9.15039 -13.7207 9.62891 -13.4961 10.2734 -13.6621 C 11.7871 -14.043 13.3008 -13.9258 14.7852 -12.9199 L 14.1602 -11.3379 C 13.9258 -10.752 13.9453 -10.2734 14.1797 -9.83398 L 3.01758 0.439453 C 2.08008 1.30859 1.97266 2.25586 2.83203 3.11523 Z M 10.6738 -15.1465 C 13.3398 -17.1387 16.6504 -16.8262 19.0527 -14.4141 L 21.6797 -11.8066 C 21.9141 -11.5723 21.9434 -11.3867 21.8848 -11.0938 L 21.5039 -9.53125 L 23.0762 -7.95898 L 24.043 -8.04688 C 24.3262 -8.07617 24.4141 -8.05664 24.6387 -7.83203 L 25.2637 -7.20703 L 22.5098 -4.46289 L 21.8848 -5.07812 C 21.6602 -5.30273 21.6406 -5.40039 21.6699 -5.68359 L 21.7578 -6.64062 L 20.1953 -8.20312 L 18.5742 -7.89062 C 18.291 -7.83203 18.1445 -7.83203 17.9102 -8.07617 L 15.7324 -10.2539 C 15.5078 -10.4883 15.4785 -10.625 15.6055 -10.9473 L 16.5527 -13.2227 C 14.9512 -14.7559 12.8418 -15.6055 10.8008 -14.9512 C 10.7129 -14.9219 10.6445 -14.9414 10.6152 -14.9805 C 10.5859 -15.0293 10.5859 -15.0781 10.6738 -15.1465 Z M 4.10156 2.41211 C 3.61328 1.91406 3.78906 1.61133 4.12109 1.30859 L 15.0781 -8.80859 L 16.3086 -7.57812 L 6.15234 3.34961 C 5.84961 3.68164 5.46875 3.7793 5.06836 3.37891 Z"/>
  </g>
  <text style="stroke:none;fill:black;font-family:-apple-system,&quot;SF Pro Display&quot;,&quot;SF Pro Text&quot;,Helvetica,sans-serif;font-weight:bold;" transform="matrix(1 0 0 1 1289 1953)">Exporting</text>
  <text style="stroke:none;fill:black;font-family:-apple-system,&quot;SF Pro Display&quot;,&quot;SF Pro Text&quot;,Helvetica,sans-serif;" transform="matrix(1 0 0 1 1289 1971)">Symbols should be outlined when exporting to ensure the</text>
  <text style="stroke:none;fill:black;font-family:-apple-system,&quot;SF Pro Display&quot;,&quot;SF Pro Text&quot;,Helvetica,sans-serif;" transform="matrix(1 0 0 1 1289 1989)">design is preserved when submitting to Xcode.</text>
  <text id="template-version" style="stroke:none;fill:black;font-family:-apple-system,&quot;SF Pro Display&quot;,&quot;SF Pro Text&quot;,Helvetica,sans-serif;text-anchor:end;" transform="matrix(1 0 0 1 3036 1933)">Template v.1.0</text>
  <text style="stroke:none;fill:black;font-family:-apple-system,&quot;SF Pro Display&quot;,&quot;SF Pro Text&quot;,Helvetica,sans-serif;text-anchor:end;" transform="matrix(1 0 0 1 3036 1951)">Generated from square.grid.3x2.fill</text>
  <text style="stroke:none;fill:black;font-family:-apple-system,&quot;SF Pro Display&quot;,&quot;SF Pro Text&quot;,Helvetica,sans-serif;text-anchor:end;" transform="matrix(1 0 0 1 3036 1969)">Typeset at 100 points</text>
  <text style="stroke:none;fill:black;font-family:-apple-system,&quot;SF Pro Display&quot;,&quot;SF Pro Text&quot;,Helvetica,sans-serif;" transform="matrix(1 0 0 1 263 726)">Small</text>
  <text style="stroke:none;fill:black;font-family:-apple-system,&quot;SF Pro Display&quot;,&quot;SF Pro Text&quot;,Helvetica,sans-serif;" transform="matrix(1 0 0 1 263 1156)">Medium</text>
  <text style="stroke:none;fill:black;font-family:-apple-system,&quot;SF Pro Display&quot;,&quot;SF Pro Text&quot;,Helvetica,sans-serif;" transform="matrix(1 0 0 1 263 1586)">Large</text>
 </g>
 <g id="Guides">
  <g id="H-reference" style="fill:#27AAE1;stroke:none;" transform="matrix(1 0 0 1 339 696)">
   <path d="M 54.9316 0 L 57.666 0 L 30.5664 -70.459 L 28.0762 -70.459 L 0.976562 0 L 3.66211 0 L 12.9395 -24.4629 L 45.7031 -24.4629 Z M 29.1992 -67.0898 L 29.4434 -67.0898 L 44.8242 -26.709 L 13.8184 -26.709 Z"/>
  </g>
  <line id="Baseline-S" style="fill:none;stroke:#27AAE1;opacity:1;stroke-width:0.577;" x1="263" x2="3036" y1="696" y2="696"/>
  <line id="Capline-S" style="fill:none;stroke:#27AAE1;opacity:1;stroke-width:0.577;" x1="263" x2="3036" y1="625.541" y2="625.541"/>
  <g id="H-reference" style="fill:#27AAE1;stroke:none;" transform="matrix(1 0 0 1 339 1126)">
   <path d="M 54.9316 0 L 57.666 0 L 30.5664 -70.459 L 28.0762 -70.459 L 0.976562 0 L 3.66211 0 L 12.9395 -24.4629 L 45.7031 -24.4629 Z M 29.1992 -67.0898 L 29.4434 -67.0898 L 44.8242 -26.709 L 13.8184 -26.709 Z"/>
  </g>
  <line id="Baseline-M" style="fill:none;stroke:#27AAE1;opacity:1;stroke-width:0.577;" x1="263" x2="3036" y1="1126" y2="1126"/>
  <line id="Capline-M" style="fill:none;stroke:#27AAE1;opacity:1;stroke-width:0.577;" x1="263" x2="3036" y1="1055.54" y2="1055.54"/>
  <g id="H-reference" style="fill:#27AAE1;stroke:none;" transform="matrix(1 0 0 1 339 1556)">
   <path d="M 54.9316 0 L 57.666 0 L 30.5664 -70.459 L 28.0762 -70.459 L 0.976562 0 L 3.66211 0 L 12.9395 -24.4629 L 45.7031 -24.4629 Z M 29.1992 -67.0898 L 29.4434 -67.0898 L 44.8242 -26.709 L 13.8184 -26.709 Z"/>
  </g>
  <line id="Baseline-L" style="fill:none;stroke:#27AAE1;opacity:1;stroke-width:0.577;" x1="263" x2="3036" y1="1556" y2="1556"/>
  <line id="Capline-L" style="fill:none;stroke:#27AAE1;opacity:1;stroke-width:0.577;" x1="263" x2="3036" y1="1485.54" y2="1485.54"/>
  <rect height="119.336" id="left-margin" style="fill:#00AEEF;stroke:none;opacity:0.4;" width="12.4512" x="1367.94" y="1030.79"/>
  <rect height="119.336" id="right-margin" style="fill:#00AEEF;stroke:none;opacity:0.4;" width="12.4512" x="1519.3" y="1030.79"/>
 </g>
 <g id="Symbols">
  <g id="Black-L" transform="matrix(1 0 0 1 2822.83 1556)">
   <path d="M 34.9609 -39.1113 L 54.9805 -39.1113 C 67.8711 -39.1113 73.877 -45.0684 73.877 -58.0566 L 73.877 -77.9297 C 73.877 -90.918 67.8711 -96.875 54.9805 -96.875 L 34.9609 -96.875 C 22.0215 -96.875 16.0645 -90.918 16.0645 -77.9297 L 16.0645 -58.0566 C 16.0645 -45.0684 22.0215 -39.1113 34.9609 -39.1113 Z M 100.537 -39.1113 L 120.605 -39.1113 C 133.496 -39.1113 139.502 -45.0684 139.502 -58.0566 L 139.502 -77.9297 C 139.502 -90.918 133.496 -96.875 120.605 -96.875 L 100.537 -96.875 C 87.6465 -96.875 81.6895 -90.918 81.6895 -77.9297 L 81.6895 -58.0566 C 81.6895 -45.0684 87.6465 -39.1113 100.537 -39.1113 Z M 166.162 -39.1113 L 186.182 -39.1113 C 199.121 -39.1113 205.078 -45.0684 205.078 -58.0566 L 205.078 -77.9297 C 205.078 -90.918 199.121 -96.875 186.182 -96.875 L 166.162 -96.875 C 153.271 -96.875 147.266 -90.918 147.266 -77.9297 L 147.266 -58.0566 C 147.266 -45.0684 153.271 -39.1113 166.162 -39.1113 Z M 34.9609 26.5137 L 54.9805 26.5137 C 67.8711 26.5137 73.877 20.5078 73.877 7.51953 L 73.877 -12.3047 C 73.877 -25.293 67.8711 -31.2988 54.9805 -31.2988 L 34.9609 -31.2988 C 22.0215 -31.2988 16.0645 -25.293 16.0645 -12.3047 L 16.0645 7.51953 C 16.0645 20.5078 22.0215 26.5137 34.9609 26.5137 Z M 100.537 26.5137 L 120.605 26.5137 C 133.496 26.5137 139.502 20.5078 139.502 7.51953 L 139.502 -12.3047 C 139.502 -25.293 133.496 -31.2988 120.605 -31.2988 L 100.537 -31.2988 C 87.6465 -31.2988 81.6895 -25.293 81.6895 -12.3047 L 81.6895 7.51953 C 81.6895 20.5078 87.6465 26.5137 100.537 26.5137 Z M 166.162 26.5137 L 186.182 26.5137 C 199.121 26.5137 205.078 20.5078 205.078 7.51953 L 205.078 -12.3047 C 205.078 -25.293 199.121 -31.2988 186.182 -31.2988 L 166.162 -31.2988 C 153.271 -31.2988 147.266 -25.293 147.266 -12.3047 L 147.266 7.51953 C 147.266 20.5078 153.271 26.5137 166.162 26.5137 Z"/>
  </g>
  <g id="Heavy-L" transform="matrix(1 0 0 1 2527.46 1556)">
   <path d="M 33.1543 -39.4043 L 55.4199 -39.4043 C 67.041 -39.4043 72.5098 -44.873 72.5098 -56.5918 L 72.5098 -78.6621 C 72.5098 -90.4297 67.041 -95.8496 55.4199 -95.8496 L 33.1543 -95.8496 C 21.5332 -95.8496 16.0645 -90.4297 16.0645 -78.6621 L 16.0645 -56.5918 C 16.0645 -44.873 21.5332 -39.4043 33.1543 -39.4043 Z M 98.0957 -39.4043 L 120.361 -39.4043 C 131.982 -39.4043 137.451 -44.873 137.451 -56.5918 L 137.451 -78.6621 C 137.451 -90.4297 131.982 -95.8496 120.361 -95.8496 L 98.0957 -95.8496 C 86.4746 -95.8496 81.0059 -90.4297 81.0059 -78.6621 L 81.0059 -56.5918 C 81.0059 -44.873 86.4746 -39.4043 98.0957 -39.4043 Z M 162.988 -39.4043 L 185.303 -39.4043 C 196.924 -39.4043 202.393 -44.873 202.393 -56.5918 L 202.393 -78.6621 C 202.393 -90.4297 196.924 -95.8496 185.303 -95.8496 L 162.988 -95.8496 C 151.367 -95.8496 145.898 -90.4297 145.898 -78.6621 L 145.898 -56.5918 C 145.898 -44.873 151.367 -39.4043 162.988 -39.4043 Z M 33.1543 25.4883 L 55.4199 25.4883 C 67.041 25.4883 72.5098 20.0684 72.5098 8.30078 L 72.5098 -13.7695 C 72.5098 -25.4883 67.041 -30.957 55.4199 -30.957 L 33.1543 -30.957 C 21.5332 -30.957 16.0645 -25.4883 16.0645 -13.7695 L 16.0645 8.30078 C 16.0645 20.0684 21.5332 25.4883 33.1543 25.4883 Z M 98.0957 25.4883 L 120.361 25.4883 C 131.982 25.4883 137.451 20.0684 137.451 8.30078 L 137.451 -13.7695 C 137.451 -25.4883 131.982 -30.957 120.361 -30.957 L 98.0957 -30.957 C 86.4746 -30.957 81.0059 -25.4883 81.0059 -13.7695 L 81.0059 8.30078 C 81.0059 20.0684 86.4746 25.4883 98.0957 25.4883 Z M 162.988 25.4883 L 185.303 25.4883 C 196.924 25.4883 202.393 20.0684 202.393 8.30078 L 202.393 -13.7695 C 202.393 -25.4883 196.924 -30.957 185.303 -30.957 L 162.988 -30.957 C 151.367 -30.957 145.898 -25.4883 145.898 -13.7695 L 145.898 8.30078 C 145.898 20.0684 151.367 25.4883 162.988 25.4883 Z"/>
  </g>
  <g id="Bold-L" transform="matrix(1 0 0 1 2232.29 1556)">
   <path d="M 31.1035 -39.7949 L 55.957 -39.7949 C 66.1133 -39.7949 70.9961 -44.6289 70.9961 -54.9805 L 70.9961 -79.541 C 70.9961 -89.8926 66.1133 -94.7266 55.957 -94.7266 L 31.1035 -94.7266 C 20.9473 -94.7266 16.0645 -89.8926 16.0645 -79.541 L 16.0645 -54.9805 C 16.0645 -44.6289 20.9473 -39.7949 31.1035 -39.7949 Z M 95.3125 -39.7949 L 120.117 -39.7949 C 130.273 -39.7949 135.156 -44.6289 135.156 -54.9805 L 135.156 -79.541 C 135.156 -89.8926 130.273 -94.7266 120.117 -94.7266 L 95.3125 -94.7266 C 85.1074 -94.7266 80.2246 -89.8926 80.2246 -79.541 L 80.2246 -54.9805 C 80.2246 -44.6289 85.1074 -39.7949 95.3125 -39.7949 Z M 159.473 -39.7949 L 184.277 -39.7949 C 194.434 -39.7949 199.316 -44.6289 199.316 -54.9805 L 199.316 -79.541 C 199.316 -89.8926 194.434 -94.7266 184.277 -94.7266 L 159.473 -94.7266 C 149.268 -94.7266 144.385 -89.8926 144.385 -79.541 L 144.385 -54.9805 C 144.385 -44.6289 149.268 -39.7949 159.473 -39.7949 Z M 31.1035 24.3652 L 55.957 24.3652 C 66.1133 24.3652 70.9961 19.5312 70.9961 9.17969 L 70.9961 -15.332 C 70.9961 -25.7324 66.1133 -30.5664 55.957 -30.5664 L 31.1035 -30.5664 C 20.9473 -30.5664 16.0645 -25.7324 16.0645 -15.332 L 16.0645 9.17969 C 16.0645 19.5312 20.9473 24.3652 31.1035 24.3652 Z M 95.3125 24.3652 L 120.117 24.3652 C 130.273 24.3652 135.156 19.5312 135.156 9.17969 L 135.156 -15.332 C 135.156 -25.7324 130.273 -30.5664 120.117 -30.5664 L 95.3125 -30.5664 C 85.1074 -30.5664 80.2246 -25.7324 80.2246 -15.332 L 80.2246 9.17969 C 80.2246 19.5312 85.1074 24.3652 95.3125 24.3652 Z M 159.473 24.3652 L 184.277 24.3652 C 194.434 24.3652 199.316 19.5312 199.316 9.17969 L 199.316 -15.332 C 199.316 -25.7324 194.434 -30.5664 184.277 -30.5664 L 159.473 -30.5664 C 149.268 -30.5664 144.385 -25.7324 144.385 -15.332 L 144.385 9.17969 C 144.385 19.5312 149.268 24.3652 159.473 24.3652 Z"/>
  </g>
  <g id="Semibold-L" transform="matrix(1 0 0 1 1936.63 1556)">
   <path d="M 29.7363 -40.0391 L 56.2988 -40.0391 C 65.4785 -40.0391 69.9219 -44.4336 69.9219 -53.8574 L 69.9219 -80.127 C 69.9219 -89.5508 65.4785 -93.9453 56.2988 -93.9453 L 29.7363 -93.9453 C 20.5566 -93.9453 16.0645 -89.5508 16.0645 -80.127 L 16.0645 -53.8574 C 16.0645 -44.4336 20.5566 -40.0391 29.7363 -40.0391 Z M 93.3594 -40.0391 L 119.922 -40.0391 C 129.102 -40.0391 133.594 -44.4336 133.594 -53.8574 L 133.594 -80.127 C 133.594 -89.5508 129.102 -93.9453 119.922 -93.9453 L 93.3594 -93.9453 C 84.1797 -93.9453 79.7363 -89.5508 79.7363 -80.127 L 79.7363 -53.8574 C 79.7363 -44.4336 84.1797 -40.0391 93.3594 -40.0391 Z M 157.031 -40.0391 L 183.594 -40.0391 C 192.773 -40.0391 197.217 -44.4336 197.217 -53.8574 L 197.217 -80.127 C 197.217 -89.5508 192.773 -93.9453 183.594 -93.9453 L 157.031 -93.9453 C 147.852 -93.9453 143.359 -89.5508 143.359 -80.127 L 143.359 -53.8574 C 143.359 -44.4336 147.852 -40.0391 157.031 -40.0391 Z M 29.7363 23.584 L 56.2988 23.584 C 65.4785 23.584 69.9219 19.1895 69.9219 9.76562 L 69.9219 -16.4551 C 69.9219 -25.8789 65.4785 -30.2734 56.2988 -30.2734 L 29.7363 -30.2734 C 20.5566 -30.2734 16.0645 -25.8789 16.0645 -16.4551 L 16.0645 9.76562 C 16.0645 19.1895 20.5566 23.584 29.7363 23.584 Z M 93.3594 23.584 L 119.922 23.584 C 129.102 23.584 133.594 19.1895 133.594 9.76562 L 133.594 -16.4551 C 133.594 -25.8789 129.102 -30.2734 119.922 -30.2734 L 93.3594 -30.2734 C 84.1797 -30.2734 79.7363 -25.8789 79.7363 -16.4551 L 79.7363 9.76562 C 79.7363 19.1895 84.1797 23.584 93.3594 23.584 Z M 157.031 23.584 L 183.594 23.584 C 192.773 23.584 197.217 19.1895 197.217 9.76562 L 197.217 -16.4551 C 197.217 -25.8789 192.773 -30.2734 183.594 -30.2734 L 157.031 -30.2734 C 147.852 -30.2734 143.359 -25.8789 143.359 -16.4551 L 143.359 9.76562 C 143.359 19.1895 147.852 23.584 157.031 23.584 Z"/>
  </g>
  <g id="Medium-L" transform="matrix(1 0 0 1 1640.7 1556)">
   <path d="M 28.6621 -40.2344 L 56.543 -40.2344 C 64.9902 -40.2344 69.1406 -44.3359 69.1406 -53.0273 L 69.1406 -80.5664 C 69.1406 -89.2578 64.9902 -93.3105 56.543 -93.3105 L 28.6621 -93.3105 C 20.2637 -93.3105 16.0645 -89.2578 16.0645 -80.5664 L 16.0645 -53.0273 C 16.0645 -44.3359 20.2637 -40.2344 28.6621 -40.2344 Z M 91.8945 -40.2344 L 119.824 -40.2344 C 128.223 -40.2344 132.422 -44.3359 132.422 -53.0273 L 132.422 -80.5664 C 132.422 -89.2578 128.223 -93.3105 119.824 -93.3105 L 91.8945 -93.3105 C 83.4961 -93.3105 79.2969 -89.2578 79.2969 -80.5664 L 79.2969 -53.0273 C 79.2969 -44.3359 83.4961 -40.2344 91.8945 -40.2344 Z M 155.176 -40.2344 L 183.057 -40.2344 C 191.455 -40.2344 195.654 -44.3359 195.654 -53.0273 L 195.654 -80.5664 C 195.654 -89.2578 191.455 -93.3105 183.057 -93.3105 L 155.176 -93.3105 C 146.729 -93.3105 142.578 -89.2578 142.578 -80.5664 L 142.578 -53.0273 C 142.578 -44.3359 146.729 -40.2344 155.176 -40.2344 Z M 28.6621 22.998 L 56.543 22.998 C 64.9902 22.998 69.1406 18.9453 69.1406 10.2051 L 69.1406 -17.2852 C 69.1406 -26.0254 64.9902 -30.0781 56.543 -30.0781 L 28.6621 -30.0781 C 20.2637 -30.0781 16.0645 -26.0254 16.0645 -17.2852 L 16.0645 10.2051 C 16.0645 18.9453 20.2637 22.998 28.6621 22.998 Z M 91.8945 22.998 L 119.824 22.998 C 128.223 22.998 132.422 18.9453 132.422 10.2051 L 132.422 -17.2852 C 132.422 -26.0254 128.223 -30.0781 119.824 -30.0781 L 91.8945 -30.0781 C 83.4961 -30.0781 79.2969 -26.0254 79.2969 -17.2852 L 79.2969 10.2051 C 79.2969 18.9453 83.4961 22.998 91.8945 22.998 Z M 155.176 22.998 L 183.057 22.998 C 191.455 22.998 195.654 18.9453 195.654 10.2051 L 195.654 -17.2852 C 195.654 -26.0254 191.455 -30.0781 183.057 -30.0781 L 155.176 -30.0781 C 146.729 -30.0781 142.578 -26.0254 142.578 -17.2852 L 142.578 10.2051 C 142.578 18.9453 146.729 22.998 155.176 22.998 Z"/>
  </g>
  <g id="Regular-L" transform="matrix(1 0 0 1 1345.01 1556)">
   <path d="M 27.2949 -40.5273 L 56.8848 -40.5273 C 64.3066 -40.5273 68.1152 -44.1406 68.1152 -51.9043 L 68.1152 -81.1523 C 68.1152 -88.916 64.3066 -92.5293 56.8848 -92.5293 L 27.2949 -92.5293 C 19.873 -92.5293 16.0645 -88.916 16.0645 -81.1523 L 16.0645 -51.9043 C 16.0645 -44.1406 19.873 -40.5273 27.2949 -40.5273 Z M 90.0391 -40.5273 L 119.629 -40.5273 C 127.051 -40.5273 130.859 -44.1406 130.859 -51.9043 L 130.859 -81.1523 C 130.859 -88.916 127.051 -92.5293 119.629 -92.5293 L 90.0391 -92.5293 C 82.5684 -92.5293 78.8086 -88.916 78.8086 -81.1523 L 78.8086 -51.9043 C 78.8086 -44.1406 82.5684 -40.5273 90.0391 -40.5273 Z M 152.734 -40.5273 L 182.373 -40.5273 C 189.795 -40.5273 193.604 -44.1406 193.604 -51.9043 L 193.604 -81.1523 C 193.604 -88.916 189.795 -92.5293 182.373 -92.5293 L 152.734 -92.5293 C 145.312 -92.5293 141.553 -88.916 141.553 -81.1523 L 141.553 -51.9043 C 141.553 -44.1406 145.312 -40.5273 152.734 -40.5273 Z M 27.2949 22.2168 L 56.8848 22.2168 C 64.3066 22.2168 68.1152 18.6035 68.1152 10.8398 L 68.1152 -18.4082 C 68.1152 -26.1719 64.3066 -29.834 56.8848 -29.834 L 27.2949 -29.834 C 19.873 -29.834 16.0645 -26.1719 16.0645 -18.4082 L 16.0645 10.8398 C 16.0645 18.6035 19.873 22.2168 27.2949 22.2168 Z M 90.0391 22.2168 L 119.629 22.2168 C 127.051 22.2168 130.859 18.6035 130.859 10.8398 L 130.859 -18.4082 C 130.859 -26.1719 127.051 -29.834 119.629 -29.834 L 90.0391 -29.834 C 82.5684 -29.834 78.8086 -26.1719 78.8086 -18.4082 L 78.8086 10.8398 C 78.8086 18.6035 82.5684 22.2168 90.0391 22.2168 Z M 152.734 22.2168 L 182.373 22.2168 C 189.795 22.2168 193.604 18.6035 193.604 10.8398 L 193.604 -18.4082 C 193.604 -26.1719 189.795 -29.834 182.373 -29.834 L 152.734 -29.834 C 145.312 -29.834 141.553 -26.1719 141.553 -18.4082 L 141.553 10.8398 C 141.553 18.6035 145.312 22.2168 152.734 22.2168 Z"/>
  </g>
  <g id="Light-L" transform="matrix(1 0 0 1 1049.47 1556)">
   <path d="M 26.1719 -40.6738 L 57.0312 -40.6738 C 63.6719 -40.6738 67.0898 -43.8477 67.0898 -50.8789 L 67.0898 -81.4941 C 67.0898 -88.5254 63.6719 -91.6992 57.0312 -91.6992 L 26.1719 -91.6992 C 19.5312 -91.6992 16.0645 -88.5254 16.0645 -81.4941 L 16.0645 -50.8789 C 16.0645 -43.8477 19.5312 -40.6738 26.1719 -40.6738 Z M 88.2324 -40.6738 L 119.092 -40.6738 C 125.732 -40.6738 129.199 -43.8477 129.199 -50.8789 L 129.199 -81.4941 C 129.199 -88.5254 125.732 -91.6992 119.092 -91.6992 L 88.2324 -91.6992 C 81.5918 -91.6992 78.125 -88.5254 78.125 -81.4941 L 78.125 -50.8789 C 78.125 -43.8477 81.5918 -40.6738 88.2324 -40.6738 Z M 150.293 -40.6738 L 181.152 -40.6738 C 187.793 -40.6738 191.26 -43.8477 191.26 -50.8789 L 191.26 -81.4941 C 191.26 -88.5254 187.793 -91.6992 181.152 -91.6992 L 150.293 -91.6992 C 143.652 -91.6992 140.186 -88.5254 140.186 -81.4941 L 140.186 -50.8789 C 140.186 -43.8477 143.652 -40.6738 150.293 -40.6738 Z M 26.1719 21.4355 L 57.0312 21.4355 C 63.6719 21.4355 67.0898 18.2129 67.0898 11.2305 L 67.0898 -19.4336 C 67.0898 -26.4648 63.6719 -29.6387 57.0312 -29.6387 L 26.1719 -29.6387 C 19.5312 -29.6387 16.0645 -26.4648 16.0645 -19.4336 L 16.0645 11.2305 C 16.0645 18.2129 19.5312 21.4355 26.1719 21.4355 Z M 88.2324 21.4355 L 119.092 21.4355 C 125.732 21.4355 129.199 18.2129 129.199 11.2305 L 129.199 -19.4336 C 129.199 -26.4648 125.732 -29.6387 119.092 -29.6387 L 88.2324 -29.6387 C 81.5918 -29.6387 78.125 -26.4648 78.125 -19.4336 L 78.125 11.2305 C 78.125 18.2129 81.5918 21.4355 88.2324 21.4355 Z M 150.293 21.4355 L 181.152 21.4355 C 187.793 21.4355 191.26 18.2129 191.26 11.2305 L 191.26 -19.4336 C 191.26 -26.4648 187.793 -29.6387 181.152 -29.6387 L 150.293 -29.6387 C 143.652 -29.6387 140.186 -26.4648 140.186 -19.4336 L 140.186 11.2305 C 140.186 18.2129 143.652 21.4355 150.293 21.4355 Z"/>
  </g>
  <g id="Thin-L" transform="matrix(1 0 0 1 754.298 1556)">
   <path d="M 24.6582 -40.8691 L 57.1777 -40.8691 C 62.793 -40.8691 65.7715 -43.4082 65.7715 -49.4629 L 65.7715 -81.9336 C 65.7715 -87.9883 62.793 -90.5762 57.1777 -90.5762 L 24.6582 -90.5762 C 19.0918 -90.5762 16.0645 -87.9883 16.0645 -81.9336 L 16.0645 -49.4629 C 16.0645 -43.4082 19.0918 -40.8691 24.6582 -40.8691 Z M 85.8398 -40.8691 L 118.408 -40.8691 C 123.975 -40.8691 127.002 -43.4082 127.002 -49.4629 L 127.002 -81.9336 C 127.002 -87.9883 123.975 -90.5762 118.408 -90.5762 L 85.8398 -90.5762 C 80.2734 -90.5762 77.2461 -87.9883 77.2461 -81.9336 L 77.2461 -49.4629 C 77.2461 -43.4082 80.2734 -40.8691 85.8398 -40.8691 Z M 147.021 -40.8691 L 179.59 -40.8691 C 185.156 -40.8691 188.184 -43.4082 188.184 -49.4629 L 188.184 -81.9336 C 188.184 -87.9883 185.156 -90.5762 179.59 -90.5762 L 147.021 -90.5762 C 141.455 -90.5762 138.428 -87.9883 138.428 -81.9336 L 138.428 -49.4629 C 138.428 -43.4082 141.455 -40.8691 147.021 -40.8691 Z M 24.6582 20.3613 L 57.1777 20.3613 C 62.793 20.3613 65.7715 17.7734 65.7715 11.7188 L 65.7715 -20.752 C 65.7715 -26.8066 62.793 -29.3945 57.1777 -29.3945 L 24.6582 -29.3945 C 19.0918 -29.3945 16.0645 -26.8066 16.0645 -20.752 L 16.0645 11.7188 C 16.0645 17.7734 19.0918 20.3613 24.6582 20.3613 Z M 85.8398 20.3613 L 118.408 20.3613 C 123.975 20.3613 127.002 17.7734 127.002 11.7188 L 127.002 -20.752 C 127.002 -26.8066 123.975 -29.3945 118.408 -29.3945 L 85.8398 -29.3945 C 80.2734 -29.3945 77.2461 -26.8066 77.2461 -20.752 L 77.2461 11.7188 C 77.2461 17.7734 80.2734 20.3613 85.8398 20.3613 Z M 147.021 20.3613 L 179.59 20.3613 C 185.156 20.3613 188.184 17.7734 188.184 11.7188 L 188.184 -20.752 C 188.184 -26.8066 185.156 -29.3945 179.59 -29.3945 L 147.021 -29.3945 C 141.455 -29.3945 138.428 -26.8066 138.428 -20.752 L 138.428 11.7188 C 138.428 17.7734 141.455 20.3613 147.021 20.3613 Z"/>
  </g>
  <g id="Ultralight-L" transform="matrix(1 0 0 1 458.368 1556)">
   <path d="M 23.877 -40.9668 L 57.2754 -40.9668 C 62.3535 -40.9668 65.1367 -43.2129 65.1367 -48.7793 L 65.1367 -82.1777 C 65.1367 -87.7441 62.3535 -89.9902 57.2754 -89.9902 L 23.877 -89.9902 C 18.8477 -89.9902 16.0645 -87.7441 16.0645 -82.1777 L 16.0645 -48.7793 C 16.0645 -43.2129 18.8477 -40.9668 23.877 -40.9668 Z M 84.6191 -40.9668 L 118.018 -40.9668 C 123.047 -40.9668 125.879 -43.2129 125.879 -48.7793 L 125.879 -82.1777 C 125.879 -87.7441 123.047 -89.9902 118.018 -89.9902 L 84.6191 -89.9902 C 79.5898 -89.9902 76.8066 -87.7441 76.8066 -82.1777 L 76.8066 -48.7793 C 76.8066 -43.2129 79.5898 -40.9668 84.6191 -40.9668 Z M 145.361 -40.9668 L 178.76 -40.9668 C 183.789 -40.9668 186.621 -43.2129 186.621 -48.7793 L 186.621 -82.1777 C 186.621 -87.7441 183.789 -89.9902 178.76 -89.9902 L 145.361 -89.9902 C 140.332 -89.9902 137.549 -87.7441 137.549 -82.1777 L 137.549 -48.7793 C 137.549 -43.2129 140.332 -40.9668 145.361 -40.9668 Z M 23.877 19.7754 L 57.2754 19.7754 C 62.3535 19.7754 65.1367 17.5293 65.1367 11.9629 L 65.1367 -21.4355 C 65.1367 -27.002 62.3535 -29.248 57.2754 -29.248 L 23.877 -29.248 C 18.8477 -29.248 16.0645 -27.002 16.0645 -21.4355 L 16.0645 11.9629 C 16.0645 17.5293 18.8477 19.7754 23.877 19.7754 Z M 84.6191 19.7754 L 118.018 19.7754 C 123.047 19.7754 125.879 17.5293 125.879 11.9629 L 125.879 -21.4355 C 125.879 -27.002 123.047 -29.248 118.018 -29.248 L 84.6191 -29.248 C 79.5898 -29.248 76.8066 -27.002 76.8066 -21.4355 L 76.8066 11.9629 C 76.8066 17.5293 79.5898 19.7754 84.6191 19.7754 Z M 145.361 19.7754 L 178.76 19.7754 C 183.789 19.7754 186.621 17.5293 186.621 11.9629 L 186.621 -21.4355 C 186.621 -27.002 183.789 -29.248 178.76 -29.248 L 145.361 -29.248 C 140.332 -29.248 137.549 -27.002 137.549 -21.4355 L 137.549 11.9629 C 137.549 17.5293 140.332 19.7754 145.361 19.7754 Z"/>
  </g>
  <g id="Black-M" transform="matrix(1 0 0 1 2846.49 1126)">
   <path d="M 28.9551 -37.8418 L 42.0898 -37.8418 C 53.418 -37.8418 58.5449 -43.0176 58.5449 -54.3457 L 58.5449 -67.4805 C 58.5449 -78.8086 53.418 -83.9355 42.0898 -83.9355 L 28.9551 -83.9355 C 17.627 -83.9355 12.4512 -78.8086 12.4512 -67.4805 L 12.4512 -54.3457 C 12.4512 -43.0176 17.627 -37.8418 28.9551 -37.8418 Z M 80.3223 -37.8418 L 93.457 -37.8418 C 104.785 -37.8418 109.961 -43.0176 109.961 -54.3457 L 109.961 -67.4805 C 109.961 -78.8086 104.785 -83.9355 93.457 -83.9355 L 80.3223 -83.9355 C 68.9941 -83.9355 63.8672 -78.8086 63.8672 -67.4805 L 63.8672 -54.3457 C 63.8672 -43.0176 68.9941 -37.8418 80.3223 -37.8418 Z M 131.738 -37.8418 L 144.873 -37.8418 C 156.201 -37.8418 161.377 -43.0176 161.377 -54.3457 L 161.377 -67.4805 C 161.377 -78.8086 156.201 -83.9355 144.873 -83.9355 L 131.738 -83.9355 C 120.41 -83.9355 115.234 -78.8086 115.234 -67.4805 L 115.234 -54.3457 C 115.234 -43.0176 120.41 -37.8418 131.738 -37.8418 Z M 28.9551 13.5742 L 42.0898 13.5742 C 53.418 13.5742 58.5449 8.39844 58.5449 -2.92969 L 58.5449 -16.0645 C 58.5449 -27.3926 53.418 -32.5684 42.0898 -32.5684 L 28.9551 -32.5684 C 17.627 -32.5684 12.4512 -27.3926 12.4512 -16.0645 L 12.4512 -2.92969 C 12.4512 8.39844 17.627 13.5742 28.9551 13.5742 Z M 80.3223 13.5742 L 93.457 13.5742 C 104.785 13.5742 109.961 8.39844 109.961 -2.92969 L 109.961 -16.0645 C 109.961 -27.3926 104.785 -32.5684 93.457 -32.5684 L 80.3223 -32.5684 C 68.9941 -32.5684 63.8672 -27.3926 63.8672 -16.0645 L 63.8672 -2.92969 C 63.8672 8.39844 68.9941 13.5742 80.3223 13.5742 Z M 131.738 13.5742 L 144.873 13.5742 C 156.201 13.5742 161.377 8.39844 161.377 -2.92969 L 161.377 -16.0645 C 161.377 -27.3926 156.201 -32.5684 144.873 -32.5684 L 131.738 -32.5684 C 120.41 -32.5684 115.234 -27.3926 115.234 -16.0645 L 115.234 -2.92969 C 115.234 8.39844 120.41 13.5742 131.738 13.5742 Z"/>
  </g>
  <g id="Heavy-M" transform="matrix(1 0 0 1 2550.97 1126)">
   <path d="M 27.2461 -38.1836 L 42.5293 -38.1836 C 52.6367 -38.1836 57.3242 -42.8223 57.3242 -53.0273 L 57.3242 -68.2129 C 57.3242 -78.3691 52.6367 -83.0566 42.5293 -83.0566 L 27.2461 -83.0566 C 17.1387 -83.0566 12.4512 -78.3691 12.4512 -68.2129 L 12.4512 -53.0273 C 12.4512 -42.8223 17.1387 -38.1836 27.2461 -38.1836 Z M 78.0762 -38.1836 L 93.3594 -38.1836 C 103.467 -38.1836 108.154 -42.8223 108.154 -53.0273 L 108.154 -68.2129 C 108.154 -78.3691 103.467 -83.0566 93.3594 -83.0566 L 78.0762 -83.0566 C 67.9688 -83.0566 63.2812 -78.3691 63.2812 -68.2129 L 63.2812 -53.0273 C 63.2812 -42.8223 67.9688 -38.1836 78.0762 -38.1836 Z M 128.906 -38.1836 L 144.189 -38.1836 C 154.297 -38.1836 158.984 -42.8223 158.984 -53.0273 L 158.984 -68.2129 C 158.984 -78.3691 154.297 -83.0566 144.189 -83.0566 L 128.906 -83.0566 C 118.799 -83.0566 114.111 -78.3691 114.111 -68.2129 L 114.111 -53.0273 C 114.111 -42.8223 118.799 -38.1836 128.906 -38.1836 Z M 27.2461 12.6465 L 42.5293 12.6465 C 52.6367 12.6465 57.3242 8.00781 57.3242 -2.19727 L 57.3242 -17.3828 C 57.3242 -27.5391 52.6367 -32.2266 42.5293 -32.2266 L 27.2461 -32.2266 C 17.1387 -32.2266 12.4512 -27.5391 12.4512 -17.3828 L 12.4512 -2.19727 C 12.4512 8.00781 17.1387 12.6465 27.2461 12.6465 Z M 78.0762 12.6465 L 93.3594 12.6465 C 103.467 12.6465 108.154 8.00781 108.154 -2.19727 L 108.154 -17.3828 C 108.154 -27.5391 103.467 -32.2266 93.3594 -32.2266 L 78.0762 -32.2266 C 67.9688 -32.2266 63.2812 -27.5391 63.2812 -17.3828 L 63.2812 -2.19727 C 63.2812 8.00781 67.9688 12.6465 78.0762 12.6465 Z M 128.906 12.6465 L 144.189 12.6465 C 154.297 12.6465 158.984 8.00781 158.984 -2.19727 L 158.984 -17.3828 C 158.984 -27.5391 154.297 -32.2266 144.189 -32.2266 L 128.906 -32.2266 C 118.799 -32.2266 114.111 -27.5391 114.111 -17.3828 L 114.111 -2.19727 C 114.111 8.00781 118.799 12.6465 128.906 12.6465 Z"/>
  </g>
  <g id="Bold-M" transform="matrix(1 0 0 1 2255.58 1126)">
   <path d="M 25.3418 -38.5254 L 43.0664 -38.5254 C 51.8066 -38.5254 55.957 -42.6758 55.957 -51.5625 L 55.957 -69.043 C 55.957 -77.9297 51.8066 -82.0312 43.0664 -82.0312 L 25.3418 -82.0312 C 16.6016 -82.0312 12.4512 -77.9297 12.4512 -69.043 L 12.4512 -51.5625 C 12.4512 -42.6758 16.6016 -38.5254 25.3418 -38.5254 Z M 75.5371 -38.5254 L 93.2617 -38.5254 C 102.002 -38.5254 106.152 -42.6758 106.152 -51.5625 L 106.152 -69.043 C 106.152 -77.9297 102.002 -82.0312 93.2617 -82.0312 L 75.5371 -82.0312 C 66.7969 -82.0312 62.6465 -77.9297 62.6465 -69.043 L 62.6465 -51.5625 C 62.6465 -42.6758 66.7969 -38.5254 75.5371 -38.5254 Z M 125.781 -38.5254 L 143.457 -38.5254 C 152.197 -38.5254 156.348 -42.6758 156.348 -51.5625 L 156.348 -69.043 C 156.348 -77.9297 152.197 -82.0312 143.457 -82.0312 L 125.781 -82.0312 C 116.992 -82.0312 112.842 -77.9297 112.842 -69.043 L 112.842 -51.5625 C 112.842 -42.6758 116.992 -38.5254 125.781 -38.5254 Z M 25.3418 11.6699 L 43.0664 11.6699 C 51.8066 11.6699 55.957 7.51953 55.957 -1.31836 L 55.957 -18.8477 C 55.957 -27.7344 51.8066 -31.8359 43.0664 -31.8359 L 25.3418 -31.8359 C 16.6016 -31.8359 12.4512 -27.7344 12.4512 -18.8477 L 12.4512 -1.31836 C 12.4512 7.51953 16.6016 11.6699 25.3418 11.6699 Z M 75.5371 11.6699 L 93.2617 11.6699 C 102.002 11.6699 106.152 7.51953 106.152 -1.31836 L 106.152 -18.8477 C 106.152 -27.7344 102.002 -31.8359 93.2617 -31.8359 L 75.5371 -31.8359 C 66.7969 -31.8359 62.6465 -27.7344 62.6465 -18.8477 L 62.6465 -1.31836 C 62.6465 7.51953 66.7969 11.6699 75.5371 11.6699 Z M 125.781 11.6699 L 143.457 11.6699 C 152.197 11.6699 156.348 7.51953 156.348 -1.31836 L 156.348 -18.8477 C 156.348 -27.7344 152.197 -31.8359 143.457 -31.8359 L 125.781 -31.8359 C 116.992 -31.8359 112.842 -27.7344 112.842 -18.8477 L 112.842 -1.31836 C 112.842 7.51953 116.992 11.6699 125.781 11.6699 Z"/>
  </g>
  <g id="Semibold-M" transform="matrix(1 0 0 1 1959.77 1126)">
   <path d="M 24.0723 -38.7695 L 43.4082 -38.7695 C 51.2207 -38.7695 55.0293 -42.5293 55.0293 -50.5371 L 55.0293 -69.6289 C 55.0293 -77.5879 51.2207 -81.3477 43.4082 -81.3477 L 24.0723 -81.3477 C 16.2109 -81.3477 12.4512 -77.5879 12.4512 -69.6289 L 12.4512 -50.5371 C 12.4512 -42.5293 16.2109 -38.7695 24.0723 -38.7695 Z M 73.8281 -38.7695 L 93.1641 -38.7695 C 101.025 -38.7695 104.785 -42.5293 104.785 -50.5371 L 104.785 -69.6289 C 104.785 -77.5879 101.025 -81.3477 93.1641 -81.3477 L 73.8281 -81.3477 C 65.9668 -81.3477 62.207 -77.5879 62.207 -69.6289 L 62.207 -50.5371 C 62.207 -42.5293 65.9668 -38.7695 73.8281 -38.7695 Z M 123.584 -38.7695 L 142.92 -38.7695 C 150.781 -38.7695 154.541 -42.5293 154.541 -50.5371 L 154.541 -69.6289 C 154.541 -77.5879 150.781 -81.3477 142.92 -81.3477 L 123.584 -81.3477 C 115.723 -81.3477 111.963 -77.5879 111.963 -69.6289 L 111.963 -50.5371 C 111.963 -42.5293 115.723 -38.7695 123.584 -38.7695 Z M 24.0723 10.9863 L 43.4082 10.9863 C 51.2207 10.9863 55.0293 7.22656 55.0293 -0.78125 L 55.0293 -19.8242 C 55.0293 -27.832 51.2207 -31.5918 43.4082 -31.5918 L 24.0723 -31.5918 C 16.2109 -31.5918 12.4512 -27.832 12.4512 -19.8242 L 12.4512 -0.78125 C 12.4512 7.22656 16.2109 10.9863 24.0723 10.9863 Z M 73.8281 10.9863 L 93.1641 10.9863 C 101.025 10.9863 104.785 7.22656 104.785 -0.78125 L 104.785 -19.8242 C 104.785 -27.832 101.025 -31.5918 93.1641 -31.5918 L 73.8281 -31.5918 C 65.9668 -31.5918 62.207 -27.832 62.207 -19.8242 L 62.207 -0.78125 C 62.207 7.22656 65.9668 10.9863 73.8281 10.9863 Z M 123.584 10.9863 L 142.92 10.9863 C 150.781 10.9863 154.541 7.22656 154.541 -0.78125 L 154.541 -19.8242 C 154.541 -27.832 150.781 -31.5918 142.92 -31.5918 L 123.584 -31.5918 C 115.723 -31.5918 111.963 -27.832 111.963 -19.8242 L 111.963 -0.78125 C 111.963 7.22656 115.723 10.9863 123.584 10.9863 Z"/>
  </g>
  <g id="Medium-M" transform="matrix(1 0 0 1 1663.74 1126)">
   <path d="M 23.0957 -38.9648 L 43.6523 -38.9648 C 50.7812 -38.9648 54.2969 -42.4316 54.2969 -49.7559 L 54.2969 -70.0195 C 54.2969 -77.3438 50.7812 -80.8105 43.6523 -80.8105 L 23.0957 -80.8105 C 15.918 -80.8105 12.4512 -77.3438 12.4512 -70.0195 L 12.4512 -49.7559 C 12.4512 -42.4316 15.918 -38.9648 23.0957 -38.9648 Z M 72.5098 -38.9648 L 93.1152 -38.9648 C 100.244 -38.9648 103.711 -42.4316 103.711 -49.7559 L 103.711 -70.0195 C 103.711 -77.3438 100.244 -80.8105 93.1152 -80.8105 L 72.5098 -80.8105 C 65.3809 -80.8105 61.8652 -77.3438 61.8652 -70.0195 L 61.8652 -49.7559 C 61.8652 -42.4316 65.3809 -38.9648 72.5098 -38.9648 Z M 121.924 -38.9648 L 142.529 -38.9648 C 149.658 -38.9648 153.174 -42.4316 153.174 -49.7559 L 153.174 -70.0195 C 153.174 -77.3438 149.658 -80.8105 142.529 -80.8105 L 121.924 -80.8105 C 114.795 -80.8105 111.328 -77.3438 111.328 -70.0195 L 111.328 -49.7559 C 111.328 -42.4316 114.795 -38.9648 121.924 -38.9648 Z M 23.0957 10.4492 L 43.6523 10.4492 C 50.7812 10.4492 54.2969 6.98242 54.2969 -0.341797 L 54.2969 -20.6055 C 54.2969 -27.9297 50.7812 -31.3965 43.6523 -31.3965 L 23.0957 -31.3965 C 15.918 -31.3965 12.4512 -27.9297 12.4512 -20.6055 L 12.4512 -0.341797 C 12.4512 6.98242 15.918 10.4492 23.0957 10.4492 Z M 72.5098 10.4492 L 93.1152 10.4492 C 100.244 10.4492 103.711 6.98242 103.711 -0.341797 L 103.711 -20.6055 C 103.711 -27.9297 100.244 -31.3965 93.1152 -31.3965 L 72.5098 -31.3965 C 65.3809 -31.3965 61.8652 -27.9297 61.8652 -20.6055 L 61.8652 -0.341797 C 61.8652 6.98242 65.3809 10.4492 72.5098 10.4492 Z M 121.924 10.4492 L 142.529 10.4492 C 149.658 10.4492 153.174 6.98242 153.174 -0.341797 L 153.174 -20.6055 C 153.174 -27.9297 149.658 -31.3965 142.529 -31.3965 L 121.924 -31.3965 C 114.795 -31.3965 111.328 -27.9297 111.328 -20.6055 L 111.328 -0.341797 C 111.328 6.98242 114.795 10.4492 121.924 10.4492 Z"/>
  </g>
  <g id="Regular-M" transform="matrix(1 0 0 1 1367.94 1126)">
   <path d="M 21.7773 -39.209 L 44.043 -39.209 C 50.2441 -39.209 53.3691 -42.334 53.3691 -48.7793 L 53.3691 -70.6055 C 53.3691 -77.0508 50.2441 -80.127 44.043 -80.127 L 21.7773 -80.127 C 15.5762 -80.127 12.4512 -77.0508 12.4512 -70.6055 L 12.4512 -48.7793 C 12.4512 -42.334 15.5762 -39.209 21.7773 -39.209 Z M 70.8008 -39.209 L 93.0176 -39.209 C 99.2188 -39.209 102.344 -42.334 102.344 -48.7793 L 102.344 -70.6055 C 102.344 -77.0508 99.2188 -80.127 93.0176 -80.127 L 70.8008 -80.127 C 64.5508 -80.127 61.4258 -77.0508 61.4258 -70.6055 L 61.4258 -48.7793 C 61.4258 -42.334 64.5508 -39.209 70.8008 -39.209 Z M 119.775 -39.209 L 142.041 -39.209 C 148.242 -39.209 151.367 -42.334 151.367 -48.7793 L 151.367 -70.6055 C 151.367 -77.0508 148.242 -80.127 142.041 -80.127 L 119.775 -80.127 C 113.574 -80.127 110.449 -77.0508 110.449 -70.6055 L 110.449 -48.7793 C 110.449 -42.334 113.574 -39.209 119.775 -39.209 Z M 21.7773 9.76562 L 44.043 9.76562 C 50.2441 9.76562 53.3691 6.68945 53.3691 0.244141 L 53.3691 -21.6309 C 53.3691 -28.0273 50.2441 -31.1523 44.043 -31.1523 L 21.7773 -31.1523 C 15.5762 -31.1523 12.4512 -28.0273 12.4512 -21.6309 L 12.4512 0.244141 C 12.4512 6.68945 15.5762 9.76562 21.7773 9.76562 Z M 70.8008 9.76562 L 93.0176 9.76562 C 99.2188 9.76562 102.344 6.68945 102.344 0.244141 L 102.344 -21.6309 C 102.344 -28.0273 99.2188 -31.1523 93.0176 -31.1523 L 70.8008 -31.1523 C 64.5508 -31.1523 61.4258 -28.0273 61.4258 -21.6309 L 61.4258 0.244141 C 61.4258 6.68945 64.5508 9.76562 70.8008 9.76562 Z M 119.775 9.76562 L 142.041 9.76562 C 148.242 9.76562 151.367 6.68945 151.367 0.244141 L 151.367 -21.6309 C 151.367 -28.0273 148.242 -31.1523 142.041 -31.1523 L 119.775 -31.1523 C 113.574 -31.1523 110.449 -28.0273 110.449 -21.6309 L 110.449 0.244141 C 110.449 6.68945 113.574 9.76562 119.775 9.76562 Z"/>
  </g>
  <g id="Light-M" transform="matrix(1 0 0 1 1072.27 1126)">
   <path d="M 20.752 -39.3555 L 44.1406 -39.3555 C 49.6582 -39.3555 52.4414 -42.041 52.4414 -47.8027 L 52.4414 -70.8984 C 52.4414 -76.709 49.6582 -79.3945 44.1406 -79.3945 L 20.752 -79.3945 C 15.2832 -79.3945 12.4512 -76.709 12.4512 -70.8984 L 12.4512 -47.8027 C 12.4512 -42.041 15.2832 -39.3555 20.752 -39.3555 Z M 69.1895 -39.3555 L 92.5293 -39.3555 C 98.0469 -39.3555 100.879 -42.041 100.879 -47.8027 L 100.879 -70.8984 C 100.879 -76.709 98.0469 -79.3945 92.5293 -79.3945 L 69.1895 -79.3945 C 63.6719 -79.3945 60.8398 -76.709 60.8398 -70.8984 L 60.8398 -47.8027 C 60.8398 -42.041 63.6719 -39.3555 69.1895 -39.3555 Z M 117.578 -39.3555 L 140.918 -39.3555 C 146.436 -39.3555 149.268 -42.041 149.268 -47.8027 L 149.268 -70.8984 C 149.268 -76.709 146.436 -79.3945 140.918 -79.3945 L 117.578 -79.3945 C 112.061 -79.3945 109.277 -76.709 109.277 -70.8984 L 109.277 -47.8027 C 109.277 -42.041 112.061 -39.3555 117.578 -39.3555 Z M 20.752 9.0332 L 44.1406 9.0332 C 49.6582 9.0332 52.4414 6.34766 52.4414 0.585938 L 52.4414 -22.5098 C 52.4414 -28.2715 49.6582 -30.957 44.1406 -30.957 L 20.752 -30.957 C 15.2832 -30.957 12.4512 -28.2715 12.4512 -22.5098 L 12.4512 0.585938 C 12.4512 6.34766 15.2832 9.0332 20.752 9.0332 Z M 69.1895 9.0332 L 92.5293 9.0332 C 98.0469 9.0332 100.879 6.34766 100.879 0.585938 L 100.879 -22.5098 C 100.879 -28.2715 98.0469 -30.957 92.5293 -30.957 L 69.1895 -30.957 C 63.6719 -30.957 60.8398 -28.2715 60.8398 -22.5098 L 60.8398 0.585938 C 60.8398 6.34766 63.6719 9.0332 69.1895 9.0332 Z M 117.578 9.0332 L 140.918 9.0332 C 146.436 9.0332 149.268 6.34766 149.268 0.585938 L 149.268 -22.5098 C 149.268 -28.2715 146.436 -30.957 140.918 -30.957 L 117.578 -30.957 C 112.061 -30.957 109.277 -28.2715 109.277 -22.5098 L 109.277 0.585938 C 109.277 6.34766 112.061 9.0332 117.578 9.0332 Z"/>
  </g>
  <g id="Thin-M" transform="matrix(1 0 0 1 776.954 1126)">
   <path d="M 19.4336 -39.5508 L 44.2871 -39.5508 C 48.8281 -39.5508 51.2695 -41.6504 51.2695 -46.582 L 51.2695 -71.3379 C 51.2695 -76.2207 48.8281 -78.3691 44.2871 -78.3691 L 19.4336 -78.3691 C 14.8926 -78.3691 12.4512 -76.2207 12.4512 -71.3379 L 12.4512 -46.582 C 12.4512 -41.6504 14.8926 -39.5508 19.4336 -39.5508 Z M 67.041 -39.5508 L 91.8945 -39.5508 C 96.4355 -39.5508 98.877 -41.6504 98.877 -46.582 L 98.877 -71.3379 C 98.877 -76.2207 96.4355 -78.3691 91.8945 -78.3691 L 67.041 -78.3691 C 62.5 -78.3691 60.0586 -76.2207 60.0586 -71.3379 L 60.0586 -46.582 C 60.0586 -41.6504 62.5 -39.5508 67.041 -39.5508 Z M 114.648 -39.5508 L 139.502 -39.5508 C 144.092 -39.5508 146.484 -41.6504 146.484 -46.582 L 146.484 -71.3379 C 146.484 -76.2207 144.092 -78.3691 139.502 -78.3691 L 114.648 -78.3691 C 110.107 -78.3691 107.666 -76.2207 107.666 -71.3379 L 107.666 -46.582 C 107.666 -41.6504 110.107 -39.5508 114.648 -39.5508 Z M 19.4336 8.05664 L 44.2871 8.05664 C 48.8281 8.05664 51.2695 5.95703 51.2695 1.02539 L 51.2695 -23.7305 C 51.2695 -28.6133 48.8281 -30.7617 44.2871 -30.7617 L 19.4336 -30.7617 C 14.8926 -30.7617 12.4512 -28.6133 12.4512 -23.7305 L 12.4512 1.02539 C 12.4512 5.95703 14.8926 8.05664 19.4336 8.05664 Z M 67.041 8.05664 L 91.8945 8.05664 C 96.4355 8.05664 98.877 5.95703 98.877 1.02539 L 98.877 -23.7305 C 98.877 -28.6133 96.4355 -30.7617 91.8945 -30.7617 L 67.041 -30.7617 C 62.5 -30.7617 60.0586 -28.6133 60.0586 -23.7305 L 60.0586 1.02539 C 60.0586 5.95703 62.5 8.05664 67.041 8.05664 Z M 114.648 8.05664 L 139.502 8.05664 C 144.092 8.05664 146.484 5.95703 146.484 1.02539 L 146.484 -23.7305 C 146.484 -28.6133 144.092 -30.7617 139.502 -30.7617 L 114.648 -30.7617 C 110.107 -30.7617 107.666 -28.6133 107.666 -23.7305 L 107.666 1.02539 C 107.666 5.95703 110.107 8.05664 114.648 8.05664 Z"/>
  </g>
  <g id="Ultralight-M" transform="matrix(1 0 0 1 480.951 1126)">
   <path d="M 18.75 -39.6484 L 44.3848 -39.6484 C 48.4375 -39.6484 50.6836 -41.4551 50.6836 -45.9473 L 50.6836 -71.5332 C 50.6836 -76.0254 48.4375 -77.832 44.3848 -77.832 L 18.75 -77.832 C 14.6973 -77.832 12.4512 -76.0254 12.4512 -71.5332 L 12.4512 -45.9473 C 12.4512 -41.4551 14.6973 -39.6484 18.75 -39.6484 Z M 65.9668 -39.6484 L 91.5527 -39.6484 C 95.6543 -39.6484 97.9004 -41.4551 97.9004 -45.9473 L 97.9004 -71.5332 C 97.9004 -76.0254 95.6543 -77.832 91.5527 -77.832 L 65.9668 -77.832 C 61.8652 -77.832 59.668 -76.0254 59.668 -71.5332 L 59.668 -45.9473 C 59.668 -41.4551 61.8652 -39.6484 65.9668 -39.6484 Z M 113.184 -39.6484 L 138.77 -39.6484 C 142.871 -39.6484 145.068 -41.4551 145.068 -45.9473 L 145.068 -71.5332 C 145.068 -76.0254 142.871 -77.832 138.77 -77.832 L 113.184 -77.832 C 109.082 -77.832 106.885 -76.0254 106.885 -71.5332 L 106.885 -45.9473 C 106.885 -41.4551 109.082 -39.6484 113.184 -39.6484 Z M 18.75 7.56836 L 44.3848 7.56836 C 48.4375 7.56836 50.6836 5.71289 50.6836 1.26953 L 50.6836 -24.3652 C 50.6836 -28.8086 48.4375 -30.6152 44.3848 -30.6152 L 18.75 -30.6152 C 14.6973 -30.6152 12.4512 -28.8086 12.4512 -24.3652 L 12.4512 1.26953 C 12.4512 5.71289 14.6973 7.56836 18.75 7.56836 Z M 65.9668 7.56836 L 91.5527 7.56836 C 95.6543 7.56836 97.9004 5.71289 97.9004 1.26953 L 97.9004 -24.3652 C 97.9004 -28.8086 95.6543 -30.6152 91.5527 -30.6152 L 65.9668 -30.6152 C 61.8652 -30.6152 59.668 -28.8086 59.668 -24.3652 L 59.668 1.26953 C 59.668 5.71289 61.8652 7.56836 65.9668 7.56836 Z M 113.184 7.56836 L 138.77 7.56836 C 142.871 7.56836 145.068 5.71289 145.068 1.26953 L 145.068 -24.3652 C 145.068 -28.8086 142.871 -30.6152 138.77 -30.6152 L 113.184 -30.6152 C 109.082 -30.6152 106.885 -28.8086 106.885 -24.3652 L 106.885 1.26953 C 106.885 5.71289 109.082 7.56836 113.184 7.56836 Z"/>
  </g>
  <g id="Black-S" transform="matrix(1 0 0 1 2865.38 696)">
   <path d="M 22.5586 -37.3047 L 33.0078 -37.3047 C 41.7969 -37.3047 45.8008 -41.3086 45.8008 -50.0977 L 45.8008 -60.5469 C 45.8008 -69.3359 41.7969 -73.3398 33.0078 -73.3398 L 22.5586 -73.3398 C 13.7695 -73.3398 9.76562 -69.3359 9.76562 -60.5469 L 9.76562 -50.0977 C 9.76562 -41.3086 13.7695 -37.3047 22.5586 -37.3047 Z M 62.793 -37.3047 L 73.2422 -37.3047 C 82.0312 -37.3047 86.0352 -41.3086 86.0352 -50.0977 L 86.0352 -60.5469 C 86.0352 -69.3359 82.0312 -73.3398 73.2422 -73.3398 L 62.793 -73.3398 C 54.0039 -73.3398 50 -69.3359 50 -60.5469 L 50 -50.0977 C 50 -41.3086 54.0039 -37.3047 62.793 -37.3047 Z M 103.027 -37.3047 L 113.477 -37.3047 C 122.266 -37.3047 126.27 -41.3086 126.27 -50.0977 L 126.27 -60.5469 C 126.27 -69.3359 122.266 -73.3398 113.477 -73.3398 L 103.027 -73.3398 C 94.2383 -73.3398 90.2344 -69.3359 90.2344 -60.5469 L 90.2344 -50.0977 C 90.2344 -41.3086 94.2383 -37.3047 103.027 -37.3047 Z M 22.5586 2.92969 L 33.0078 2.92969 C 41.7969 2.92969 45.8008 -1.07422 45.8008 -9.86328 L 45.8008 -20.3125 C 45.8008 -29.1016 41.7969 -33.1055 33.0078 -33.1055 L 22.5586 -33.1055 C 13.7695 -33.1055 9.76562 -29.1016 9.76562 -20.3125 L 9.76562 -9.86328 C 9.76562 -1.07422 13.7695 2.92969 22.5586 2.92969 Z M 62.793 2.92969 L 73.2422 2.92969 C 82.0312 2.92969 86.0352 -1.07422 86.0352 -9.86328 L 86.0352 -20.3125 C 86.0352 -29.1016 82.0312 -33.1055 73.2422 -33.1055 L 62.793 -33.1055 C 54.0039 -33.1055 50 -29.1016 50 -20.3125 L 50 -9.86328 C 50 -1.07422 54.0039 2.92969 62.793 2.92969 Z M 103.027 2.92969 L 113.477 2.92969 C 122.266 2.92969 126.27 -1.07422 126.27 -9.86328 L 126.27 -20.3125 C 126.27 -29.1016 122.266 -33.1055 113.477 -33.1055 L 103.027 -33.1055 C 94.2383 -33.1055 90.2344 -29.1016 90.2344 -20.3125 L 90.2344 -9.86328 C 90.2344 -1.07422 94.2383 2.92969 103.027 2.92969 Z"/>
  </g>
  <g id="Heavy-S" transform="matrix(1 0 0 1 2569.45 696)">
   <path d="M 21.3867 -37.5488 L 33.3496 -37.5488 C 41.3086 -37.5488 44.9707 -41.2109 44.9707 -49.2188 L 44.9707 -61.084 C 44.9707 -69.043 41.3086 -72.7539 33.3496 -72.7539 L 21.3867 -72.7539 C 13.4277 -72.7539 9.76562 -69.043 9.76562 -61.084 L 9.76562 -49.2188 C 9.76562 -41.2109 13.4277 -37.5488 21.3867 -37.5488 Z M 61.2305 -37.5488 L 73.1934 -37.5488 C 81.1523 -37.5488 84.8145 -41.2109 84.8145 -49.2188 L 84.8145 -61.084 C 84.8145 -69.043 81.1523 -72.7539 73.1934 -72.7539 L 61.2305 -72.7539 C 53.3203 -72.7539 49.6094 -69.043 49.6094 -61.084 L 49.6094 -49.2188 C 49.6094 -41.2109 53.3203 -37.5488 61.2305 -37.5488 Z M 101.123 -37.5488 L 113.086 -37.5488 C 121.045 -37.5488 124.707 -41.2109 124.707 -49.2188 L 124.707 -61.084 C 124.707 -69.043 121.045 -72.7539 113.086 -72.7539 L 101.123 -72.7539 C 93.1641 -72.7539 89.502 -69.043 89.502 -61.084 L 89.502 -49.2188 C 89.502 -41.2109 93.1641 -37.5488 101.123 -37.5488 Z M 21.3867 2.34375 L 33.3496 2.34375 C 41.3086 2.34375 44.9707 -1.36719 44.9707 -9.32617 L 44.9707 -21.1914 C 44.9707 -29.1992 41.3086 -32.8613 33.3496 -32.8613 L 21.3867 -32.8613 C 13.4277 -32.8613 9.76562 -29.1992 9.76562 -21.1914 L 9.76562 -9.32617 C 9.76562 -1.36719 13.4277 2.34375 21.3867 2.34375 Z M 61.2305 2.34375 L 73.1934 2.34375 C 81.1523 2.34375 84.8145 -1.36719 84.8145 -9.32617 L 84.8145 -21.1914 C 84.8145 -29.1992 81.1523 -32.8613 73.1934 -32.8613 L 61.2305 -32.8613 C 53.3203 -32.8613 49.6094 -29.1992 49.6094 -21.1914 L 49.6094 -9.32617 C 49.6094 -1.36719 53.3203 2.34375 61.2305 2.34375 Z M 101.123 2.34375 L 113.086 2.34375 C 121.045 2.34375 124.707 -1.36719 124.707 -9.32617 L 124.707 -21.1914 C 124.707 -29.1992 121.045 -32.8613 113.086 -32.8613 L 101.123 -32.8613 C 93.1641 -32.8613 89.502 -29.1992 89.502 -21.1914 L 89.502 -9.32617 C 89.502 -1.36719 93.1641 2.34375 101.123 2.34375 Z"/>
  </g>
  <g id="Bold-S" transform="matrix(1 0 0 1 2273.62 696)">
   <path d="M 20.0684 -37.793 L 33.7402 -37.793 C 40.7227 -37.793 44.043 -41.1133 44.043 -48.1934 L 44.043 -61.6699 C 44.043 -68.75 40.7227 -72.0703 33.7402 -72.0703 L 20.0684 -72.0703 C 13.0859 -72.0703 9.76562 -68.75 9.76562 -61.6699 L 9.76562 -48.1934 C 9.76562 -41.1133 13.0859 -37.793 20.0684 -37.793 Z M 59.5215 -37.793 L 73.1934 -37.793 C 80.1758 -37.793 83.4961 -41.1133 83.4961 -48.1934 L 83.4961 -61.6699 C 83.4961 -68.75 80.1758 -72.0703 73.1934 -72.0703 L 59.5215 -72.0703 C 52.5391 -72.0703 49.2188 -68.75 49.2188 -61.6699 L 49.2188 -48.1934 C 49.2188 -41.1133 52.5391 -37.793 59.5215 -37.793 Z M 98.9746 -37.793 L 112.646 -37.793 C 119.629 -37.793 122.949 -41.1133 122.949 -48.1934 L 122.949 -61.6699 C 122.949 -68.75 119.629 -72.0703 112.646 -72.0703 L 98.9746 -72.0703 C 91.9922 -72.0703 88.6719 -68.75 88.6719 -61.6699 L 88.6719 -48.1934 C 88.6719 -41.1133 91.9922 -37.793 98.9746 -37.793 Z M 20.0684 1.66016 L 33.7402 1.66016 C 40.7227 1.66016 44.043 -1.66016 44.043 -8.74023 L 44.043 -22.2168 C 44.043 -29.2969 40.7227 -32.6172 33.7402 -32.6172 L 20.0684 -32.6172 C 13.0859 -32.6172 9.76562 -29.2969 9.76562 -22.2168 L 9.76562 -8.74023 C 9.76562 -1.66016 13.0859 1.66016 20.0684 1.66016 Z M 59.5215 1.66016 L 73.1934 1.66016 C 80.1758 1.66016 83.4961 -1.66016 83.4961 -8.74023 L 83.4961 -22.2168 C 83.4961 -29.2969 80.1758 -32.6172 73.1934 -32.6172 L 59.5215 -32.6172 C 52.5391 -32.6172 49.2188 -29.2969 49.2188 -22.2168 L 49.2188 -8.74023 C 49.2188 -1.66016 52.5391 1.66016 59.5215 1.66016 Z M 98.9746 1.66016 L 112.646 1.66016 C 119.629 1.66016 122.949 -1.66016 122.949 -8.74023 L 122.949 -22.2168 C 122.949 -29.2969 119.629 -32.6172 112.646 -32.6172 L 98.9746 -32.6172 C 91.9922 -32.6172 88.6719 -29.2969 88.6719 -22.2168 L 88.6719 -8.74023 C 88.6719 -1.66016 91.9922 1.66016 98.9746 1.66016 Z"/>
  </g>
  <g id="Semibold-S" transform="matrix(1 0 0 1 1977.52 696)">
   <path d="M 19.1406 -37.9883 L 33.9844 -37.9883 C 40.332 -37.9883 43.3594 -41.0645 43.3594 -47.5098 L 43.3594 -62.0605 C 43.3594 -68.5547 40.332 -71.582 33.9844 -71.582 L 19.1406 -71.582 C 12.793 -71.582 9.76562 -68.5547 9.76562 -62.0605 L 9.76562 -47.5098 C 9.76562 -41.0645 12.793 -37.9883 19.1406 -37.9883 Z M 58.3496 -37.9883 L 73.1445 -37.9883 C 79.4922 -37.9883 82.5684 -41.0645 82.5684 -47.5098 L 82.5684 -62.0605 C 82.5684 -68.5547 79.4922 -71.582 73.1445 -71.582 L 58.3496 -71.582 C 52.002 -71.582 48.9258 -68.5547 48.9258 -62.0605 L 48.9258 -47.5098 C 48.9258 -41.0645 52.002 -37.9883 58.3496 -37.9883 Z M 97.5098 -37.9883 L 112.354 -37.9883 C 118.701 -37.9883 121.729 -41.0645 121.729 -47.5098 L 121.729 -62.0605 C 121.729 -68.5547 118.701 -71.582 112.354 -71.582 L 97.5098 -71.582 C 91.1621 -71.582 88.0859 -68.5547 88.0859 -62.0605 L 88.0859 -47.5098 C 88.0859 -41.0645 91.1621 -37.9883 97.5098 -37.9883 Z M 19.1406 1.17188 L 33.9844 1.17188 C 40.332 1.17188 43.3594 -1.85547 43.3594 -8.34961 L 43.3594 -22.9004 C 43.3594 -29.3457 40.332 -32.4219 33.9844 -32.4219 L 19.1406 -32.4219 C 12.793 -32.4219 9.76562 -29.3457 9.76562 -22.9004 L 9.76562 -8.34961 C 9.76562 -1.85547 12.793 1.17188 19.1406 1.17188 Z M 58.3496 1.17188 L 73.1445 1.17188 C 79.4922 1.17188 82.5684 -1.85547 82.5684 -8.34961 L 82.5684 -22.9004 C 82.5684 -29.3457 79.4922 -32.4219 73.1445 -32.4219 L 58.3496 -32.4219 C 52.002 -32.4219 48.9258 -29.3457 48.9258 -22.9004 L 48.9258 -8.34961 C 48.9258 -1.85547 52.002 1.17188 58.3496 1.17188 Z M 97.5098 1.17188 L 112.354 1.17188 C 118.701 1.17188 121.729 -1.85547 121.729 -8.34961 L 121.729 -22.9004 C 121.729 -29.3457 118.701 -32.4219 112.354 -32.4219 L 97.5098 -32.4219 C 91.1621 -32.4219 88.0859 -29.3457 88.0859 -22.9004 L 88.0859 -8.34961 C 88.0859 -1.85547 91.1621 1.17188 97.5098 1.17188 Z"/>
  </g>
  <g id="Medium-S" transform="matrix(1 0 0 1 1681.27 696)">
   <path d="M 18.457 -38.1348 L 34.1797 -38.1348 C 40.0391 -38.1348 42.8711 -41.0156 42.8711 -46.9727 L 42.8711 -62.4023 C 42.8711 -68.3594 40.0391 -71.2402 34.1797 -71.2402 L 18.457 -71.2402 C 12.5977 -71.2402 9.76562 -68.3594 9.76562 -62.4023 L 9.76562 -46.9727 C 9.76562 -41.0156 12.5977 -38.1348 18.457 -38.1348 Z M 57.4219 -38.1348 L 73.1445 -38.1348 C 79.0039 -38.1348 81.8359 -41.0156 81.8359 -46.9727 L 81.8359 -62.4023 C 81.8359 -68.3594 79.0039 -71.2402 73.1445 -71.2402 L 57.4219 -71.2402 C 51.5625 -71.2402 48.7305 -68.3594 48.7305 -62.4023 L 48.7305 -46.9727 C 48.7305 -41.0156 51.5625 -38.1348 57.4219 -38.1348 Z M 96.3867 -38.1348 L 112.109 -38.1348 C 117.969 -38.1348 120.801 -41.0156 120.801 -46.9727 L 120.801 -62.4023 C 120.801 -68.3594 117.969 -71.2402 112.109 -71.2402 L 96.3867 -71.2402 C 90.5273 -71.2402 87.6953 -68.3594 87.6953 -62.4023 L 87.6953 -46.9727 C 87.6953 -41.0156 90.5273 -38.1348 96.3867 -38.1348 Z M 18.457 0.830078 L 34.1797 0.830078 C 40.0391 0.830078 42.8711 -2.05078 42.8711 -8.00781 L 42.8711 -23.4375 C 42.8711 -29.3945 40.0391 -32.2754 34.1797 -32.2754 L 18.457 -32.2754 C 12.5977 -32.2754 9.76562 -29.3945 9.76562 -23.4375 L 9.76562 -8.00781 C 9.76562 -2.05078 12.5977 0.830078 18.457 0.830078 Z M 57.4219 0.830078 L 73.1445 0.830078 C 79.0039 0.830078 81.8359 -2.05078 81.8359 -8.00781 L 81.8359 -23.4375 C 81.8359 -29.3945 79.0039 -32.2754 73.1445 -32.2754 L 57.4219 -32.2754 C 51.5625 -32.2754 48.7305 -29.3945 48.7305 -23.4375 L 48.7305 -8.00781 C 48.7305 -2.05078 51.5625 0.830078 57.4219 0.830078 Z M 96.3867 0.830078 L 112.109 0.830078 C 117.969 0.830078 120.801 -2.05078 120.801 -8.00781 L 120.801 -23.4375 C 120.801 -29.3945 117.969 -32.2754 112.109 -32.2754 L 96.3867 -32.2754 C 90.5273 -32.2754 87.6953 -29.3945 87.6953 -23.4375 L 87.6953 -8.00781 C 87.6953 -2.05078 90.5273 0.830078 96.3867 0.830078 Z"/>
  </g>
  <g id="Regular-S" transform="matrix(1 0 0 1 1385.17 696)">
   <path d="M 17.5781 -38.2812 L 34.4238 -38.2812 C 39.6484 -38.2812 42.2363 -40.918 42.2363 -46.2891 L 42.2363 -62.793 C 42.2363 -68.1641 39.6484 -70.8008 34.4238 -70.8008 L 17.5781 -70.8008 C 12.3535 -70.8008 9.76562 -68.1641 9.76562 -62.793 L 9.76562 -46.2891 C 9.76562 -40.918 12.3535 -38.2812 17.5781 -38.2812 Z M 56.25 -38.2812 L 73.0957 -38.2812 C 78.3203 -38.2812 80.9082 -40.918 80.9082 -46.2891 L 80.9082 -62.793 C 80.9082 -68.1641 78.3203 -70.8008 73.0957 -70.8008 L 56.25 -70.8008 C 51.0254 -70.8008 48.4375 -68.1641 48.4375 -62.793 L 48.4375 -46.2891 C 48.4375 -40.918 51.0254 -38.2812 56.25 -38.2812 Z M 94.9219 -38.2812 L 111.816 -38.2812 C 116.992 -38.2812 119.58 -40.918 119.58 -46.2891 L 119.58 -62.793 C 119.58 -68.1641 116.992 -70.8008 111.816 -70.8008 L 94.9219 -70.8008 C 89.6973 -70.8008 87.1094 -68.1641 87.1094 -62.793 L 87.1094 -46.2891 C 87.1094 -40.918 89.6973 -38.2812 94.9219 -38.2812 Z M 17.5781 0.390625 L 34.4238 0.390625 C 39.6484 0.390625 42.2363 -2.24609 42.2363 -7.61719 L 42.2363 -24.1211 C 42.2363 -29.4922 39.6484 -32.0801 34.4238 -32.0801 L 17.5781 -32.0801 C 12.3535 -32.0801 9.76562 -29.4922 9.76562 -24.1211 L 9.76562 -7.61719 C 9.76562 -2.24609 12.3535 0.390625 17.5781 0.390625 Z M 56.25 0.390625 L 73.0957 0.390625 C 78.3203 0.390625 80.9082 -2.24609 80.9082 -7.61719 L 80.9082 -24.1211 C 80.9082 -29.4922 78.3203 -32.0801 73.0957 -32.0801 L 56.25 -32.0801 C 51.0254 -32.0801 48.4375 -29.4922 48.4375 -24.1211 L 48.4375 -7.61719 C 48.4375 -2.24609 51.0254 0.390625 56.25 0.390625 Z M 94.9219 0.390625 L 111.816 0.390625 C 116.992 0.390625 119.58 -2.24609 119.58 -7.61719 L 119.58 -24.1211 C 119.58 -29.4922 116.992 -32.0801 111.816 -32.0801 L 94.9219 -32.0801 C 89.6973 -32.0801 87.1094 -29.4922 87.1094 -24.1211 L 87.1094 -7.61719 C 87.1094 -2.24609 89.6973 0.390625 94.9219 0.390625 Z"/>
  </g>
  <g id="Light-S" transform="matrix(1 0 0 1 1089.36 696)">
   <path d="M 16.6504 -38.4277 L 34.5215 -38.4277 C 39.1113 -38.4277 41.4551 -40.6738 41.4551 -45.459 L 41.4551 -63.0859 C 41.4551 -67.8711 39.1113 -70.1172 34.5215 -70.1172 L 16.6504 -70.1172 C 12.1094 -70.1172 9.76562 -67.8711 9.76562 -63.0859 L 9.76562 -45.459 C 9.76562 -40.6738 12.1094 -38.4277 16.6504 -38.4277 Z M 54.834 -38.4277 L 72.7051 -38.4277 C 77.2949 -38.4277 79.5898 -40.6738 79.5898 -45.459 L 79.5898 -63.0859 C 79.5898 -67.8711 77.2949 -70.1172 72.7051 -70.1172 L 54.834 -70.1172 C 50.2441 -70.1172 47.9004 -67.8711 47.9004 -63.0859 L 47.9004 -45.459 C 47.9004 -40.6738 50.2441 -38.4277 54.834 -38.4277 Z M 92.9688 -38.4277 L 110.84 -38.4277 C 115.43 -38.4277 117.773 -40.6738 117.773 -45.459 L 117.773 -63.0859 C 117.773 -67.8711 115.43 -70.1172 110.84 -70.1172 L 92.9688 -70.1172 C 88.3789 -70.1172 86.084 -67.8711 86.084 -63.0859 L 86.084 -45.459 C 86.084 -40.6738 88.3789 -38.4277 92.9688 -38.4277 Z M 16.6504 -0.292969 L 34.5215 -0.292969 C 39.1113 -0.292969 41.4551 -2.53906 41.4551 -7.32422 L 41.4551 -24.9023 C 41.4551 -29.6875 39.1113 -31.9336 34.5215 -31.9336 L 16.6504 -31.9336 C 12.1094 -31.9336 9.76562 -29.6875 9.76562 -24.9023 L 9.76562 -7.32422 C 9.76562 -2.53906 12.1094 -0.292969 16.6504 -0.292969 Z M 54.834 -0.292969 L 72.7051 -0.292969 C 77.2949 -0.292969 79.5898 -2.53906 79.5898 -7.32422 L 79.5898 -24.9023 C 79.5898 -29.6875 77.2949 -31.9336 72.7051 -31.9336 L 54.834 -31.9336 C 50.2441 -31.9336 47.9004 -29.6875 47.9004 -24.9023 L 47.9004 -7.32422 C 47.9004 -2.53906 50.2441 -0.292969 54.834 -0.292969 Z M 92.9688 -0.292969 L 110.84 -0.292969 C 115.43 -0.292969 117.773 -2.53906 117.773 -7.32422 L 117.773 -24.9023 C 117.773 -29.6875 115.43 -31.9336 110.84 -31.9336 L 92.9688 -31.9336 C 88.3789 -31.9336 86.084 -29.6875 86.084 -24.9023 L 86.084 -7.32422 C 86.084 -2.53906 88.3789 -0.292969 92.9688 -0.292969 Z"/>
  </g>
  <g id="Thin-S" transform="matrix(1 0 0 1 793.873 696)">
   <path d="M 15.4785 -38.5742 L 34.668 -38.5742 C 38.4277 -38.5742 40.4297 -40.332 40.4297 -44.3359 L 40.4297 -63.4277 C 40.4297 -67.4316 38.4277 -69.2383 34.668 -69.2383 L 15.4785 -69.2383 C 11.7676 -69.2383 9.76562 -67.4316 9.76562 -63.4277 L 9.76562 -44.3359 C 9.76562 -40.332 11.7676 -38.5742 15.4785 -38.5742 Z M 52.9297 -38.5742 L 72.1191 -38.5742 C 75.8789 -38.5742 77.8809 -40.332 77.8809 -44.3359 L 77.8809 -63.4277 C 77.8809 -67.4316 75.8789 -69.2383 72.1191 -69.2383 L 52.9297 -69.2383 C 49.2188 -69.2383 47.2168 -67.4316 47.2168 -63.4277 L 47.2168 -44.3359 C 47.2168 -40.332 49.2188 -38.5742 52.9297 -38.5742 Z M 90.3809 -38.5742 L 109.57 -38.5742 C 113.33 -38.5742 115.332 -40.332 115.332 -44.3359 L 115.332 -63.4277 C 115.332 -67.4316 113.33 -69.2383 109.57 -69.2383 L 90.3809 -69.2383 C 86.6699 -69.2383 84.668 -67.4316 84.668 -63.4277 L 84.668 -44.3359 C 84.668 -40.332 86.6699 -38.5742 90.3809 -38.5742 Z M 15.4785 -1.12305 L 34.668 -1.12305 C 38.4277 -1.12305 40.4297 -2.88086 40.4297 -6.88477 L 40.4297 -25.9766 C 40.4297 -29.9805 38.4277 -31.7871 34.668 -31.7871 L 15.4785 -31.7871 C 11.7676 -31.7871 9.76562 -29.9805 9.76562 -25.9766 L 9.76562 -6.88477 C 9.76562 -2.88086 11.7676 -1.12305 15.4785 -1.12305 Z M 52.9297 -1.12305 L 72.1191 -1.12305 C 75.8789 -1.12305 77.8809 -2.88086 77.8809 -6.88477 L 77.8809 -25.9766 C 77.8809 -29.9805 75.8789 -31.7871 72.1191 -31.7871 L 52.9297 -31.7871 C 49.2188 -31.7871 47.2168 -29.9805 47.2168 -25.9766 L 47.2168 -6.88477 C 47.2168 -2.88086 49.2188 -1.12305 52.9297 -1.12305 Z M 90.3809 -1.12305 L 109.57 -1.12305 C 113.33 -1.12305 115.332 -2.88086 115.332 -6.88477 L 115.332 -25.9766 C 115.332 -29.9805 113.33 -31.7871 109.57 -31.7871 L 90.3809 -31.7871 C 86.6699 -31.7871 84.668 -29.9805 84.668 -25.9766 L 84.668 -6.88477 C 84.668 -2.88086 86.6699 -1.12305 90.3809 -1.12305 Z"/>
  </g>
  <g id="Ultralight-S" transform="matrix(1 0 0 1 497.797 696)">
   <path d="M 14.8926 -38.6719 L 34.7656 -38.6719 C 38.0859 -38.6719 39.8926 -40.1855 39.8926 -43.7988 L 39.8926 -63.623 C 39.8926 -67.2363 38.0859 -68.75 34.7656 -68.75 L 14.8926 -68.75 C 11.5723 -68.75 9.76562 -67.2363 9.76562 -63.623 L 9.76562 -43.7988 C 9.76562 -40.1855 11.5723 -38.6719 14.8926 -38.6719 Z M 52.002 -38.6719 L 71.8262 -38.6719 C 75.1465 -38.6719 76.9531 -40.1855 76.9531 -43.7988 L 76.9531 -63.623 C 76.9531 -67.2363 75.1465 -68.75 71.8262 -68.75 L 52.002 -68.75 C 48.6816 -68.75 46.875 -67.2363 46.875 -63.623 L 46.875 -43.7988 C 46.875 -40.1855 48.6816 -38.6719 52.002 -38.6719 Z M 89.0625 -38.6719 L 108.936 -38.6719 C 112.256 -38.6719 114.062 -40.1855 114.062 -43.7988 L 114.062 -63.623 C 114.062 -67.2363 112.256 -68.75 108.936 -68.75 L 89.0625 -68.75 C 85.7422 -68.75 83.9355 -67.2363 83.9355 -63.623 L 83.9355 -43.7988 C 83.9355 -40.1855 85.7422 -38.6719 89.0625 -38.6719 Z M 14.8926 -1.5625 L 34.7656 -1.5625 C 38.0859 -1.5625 39.8926 -3.07617 39.8926 -6.68945 L 39.8926 -26.5137 C 39.8926 -30.127 38.0859 -31.6406 34.7656 -31.6406 L 14.8926 -31.6406 C 11.5723 -31.6406 9.76562 -30.127 9.76562 -26.5137 L 9.76562 -6.68945 C 9.76562 -3.07617 11.5723 -1.5625 14.8926 -1.5625 Z M 52.002 -1.5625 L 71.8262 -1.5625 C 75.1465 -1.5625 76.9531 -3.07617 76.9531 -6.68945 L 76.9531 -26.5137 C 76.9531 -30.127 75.1465 -31.6406 71.8262 -31.6406 L 52.002 -31.6406 C 48.6816 -31.6406 46.875 -30.127 46.875 -26.5137 L 46.875 -6.68945 C 46.875 -3.07617 48.6816 -1.5625 52.002 -1.5625 Z M 89.0625 -1.5625 L 108.936 -1.5625 C 112.256 -1.5625 114.062 -3.07617 114.062 -6.68945 L 114.062 -26.5137 C 114.062 -30.127 112.256 -31.6406 108.936 -31.6406 L 89.0625 -31.6406 C 85.7422 -31.6406 83.9355 -30.127 83.9355 -26.5137 L 83.9355 -6.68945 C 83.9355 -3.07617 85.7422 -1.5625 89.0625 -1.5625 Z"/>
  </g>
 </g>
</svg>
