<?xml version="1.0" encoding="UTF-8"?>
<!--Generator: Apple Native CoreSVG 123-->
<!DOCTYPE svg
PUBLIC "-//W3C//DTD SVG 1.1//EN"
       "http://www.w3.org/Graphics/SVG/1.1/DTD/svg11.dtd">
<svg version="1.1" xmlns="http://www.w3.org/2000/svg" xmlns:xlink="http://www.w3.org/1999/xlink" width="3300" height="2200">
 <!--glyph: "uni10025F.medium", point size: 100.000000, font version: "Version 15.0d7e11", template writer version: "5"-->
 <g id="Notes">
  <rect height="2200" id="artboard" style="fill:white;opacity:1" width="3300" x="0" y="0"/>
  <line id="" style="fill:none;stroke:black;opacity:1;stroke-width:0.5;" x1="263" x2="3036" y1="292" y2="292"/>
  <text style="stroke:none;fill:black;font-family:-apple-system,&quot;SF Pro Display&quot;,&quot;SF Pro Text&quot;,Helvetica,sans-serif;font-weight:bold;" transform="matrix(1 0 0 1 263 322)">Weight/Scale Variations</text>
  <text style="stroke:none;fill:black;font-family:-apple-system,&quot;SF Pro Display&quot;,&quot;SF Pro Text&quot;,Helvetica,sans-serif;text-anchor:middle;" transform="matrix(1 0 0 1 559.711 322)">Ultralight</text>
  <text style="stroke:none;fill:black;font-family:-apple-system,&quot;SF Pro Display&quot;,&quot;SF Pro Text&quot;,Helvetica,sans-serif;text-anchor:middle;" transform="matrix(1 0 0 1 856.422 322)">Thin</text>
  <text style="stroke:none;fill:black;font-family:-apple-system,&quot;SF Pro Display&quot;,&quot;SF Pro Text&quot;,Helvetica,sans-serif;text-anchor:middle;" transform="matrix(1 0 0 1 1153.13 322)">Light</text>
  <text style="stroke:none;fill:black;font-family:-apple-system,&quot;SF Pro Display&quot;,&quot;SF Pro Text&quot;,Helvetica,sans-serif;text-anchor:middle;" transform="matrix(1 0 0 1 1449.84 322)">Regular</text>
  <text style="stroke:none;fill:black;font-family:-apple-system,&quot;SF Pro Display&quot;,&quot;SF Pro Text&quot;,Helvetica,sans-serif;text-anchor:middle;" transform="matrix(1 0 0 1 1746.56 322)">Medium</text>
  <text style="stroke:none;fill:black;font-family:-apple-system,&quot;SF Pro Display&quot;,&quot;SF Pro Text&quot;,Helvetica,sans-serif;text-anchor:middle;" transform="matrix(1 0 0 1 2043.27 322)">Semibold</text>
  <text style="stroke:none;fill:black;font-family:-apple-system,&quot;SF Pro Display&quot;,&quot;SF Pro Text&quot;,Helvetica,sans-serif;text-anchor:middle;" transform="matrix(1 0 0 1 2339.98 322)">Bold</text>
  <text style="stroke:none;fill:black;font-family:-apple-system,&quot;SF Pro Display&quot;,&quot;SF Pro Text&quot;,Helvetica,sans-serif;text-anchor:middle;" transform="matrix(1 0 0 1 2636.69 322)">Heavy</text>
  <text style="stroke:none;fill:black;font-family:-apple-system,&quot;SF Pro Display&quot;,&quot;SF Pro Text&quot;,Helvetica,sans-serif;text-anchor:middle;" transform="matrix(1 0 0 1 2933.4 322)">Black</text>
  <line id="" style="fill:none;stroke:black;opacity:1;stroke-width:0.5;" x1="263" x2="3036" y1="1903" y2="1903"/>
  <g id="" transform="matrix(1 0 0 1 263 1933)">
   <path d="M 9.24805 0.830078 C 13.5547 0.830078 17.1387 -2.74414 17.1387 -7.05078 C 17.1387 -11.3574 13.5449 -14.9316 9.23828 -14.9316 C 4.94141 -14.9316 1.36719 -11.3574 1.36719 -7.05078 C 1.36719 -2.74414 4.95117 0.830078 9.24805 0.830078 Z M 9.24805 -0.654297 C 5.70312 -0.654297 2.87109 -3.49609 2.87109 -7.05078 C 2.87109 -10.6055 5.69336 -13.4473 9.23828 -13.4473 C 12.793 -13.4473 15.6348 -10.6055 15.6445 -7.05078 C 15.6543 -3.49609 12.8027 -0.654297 9.24805 -0.654297 Z M 9.22852 -3.42773 C 9.69727 -3.42773 9.9707 -3.74023 9.9707 -4.25781 L 9.9707 -6.31836 L 12.1973 -6.31836 C 12.6953 -6.31836 13.0371 -6.57227 13.0371 -7.04102 C 13.0371 -7.51953 12.7148 -7.7832 12.1973 -7.7832 L 9.9707 -7.7832 L 9.9707 -10.0098 C 9.9707 -10.5273 9.69727 -10.8496 9.22852 -10.8496 C 8.75977 -10.8496 8.50586 -10.5078 8.50586 -10.0098 L 8.50586 -7.7832 L 6.29883 -7.7832 C 5.78125 -7.7832 5.44922 -7.51953 5.44922 -7.04102 C 5.44922 -6.57227 5.80078 -6.31836 6.29883 -6.31836 L 8.50586 -6.31836 L 8.50586 -4.25781 C 8.50586 -3.75977 8.75977 -3.42773 9.22852 -3.42773 Z"/>
  </g>
  <g id="" transform="matrix(1 0 0 1 281.506 1933)">
   <path d="M 11.709 2.91016 C 17.1582 2.91016 21.6699 -1.60156 21.6699 -7.05078 C 21.6699 -12.4902 17.1484 -17.0117 11.6992 -17.0117 C 6.25977 -17.0117 1.74805 -12.4902 1.74805 -7.05078 C 1.74805 -1.60156 6.26953 2.91016 11.709 2.91016 Z M 11.709 1.25 C 7.09961 1.25 3.41797 -2.44141 3.41797 -7.05078 C 3.41797 -11.6504 7.08984 -15.3516 11.6992 -15.3516 C 16.3086 -15.3516 20 -11.6504 20.0098 -7.05078 C 20.0195 -2.44141 16.3184 1.25 11.709 1.25 Z M 11.6895 -2.41211 C 12.207 -2.41211 12.5195 -2.77344 12.5195 -3.33984 L 12.5195 -6.23047 L 15.5762 -6.23047 C 16.123 -6.23047 16.5039 -6.51367 16.5039 -7.03125 C 16.5039 -7.55859 16.1426 -7.86133 15.5762 -7.86133 L 12.5195 -7.86133 L 12.5195 -10.9277 C 12.5195 -11.5039 12.207 -11.8555 11.6895 -11.8555 C 11.1719 -11.8555 10.8789 -11.4844 10.8789 -10.9277 L 10.8789 -7.86133 L 7.83203 -7.86133 C 7.26562 -7.86133 6.89453 -7.55859 6.89453 -7.03125 C 6.89453 -6.51367 7.28516 -6.23047 7.83203 -6.23047 L 10.8789 -6.23047 L 10.8789 -3.33984 C 10.8789 -2.79297 11.1719 -2.41211 11.6895 -2.41211 Z"/>
  </g>
  <g id="" transform="matrix(1 0 0 1 304.924 1933)">
   <path d="M 14.9707 5.67383 C 21.9336 5.67383 27.6953 -0.078125 27.6953 -7.04102 C 27.6953 -14.0039 21.9238 -19.7559 14.9609 -19.7559 C 8.00781 -19.7559 2.25586 -14.0039 2.25586 -7.04102 C 2.25586 -0.078125 8.01758 5.67383 14.9707 5.67383 Z M 14.9707 3.85742 C 8.93555 3.85742 4.08203 -1.00586 4.08203 -7.04102 C 4.08203 -13.0762 8.92578 -17.9395 14.9609 -17.9395 C 21.0059 -17.9395 25.8594 -13.0762 25.8691 -7.04102 C 25.8789 -1.00586 21.0156 3.85742 14.9707 3.85742 Z M 14.9512 -1.06445 C 15.5176 -1.06445 15.8691 -1.45508 15.8691 -2.06055 L 15.8691 -6.13281 L 20.1074 -6.13281 C 20.6934 -6.13281 21.1133 -6.46484 21.1133 -7.02148 C 21.1133 -7.59766 20.7227 -7.93945 20.1074 -7.93945 L 15.8691 -7.93945 L 15.8691 -12.1875 C 15.8691 -12.8027 15.5176 -13.1934 14.9512 -13.1934 C 14.3848 -13.1934 14.0625 -12.7832 14.0625 -12.1875 L 14.0625 -7.93945 L 9.83398 -7.93945 C 9.21875 -7.93945 8.80859 -7.59766 8.80859 -7.02148 C 8.80859 -6.46484 9.23828 -6.13281 9.83398 -6.13281 L 14.0625 -6.13281 L 14.0625 -2.06055 C 14.0625 -1.47461 14.3848 -1.06445 14.9512 -1.06445 Z"/>
  </g>
  <text style="stroke:none;fill:black;font-family:-apple-system,&quot;SF Pro Display&quot;,&quot;SF Pro Text&quot;,Helvetica,sans-serif;font-weight:bold;" transform="matrix(1 0 0 1 263 1953)">Design Variations</text>
  <text style="stroke:none;fill:black;font-family:-apple-system,&quot;SF Pro Display&quot;,&quot;SF Pro Text&quot;,Helvetica,sans-serif;" transform="matrix(1 0 0 1 263 1971)">Symbols are supported in up to nine weights and three scales.</text>
  <text style="stroke:none;fill:black;font-family:-apple-system,&quot;SF Pro Display&quot;,&quot;SF Pro Text&quot;,Helvetica,sans-serif;" transform="matrix(1 0 0 1 263 1989)">For optimal layout with text and other symbols, vertically align</text>
  <text style="stroke:none;fill:black;font-family:-apple-system,&quot;SF Pro Display&quot;,&quot;SF Pro Text&quot;,Helvetica,sans-serif;" transform="matrix(1 0 0 1 263 2007)">symbols with the adjacent text.</text>
  <rect height="14" id="" style="fill:#00AEEF;stroke:none;opacity:0.4;" width="3" x="776" y="1919"/>
  <g id="" transform="matrix(1 0 0 1 779 1933)">
   <path d="M 10.5273 0 L 12.373 0 L 7.17773 -14.0918 L 5.43945 -14.0918 L 0.244141 0 L 2.08984 0 L 3.50586 -4.0332 L 9.11133 -4.0332 Z M 6.2793 -11.9531 L 6.33789 -11.9531 L 8.59375 -5.52734 L 4.02344 -5.52734 Z"/>
  </g>
  <rect height="14" id="" style="fill:#00AEEF;stroke:none;opacity:0.4;" width="3" x="791.617" y="1919"/>
  <text style="stroke:none;fill:black;font-family:-apple-system,&quot;SF Pro Display&quot;,&quot;SF Pro Text&quot;,Helvetica,sans-serif;font-weight:bold;" transform="matrix(1 0 0 1 776 1953)">Margins</text>
  <text style="stroke:none;fill:black;font-family:-apple-system,&quot;SF Pro Display&quot;,&quot;SF Pro Text&quot;,Helvetica,sans-serif;" transform="matrix(1 0 0 1 776 1971)">Leading and trailing margins on the left and right side of each symbol</text>
  <text style="stroke:none;fill:black;font-family:-apple-system,&quot;SF Pro Display&quot;,&quot;SF Pro Text&quot;,Helvetica,sans-serif;" transform="matrix(1 0 0 1 776 1989)">can be adjusted by modifying the width of the blue rectangles.</text>
  <text style="stroke:none;fill:black;font-family:-apple-system,&quot;SF Pro Display&quot;,&quot;SF Pro Text&quot;,Helvetica,sans-serif;" transform="matrix(1 0 0 1 776 2007)">Modifications are automatically applied proportionally to all</text>
  <text style="stroke:none;fill:black;font-family:-apple-system,&quot;SF Pro Display&quot;,&quot;SF Pro Text&quot;,Helvetica,sans-serif;" transform="matrix(1 0 0 1 776 2025)">scales and weights.</text>
  <g id="" transform="matrix(1 0 0 1 1289 1933)">
   <path d="M 2.83203 3.11523 L 4.375 4.6582 C 5.22461 5.48828 6.19141 5.41992 7.06055 4.46289 L 17.2754 -6.66016 C 17.7051 -6.36719 18.0957 -6.37695 18.5645 -6.47461 L 19.6094 -6.68945 L 20.3027 -5.99609 L 20.2539 -5.47852 C 20.1855 -4.95117 20.3516 -4.53125 20.8496 -4.0332 L 21.6602 -3.22266 C 22.168 -2.71484 22.8223 -2.68555 23.3008 -3.16406 L 26.5527 -6.41602 C 27.0312 -6.89453 27.0117 -7.54883 26.5039 -8.05664 L 25.6836 -8.87695 C 25.1855 -9.375 24.7754 -9.55078 24.2383 -9.47266 L 23.7109 -9.41406 L 23.0566 -10.0781 L 23.3398 -11.2207 C 23.4863 -11.7871 23.3398 -12.2559 22.7148 -12.8613 L 20.3027 -15.2539 C 16.7578 -18.7793 12.2266 -18.6719 9.11133 -15.5371 C 8.69141 -15.1074 8.64258 -14.5215 8.91602 -14.0918 C 9.15039 -13.7207 9.62891 -13.4961 10.2734 -13.6621 C 11.7871 -14.043 13.3008 -13.9258 14.7852 -12.9199 L 14.1602 -11.3379 C 13.9258 -10.752 13.9453 -10.2734 14.1797 -9.83398 L 3.01758 0.439453 C 2.08008 1.30859 1.97266 2.25586 2.83203 3.11523 Z M 10.6738 -15.1465 C 13.3398 -17.1387 16.6504 -16.8262 19.0527 -14.4141 L 21.6797 -11.8066 C 21.9141 -11.5723 21.9434 -11.3867 21.8848 -11.0938 L 21.5039 -9.53125 L 23.0762 -7.95898 L 24.043 -8.04688 C 24.3262 -8.07617 24.4141 -8.05664 24.6387 -7.83203 L 25.2637 -7.20703 L 22.5098 -4.46289 L 21.8848 -5.07812 C 21.6602 -5.30273 21.6406 -5.40039 21.6699 -5.68359 L 21.7578 -6.64062 L 20.1953 -8.20312 L 18.5742 -7.89062 C 18.291 -7.83203 18.1445 -7.83203 17.9102 -8.07617 L 15.7324 -10.2539 C 15.5078 -10.4883 15.4785 -10.625 15.6055 -10.9473 L 16.5527 -13.2227 C 14.9512 -14.7559 12.8418 -15.6055 10.8008 -14.9512 C 10.7129 -14.9219 10.6445 -14.9414 10.6152 -14.9805 C 10.5859 -15.0293 10.5859 -15.0781 10.6738 -15.1465 Z M 4.10156 2.41211 C 3.61328 1.91406 3.78906 1.61133 4.12109 1.30859 L 15.0781 -8.80859 L 16.3086 -7.57812 L 6.15234 3.34961 C 5.84961 3.68164 5.46875 3.7793 5.06836 3.37891 Z"/>
  </g>
  <text style="stroke:none;fill:black;font-family:-apple-system,&quot;SF Pro Display&quot;,&quot;SF Pro Text&quot;,Helvetica,sans-serif;font-weight:bold;" transform="matrix(1 0 0 1 1289 1953)">Exporting</text>
  <text style="stroke:none;fill:black;font-family:-apple-system,&quot;SF Pro Display&quot;,&quot;SF Pro Text&quot;,Helvetica,sans-serif;" transform="matrix(1 0 0 1 1289 1971)">Symbols should be outlined when exporting to ensure the</text>
  <text style="stroke:none;fill:black;font-family:-apple-system,&quot;SF Pro Display&quot;,&quot;SF Pro Text&quot;,Helvetica,sans-serif;" transform="matrix(1 0 0 1 1289 1989)">design is preserved when submitting to Xcode.</text>
  <text id="template-version" style="stroke:none;fill:black;font-family:-apple-system,&quot;SF Pro Display&quot;,&quot;SF Pro Text&quot;,Helvetica,sans-serif;text-anchor:end;" transform="matrix(1 0 0 1 3036 1933)">Template v.1.0</text>
  <text style="stroke:none;fill:black;font-family:-apple-system,&quot;SF Pro Display&quot;,&quot;SF Pro Text&quot;,Helvetica,sans-serif;text-anchor:end;" transform="matrix(1 0 0 1 3036 1951)">Generated from bookmark.fill</text>
  <text style="stroke:none;fill:black;font-family:-apple-system,&quot;SF Pro Display&quot;,&quot;SF Pro Text&quot;,Helvetica,sans-serif;text-anchor:end;" transform="matrix(1 0 0 1 3036 1969)">Typeset at 100 points</text>
  <text style="stroke:none;fill:black;font-family:-apple-system,&quot;SF Pro Display&quot;,&quot;SF Pro Text&quot;,Helvetica,sans-serif;" transform="matrix(1 0 0 1 263 726)">Small</text>
  <text style="stroke:none;fill:black;font-family:-apple-system,&quot;SF Pro Display&quot;,&quot;SF Pro Text&quot;,Helvetica,sans-serif;" transform="matrix(1 0 0 1 263 1156)">Medium</text>
  <text style="stroke:none;fill:black;font-family:-apple-system,&quot;SF Pro Display&quot;,&quot;SF Pro Text&quot;,Helvetica,sans-serif;" transform="matrix(1 0 0 1 263 1586)">Large</text>
 </g>
 <g id="Guides">
  <g id="H-reference" style="fill:#27AAE1;stroke:none;" transform="matrix(1 0 0 1 339 696)">
   <path d="M 54.9316 0 L 57.666 0 L 30.5664 -70.459 L 28.0762 -70.459 L 0.976562 0 L 3.66211 0 L 12.9395 -24.4629 L 45.7031 -24.4629 Z M 29.1992 -67.0898 L 29.4434 -67.0898 L 44.8242 -26.709 L 13.8184 -26.709 Z"/>
  </g>
  <line id="Baseline-S" style="fill:none;stroke:#27AAE1;opacity:1;stroke-width:0.577;" x1="263" x2="3036" y1="696" y2="696"/>
  <line id="Capline-S" style="fill:none;stroke:#27AAE1;opacity:1;stroke-width:0.577;" x1="263" x2="3036" y1="625.541" y2="625.541"/>
  <g id="H-reference" style="fill:#27AAE1;stroke:none;" transform="matrix(1 0 0 1 339 1126)">
   <path d="M 54.9316 0 L 57.666 0 L 30.5664 -70.459 L 28.0762 -70.459 L 0.976562 0 L 3.66211 0 L 12.9395 -24.4629 L 45.7031 -24.4629 Z M 29.1992 -67.0898 L 29.4434 -67.0898 L 44.8242 -26.709 L 13.8184 -26.709 Z"/>
  </g>
  <line id="Baseline-M" style="fill:none;stroke:#27AAE1;opacity:1;stroke-width:0.577;" x1="263" x2="3036" y1="1126" y2="1126"/>
  <line id="Capline-M" style="fill:none;stroke:#27AAE1;opacity:1;stroke-width:0.577;" x1="263" x2="3036" y1="1055.54" y2="1055.54"/>
  <g id="H-reference" style="fill:#27AAE1;stroke:none;" transform="matrix(1 0 0 1 339 1556)">
   <path d="M 54.9316 0 L 57.666 0 L 30.5664 -70.459 L 28.0762 -70.459 L 0.976562 0 L 3.66211 0 L 12.9395 -24.4629 L 45.7031 -24.4629 Z M 29.1992 -67.0898 L 29.4434 -67.0898 L 44.8242 -26.709 L 13.8184 -26.709 Z"/>
  </g>
  <line id="Baseline-L" style="fill:none;stroke:#27AAE1;opacity:1;stroke-width:0.577;" x1="263" x2="3036" y1="1556" y2="1556"/>
  <line id="Capline-L" style="fill:none;stroke:#27AAE1;opacity:1;stroke-width:0.577;" x1="263" x2="3036" y1="1485.54" y2="1485.54"/>
  <rect height="119.336" id="left-margin" style="fill:#00AEEF;stroke:none;opacity:0.4;" width="12.4512" x="1398.67" y="1030.79"/>
  <rect height="119.336" id="right-margin" style="fill:#00AEEF;stroke:none;opacity:0.4;" width="12.4512" x="1488.57" y="1030.79"/>
 </g>
 <g id="Symbols">
  <g id="Black-L" transform="matrix(1 0 0 1 2862.21 1556)">
   <path d="M 29.3457 37.9395 C 34.2285 37.9395 37.3535 35.6445 42.5293 30.9082 L 68.7012 6.68945 C 69.7266 5.76172 70.5078 5.46875 71.1914 5.46875 C 71.875 5.46875 72.7051 5.71289 73.7305 6.68945 L 101.221 32.2754 C 104.98 35.6934 108.105 37.9395 113.037 37.9395 C 120.166 37.9395 126.318 33.3496 126.318 23.7793 L 126.318 -84.375 C 126.318 -99.6094 117.676 -108.301 102.49 -108.301 L 39.8926 -108.301 C 24.707 -108.301 16.0645 -99.6094 16.0645 -84.375 L 16.0645 23.7793 C 16.0645 33.3496 22.2168 37.9395 29.3457 37.9395 Z"/>
  </g>
  <g id="Heavy-L" transform="matrix(1 0 0 1 2566.86 1556)">
   <path d="M 27.7344 36.4746 C 32.1289 36.4746 34.9121 34.375 40.1367 29.541 L 67.1875 4.24805 C 68.2617 3.17383 69.0918 2.88086 69.8242 2.88086 C 70.5566 2.88086 71.3867 3.17383 72.5586 4.24805 L 101.27 31.2988 C 104.688 34.4238 107.471 36.4746 111.914 36.4746 C 118.262 36.4746 123.584 32.4707 123.584 23.9746 L 123.584 -84.1309 C 123.584 -98.7305 115.527 -106.836 100.977 -106.836 L 38.7207 -106.836 C 24.1211 -106.836 16.0645 -98.7305 16.0645 -84.1309 L 16.0645 23.9746 C 16.0645 32.4707 21.3867 36.4746 27.7344 36.4746 Z"/>
  </g>
  <g id="Bold-L" transform="matrix(1 0 0 1 2271.67 1556)">
   <path d="M 25.8789 34.9121 C 29.7852 34.9121 32.1289 32.959 37.4512 28.0273 L 65.4297 1.46484 C 66.6992 0.292969 67.4805 0 68.3105 0 C 69.0918 0 69.9707 0.292969 71.1914 1.46484 L 101.318 30.1758 C 104.346 33.0078 106.836 34.9121 110.693 34.9121 C 116.113 34.9121 120.557 31.4941 120.557 24.1699 L 120.557 -83.7891 C 120.557 -97.7051 113.086 -105.273 99.2188 -105.273 L 37.4023 -105.273 C 23.5352 -105.273 16.0645 -97.7051 16.0645 -83.7891 L 16.0645 24.1699 C 16.0645 31.4941 20.5078 34.9121 25.8789 34.9121 Z"/>
  </g>
  <g id="Semibold-L" transform="matrix(1 0 0 1 1976.01 1556)">
   <path d="M 24.6582 33.7891 C 28.125 33.7891 30.2246 31.9824 35.5957 26.9531 L 64.2578 -0.439453 C 65.5762 -1.66016 66.4062 -2.00195 67.2363 -2.00195 C 68.1152 -2.00195 68.9941 -1.66016 70.2637 -0.439453 L 101.367 29.4434 C 104.15 32.0312 106.348 33.7891 109.863 33.7891 C 114.6 33.7891 118.457 30.8105 118.457 24.2676 L 118.457 -83.5938 C 118.457 -97.0215 111.377 -104.15 98.0469 -104.15 L 36.4746 -104.15 C 23.0957 -104.15 16.0645 -97.0215 16.0645 -83.5938 L 16.0645 24.2676 C 16.0645 30.8105 19.873 33.7891 24.6582 33.7891 Z"/>
  </g>
  <g id="Medium-L" transform="matrix(1 0 0 1 1680.1 1556)">
   <path d="M 23.6816 32.959 C 26.9043 32.959 28.8086 31.25 34.1797 26.1719 L 63.3301 -1.85547 C 64.7461 -3.17383 65.5762 -3.56445 66.4551 -3.56445 C 67.334 -3.56445 68.2129 -3.17383 69.5801 -1.85547 L 101.416 28.8574 C 103.955 31.25 106.006 32.959 109.229 32.959 C 113.477 32.959 116.846 30.2734 116.846 24.3652 L 116.846 -83.3984 C 116.846 -96.4844 110.107 -103.32 97.1191 -103.32 L 35.791 -103.32 C 22.8027 -103.32 16.0645 -96.4844 16.0645 -83.3984 L 16.0645 24.3652 C 16.0645 30.2734 19.4336 32.959 23.6816 32.959 Z"/>
  </g>
  <g id="Regular-L" transform="matrix(1 0 0 1 1384.44 1556)">
   <path d="M 22.4609 31.8848 C 25.293 31.8848 26.9531 30.2734 32.373 25.1465 L 62.1582 -3.75977 C 63.623 -5.12695 64.502 -5.51758 65.4297 -5.51758 C 66.3574 -5.51758 67.2363 -5.07812 68.6523 -3.75977 L 101.465 28.125 C 103.711 30.3223 105.518 31.8848 108.398 31.8848 C 112.012 31.8848 114.746 29.6387 114.746 24.5117 L 114.746 -83.2031 C 114.746 -95.8008 108.447 -102.197 95.9473 -102.197 L 34.8633 -102.197 C 22.3633 -102.197 16.0645 -95.8008 16.0645 -83.2031 L 16.0645 24.5117 C 16.0645 29.6387 18.7988 31.8848 22.4609 31.8848 Z"/>
  </g>
  <g id="Light-L" transform="matrix(1 0 0 1 1088.56 1556)">
   <path d="M 21.582 31.0547 C 23.9746 31.0547 25.4395 29.7852 29.3457 26.0742 L 61.1328 -5.12695 C 62.6465 -6.5918 63.5742 -6.98242 64.5996 -6.98242 C 65.5762 -6.98242 66.5527 -6.5918 68.0176 -5.12695 L 101.66 27.9297 C 103.613 29.834 105.225 31.0547 107.568 31.0547 C 110.791 31.0547 113.086 29.0039 113.086 24.7559 L 113.086 -83.3496 C 113.086 -95.2148 107.031 -101.367 95.2637 -101.367 L 33.9355 -101.367 C 22.1191 -101.367 16.0645 -95.2148 16.0645 -83.3496 L 16.0645 24.7559 C 16.0645 29.0039 18.4082 31.0547 21.582 31.0547 Z"/>
  </g>
  <g id="Thin-L" transform="matrix(1 0 0 1 792.946 1556)">
   <path d="M 20.459 29.9805 C 22.168 29.9805 23.4863 29.1504 25.3906 27.2949 L 59.7656 -6.98242 C 61.377 -8.54492 62.4023 -8.88672 63.4766 -8.88672 C 64.5996 -8.88672 65.625 -8.54492 67.1875 -6.98242 L 101.953 27.6855 C 103.516 29.248 104.785 29.9805 106.494 29.9805 C 109.131 29.9805 110.889 28.1738 110.889 25.0977 L 110.889 -83.5938 C 110.889 -94.4824 105.176 -100.244 94.3359 -100.244 L 32.666 -100.244 C 21.7773 -100.244 16.0645 -94.4824 16.0645 -83.5938 L 16.0645 25.0977 C 16.0645 28.1738 17.8223 29.9805 20.459 29.9805 Z"/>
  </g>
  <g id="Ultralight-L" transform="matrix(1 0 0 1 496.796 1556)">
   <path d="M 19.873 29.4434 C 21.2402 29.4434 22.5098 28.8086 23.3887 27.9297 L 59.082 -7.91016 C 60.6934 -9.52148 61.7676 -9.86328 62.9395 -9.86328 C 64.0625 -9.86328 65.1367 -9.52148 66.748 -7.91016 L 102.1 27.5391 C 103.467 28.9062 104.59 29.4434 105.957 29.4434 C 108.301 29.4434 109.766 27.7344 109.766 25.293 L 109.766 -83.7402 C 109.766 -94.1406 104.248 -99.6582 93.8477 -99.6582 L 31.9824 -99.6582 C 21.6309 -99.6582 16.0645 -94.1406 16.0645 -83.7402 L 16.0645 25.293 C 16.0645 27.7344 17.5293 29.4434 19.873 29.4434 Z"/>
  </g>
  <g id="Black-M" transform="matrix(1 0 0 1 2876.83 1126)">
   <path d="M 24.5117 22.9492 C 28.6621 22.9492 31.4941 21.1426 34.5703 18.3594 L 54.7852 -0.146484 C 55.4688 -0.78125 56.0547 -0.927734 56.543 -0.927734 C 57.0801 -0.927734 57.666 -0.830078 58.4473 -0.146484 L 78.5156 18.3105 C 81.7383 21.1914 84.4238 22.9492 88.623 22.9492 C 95.0684 22.9492 100.684 18.7988 100.684 10.4004 L 100.684 -73.8281 C 100.684 -86.084 93.4082 -93.3594 81.1523 -93.3594 L 31.9824 -93.3594 C 19.7266 -93.3594 12.4512 -86.084 12.4512 -73.8281 L 12.4512 10.4004 C 12.4512 18.7988 18.0664 22.9492 24.5117 22.9492 Z"/>
  </g>
  <g id="Heavy-M" transform="matrix(1 0 0 1 2581.39 1126)">
   <path d="M 22.9492 21.582 C 26.709 21.582 29.1992 19.873 32.7637 16.6016 L 53.3691 -2.49023 C 54.1504 -3.22266 54.7363 -3.41797 55.2734 -3.41797 C 55.8105 -3.41797 56.4453 -3.22266 57.2754 -2.49023 L 78.5156 17.2852 C 81.3965 19.9219 83.8379 21.582 87.6465 21.582 C 93.2617 21.582 98.1445 17.9688 98.1445 10.5469 L 98.1445 -73.4375 C 98.1445 -85.2051 91.4062 -91.9922 79.6387 -91.9922 L 30.957 -91.9922 C 19.1895 -91.9922 12.4512 -85.2051 12.4512 -73.4375 L 12.4512 10.5469 C 12.4512 17.9688 17.2852 21.582 22.9492 21.582 Z"/>
  </g>
  <g id="Bold-M" transform="matrix(1 0 0 1 2286.12 1126)">
   <path d="M 21.1914 20.1172 C 24.5117 20.1172 26.6113 18.457 30.6641 14.6973 L 51.7578 -5.07812 C 52.6855 -5.9082 53.2715 -6.15234 53.8574 -6.15234 C 54.4434 -6.15234 55.0781 -5.95703 56.0059 -5.07812 L 78.5156 16.1621 C 81.1035 18.5059 83.2031 20.1172 86.5723 20.1172 C 91.3086 20.1172 95.2637 17.0898 95.2637 10.6934 L 95.2637 -73.0469 C 95.2637 -84.2773 89.1113 -90.4785 77.9297 -90.4785 L 29.7852 -90.4785 C 18.6035 -90.4785 12.4512 -84.2773 12.4512 -73.0469 L 12.4512 10.6934 C 12.4512 17.0898 16.4551 20.1172 21.1914 20.1172 Z"/>
  </g>
  <g id="Semibold-M" transform="matrix(1 0 0 1 1990.39 1126)">
   <path d="M 19.9707 19.043 C 22.998 19.043 24.8047 17.4805 29.248 13.3789 L 50.6836 -6.88477 C 51.6602 -7.8125 52.2461 -8.05664 52.8809 -8.05664 C 53.5156 -8.05664 54.1504 -7.8125 55.127 -6.88477 L 78.5156 15.332 C 80.8594 17.5293 82.7637 19.043 85.791 19.043 C 89.9414 19.043 93.3105 16.4551 93.3105 10.7422 L 93.3105 -72.7539 C 93.3105 -83.5938 87.5488 -89.4531 76.8066 -89.4531 L 29.0039 -89.4531 C 18.2129 -89.4531 12.4512 -83.5938 12.4512 -72.7539 L 12.4512 10.7422 C 12.4512 16.4551 15.8691 19.043 19.9707 19.043 Z"/>
  </g>
  <g id="Medium-M" transform="matrix(1 0 0 1 1694.41 1126)">
   <path d="M 19.043 18.2617 C 21.875 18.2617 23.4863 16.748 28.1738 12.3535 L 49.8535 -8.25195 C 50.8789 -9.22852 51.5137 -9.52148 52.1484 -9.52148 C 52.7832 -9.52148 53.418 -9.17969 54.4434 -8.25195 L 78.5156 14.7461 C 80.6641 16.7969 82.4219 18.2617 85.2051 18.2617 C 88.8672 18.2617 91.8457 16.0156 91.8457 10.8398 L 91.8457 -72.5586 C 91.8457 -83.1055 86.377 -88.623 75.9277 -88.623 L 28.3691 -88.623 C 17.9199 -88.623 12.4512 -83.1055 12.4512 -72.5586 L 12.4512 10.8398 C 12.4512 16.0156 15.3809 18.2617 19.043 18.2617 Z"/>
  </g>
  <g id="Regular-M" transform="matrix(1 0 0 1 1398.67 1126)">
   <path d="M 17.8711 17.2363 C 20.3613 17.2363 21.7285 15.8203 26.7578 11.0352 L 48.7793 -10.0586 C 49.8535 -11.084 50.4883 -11.377 51.1719 -11.377 C 51.8555 -11.377 52.4902 -11.0352 53.5645 -10.0586 L 78.4668 13.9648 C 80.4199 15.8203 81.9824 17.2363 84.4727 17.2363 C 87.5 17.2363 89.8926 15.3809 89.8926 10.9375 L 89.8926 -72.3145 C 89.8926 -82.4707 84.8633 -87.5977 74.7559 -87.5977 L 27.5879 -87.5977 C 17.4805 -87.5977 12.4512 -82.4707 12.4512 -72.3145 L 12.4512 10.9375 C 12.4512 15.3809 14.8438 17.2363 17.8711 17.2363 Z"/>
  </g>
  <g id="Light-M" transform="matrix(1 0 0 1 1102.72 1126)">
   <path d="M 17.0898 16.5039 C 19.1895 16.5039 20.4102 15.3809 24.0723 11.8652 L 47.8516 -11.2793 C 48.9746 -12.4023 49.6582 -12.6953 50.4395 -12.6953 C 51.1719 -12.6953 51.9043 -12.3535 52.9785 -11.2793 L 78.7109 13.8184 C 80.3711 15.3809 81.6895 16.5039 83.7402 16.5039 C 86.4258 16.5039 88.3789 14.8438 88.3789 11.1328 L 88.3789 -72.4609 C 88.3789 -81.9824 83.5938 -86.8652 74.1211 -86.8652 L 26.709 -86.8652 C 17.2852 -86.8652 12.4512 -81.9824 12.4512 -72.4609 L 12.4512 11.1328 C 12.4512 14.8438 14.4531 16.5039 17.0898 16.5039 Z"/>
  </g>
  <g id="Thin-M" transform="matrix(1 0 0 1 806.984 1126)">
   <path d="M 16.1133 15.5273 C 17.5781 15.5273 18.6523 14.7949 20.5566 12.9395 L 46.6309 -12.9395 C 47.8516 -14.1113 48.584 -14.4043 49.4141 -14.4043 C 50.2441 -14.4043 51.0254 -14.1113 52.2461 -12.9395 L 78.9551 13.5742 C 80.2734 14.8438 81.2988 15.5273 82.7637 15.5273 C 84.9609 15.5273 86.4258 14.0625 86.4258 11.4746 L 86.4258 -72.6562 C 86.4258 -81.2988 81.9336 -85.8398 73.291 -85.8398 L 25.5859 -85.8398 C 16.9434 -85.8398 12.4512 -81.2988 12.4512 -72.6562 L 12.4512 11.4746 C 12.4512 14.0625 13.916 15.5273 16.1133 15.5273 Z"/>
  </g>
  <g id="Ultralight-M" transform="matrix(1 0 0 1 510.785 1126)">
   <path d="M 15.5762 15.0391 C 16.748 15.0391 17.7246 14.502 18.7012 13.5254 L 45.9961 -13.7695 C 47.2656 -15.0391 48.0469 -15.2832 48.9258 -15.2832 C 49.8047 -15.2832 50.6348 -15.0391 51.8555 -13.7695 L 79.1016 13.4766 C 80.1758 14.5996 81.1035 15.0391 82.2754 15.0391 C 84.1797 15.0391 85.4004 13.6719 85.4004 11.6211 L 85.4004 -72.8027 C 85.4004 -80.957 81.0547 -85.3516 72.8516 -85.3516 L 25 -85.3516 C 16.7969 -85.3516 12.4512 -80.957 12.4512 -72.8027 L 12.4512 11.6211 C 12.4512 13.6719 13.6719 15.0391 15.5762 15.0391 Z"/>
  </g>
  <g id="Black-S" transform="matrix(1 0 0 1 2889.16 696)">
   <path d="M 19.0918 10.2539 C 22.3145 10.2539 24.5117 8.83789 27.002 6.5918 L 42.8223 -7.91016 C 43.3594 -8.39844 43.8477 -8.54492 44.2383 -8.54492 C 44.6289 -8.54492 45.1172 -8.44727 45.7031 -7.91016 L 61.5234 6.64062 C 64.0137 8.88672 66.1133 10.2539 69.3848 10.2539 C 74.3652 10.2539 78.7109 7.03125 78.7109 0.537109 L 78.7109 -65.4297 C 78.7109 -75 73.0469 -80.6641 63.4766 -80.6641 L 25 -80.6641 C 15.4297 -80.6641 9.76562 -75 9.76562 -65.4297 L 9.76562 0.537109 C 9.76562 7.03125 14.1113 10.2539 19.0918 10.2539 Z"/>
  </g>
  <g id="Heavy-S" transform="matrix(1 0 0 1 2593.35 696)">
   <path d="M 17.9688 9.32617 C 20.9473 9.32617 22.9004 7.91016 25.8789 5.17578 L 41.8457 -9.57031 C 42.4316 -10.1074 42.9199 -10.3027 43.3594 -10.3027 C 43.75 -10.3027 44.2383 -10.1562 44.873 -9.57031 L 61.4746 5.85938 C 63.7695 7.95898 65.7227 9.32617 68.7012 9.32617 C 73.1445 9.32617 76.9043 6.49414 76.9043 0.585938 L 76.9043 -65.1367 C 76.9043 -74.4141 71.6309 -79.7363 62.4023 -79.7363 L 24.3164 -79.7363 C 15.0391 -79.7363 9.76562 -74.4141 9.76562 -65.1367 L 9.76562 0.585938 C 9.76562 6.49414 13.5742 9.32617 17.9688 9.32617 Z"/>
  </g>
  <g id="Bold-S" transform="matrix(1 0 0 1 2297.62 696)">
   <path d="M 16.748 8.25195 C 19.4336 8.25195 21.0938 6.88477 24.6582 3.61328 L 40.7715 -11.377 C 41.4551 -12.0605 41.8945 -12.2559 42.334 -12.2559 C 42.7734 -12.2559 43.3105 -12.0605 43.9941 -11.377 L 61.4746 5.0293 C 63.5254 6.93359 65.2344 8.25195 67.9688 8.25195 C 71.7285 8.25195 74.9512 5.85938 74.9512 0.683594 L 74.9512 -64.7949 C 74.9512 -73.7305 70.0684 -78.6621 61.1816 -78.6621 L 23.5352 -78.6621 C 14.6484 -78.6621 9.76562 -73.7305 9.76562 -64.7949 L 9.76562 0.683594 C 9.76562 5.85938 12.9395 8.25195 16.748 8.25195 Z"/>
  </g>
  <g id="Semibold-S" transform="matrix(1 0 0 1 2001.62 696)">
   <path d="M 15.8691 7.51953 C 18.4082 7.51953 19.8242 6.20117 23.7793 2.53906 L 39.9902 -12.6465 C 40.7227 -13.3789 41.2109 -13.5742 41.6504 -13.5742 C 42.1387 -13.5742 42.627 -13.3301 43.3594 -12.6465 L 61.4258 4.44336 C 63.3789 6.20117 64.9414 7.51953 67.4316 7.51953 C 70.8008 7.51953 73.5352 5.41992 73.5352 0.732422 L 73.5352 -64.5996 C 73.5352 -73.291 68.9941 -77.9297 60.3516 -77.9297 L 22.998 -77.9297 C 14.3555 -77.9297 9.76562 -73.291 9.76562 -64.5996 L 9.76562 0.732422 C 9.76562 5.41992 12.5488 7.51953 15.8691 7.51953 Z"/>
  </g>
  <g id="Medium-S" transform="matrix(1 0 0 1 1705.42 696)">
   <path d="M 15.2344 6.98242 C 17.5781 6.98242 18.8965 5.66406 23.1445 1.70898 L 39.4043 -13.623 C 40.1855 -14.3555 40.6738 -14.5996 41.1621 -14.5996 C 41.6016 -14.5996 42.1387 -14.3555 42.8711 -13.623 L 61.4258 3.95508 C 63.2324 5.66406 64.6973 6.98242 67.041 6.98242 C 70.0684 6.98242 72.5098 5.12695 72.5098 0.78125 L 72.5098 -64.4043 C 72.5098 -72.9492 68.1641 -77.3438 59.7168 -77.3438 L 22.5586 -77.3438 C 14.1113 -77.3438 9.76562 -72.9492 9.76562 -64.4043 L 9.76562 0.78125 C 9.76562 5.12695 12.207 6.98242 15.2344 6.98242 Z"/>
  </g>
  <g id="Regular-S" transform="matrix(1 0 0 1 1409.39 696)">
   <path d="M 14.4043 6.25 C 16.5527 6.25 17.6758 4.98047 22.2656 0.634766 L 38.6719 -14.8926 C 39.502 -15.6738 39.9414 -15.918 40.4785 -15.918 C 40.9668 -15.918 41.4551 -15.625 42.2363 -14.8926 L 61.4258 3.36914 C 63.0859 4.98047 64.3555 6.25 66.5527 6.25 C 69.0918 6.25 71.1426 4.6875 71.1426 0.830078 L 71.1426 -64.209 C 71.1426 -72.4609 67.0898 -76.6602 58.8867 -76.6602 L 22.0215 -76.6602 C 13.8184 -76.6602 9.76562 -72.4609 9.76562 -64.209 L 9.76562 0.830078 C 9.76562 4.6875 11.8164 6.25 14.4043 6.25 Z"/>
  </g>
  <g id="Light-S" transform="matrix(1 0 0 1 1113.34 696)">
   <path d="M 13.7207 5.56641 C 15.4785 5.56641 16.5039 4.58984 19.9219 1.36719 L 37.8418 -15.9668 C 38.7207 -16.8457 39.2578 -17.0898 39.7949 -17.0898 C 40.3809 -17.0898 40.918 -16.7969 41.748 -15.9668 L 61.5723 3.22266 C 62.9883 4.58984 64.1113 5.56641 65.8691 5.56641 C 68.1152 5.56641 69.8242 4.19922 69.8242 1.02539 L 69.8242 -64.3555 C 69.8242 -72.0215 65.9668 -75.9766 58.3496 -75.9766 L 21.2891 -75.9766 C 13.623 -75.9766 9.76562 -72.0215 9.76562 -64.3555 L 9.76562 1.02539 C 9.76562 4.19922 11.4746 5.56641 13.7207 5.56641 Z"/>
  </g>
  <g id="Thin-S" transform="matrix(1 0 0 1 817.482 696)">
   <path d="M 12.8418 4.73633 C 14.0625 4.73633 14.9414 4.10156 16.7969 2.29492 L 36.7676 -17.4316 C 37.6953 -18.3594 38.2812 -18.5547 38.916 -18.5547 C 39.5508 -18.5547 40.1855 -18.3594 41.1133 -17.4316 L 61.8164 3.07617 C 62.8906 4.10156 63.7695 4.73633 65.0391 4.73633 C 66.8457 4.73633 68.1152 3.56445 68.1152 1.26953 L 68.1152 -64.502 C 68.1152 -71.4844 64.502 -75.0977 57.6172 -75.0977 L 20.2637 -75.0977 C 13.3789 -75.0977 9.76562 -71.4844 9.76562 -64.502 L 9.76562 1.26953 C 9.76562 3.56445 11.0352 4.73633 12.8418 4.73633 Z"/>
  </g>
  <g id="Ultralight-S" transform="matrix(1 0 0 1 521.235 696)">
   <path d="M 12.3535 4.29688 C 13.3301 4.29688 14.1602 3.80859 15.1855 2.83203 L 36.2305 -18.1641 C 37.1582 -19.1406 37.793 -19.3359 38.4766 -19.3359 C 39.1602 -19.3359 39.7949 -19.1406 40.7715 -18.1641 L 61.9141 2.92969 C 62.8418 3.85742 63.623 4.29688 64.5996 4.29688 C 66.1621 4.29688 67.1875 3.22266 67.1875 1.41602 L 67.1875 -64.6484 C 67.1875 -71.1426 63.7695 -74.6094 57.2266 -74.6094 L 19.7266 -74.6094 C 13.2324 -74.6094 9.76562 -71.1426 9.76562 -64.6484 L 9.76562 1.41602 C 9.76562 3.22266 10.791 4.29688 12.3535 4.29688 Z"/>
  </g>
 </g>
</svg>
